STARTFONT 2.1
COMMENT
COMMENT Converted from OpenType font "msyh.ttf" by "otf2bdf 3.0".
COMMENT
FONT -FreeType-Microsoft YaHei-Medium-R-Normal--12-120-72-72-P-119-ISO10646-1
SIZE 12 72 72
FONTBOUNDINGBOX 17 17 -2 -4
STARTPROPERTIES 19
FOUNDRY "FreeType"
FAMILY_NAME "Microsoft YaHei"
WEIGHT_NAME "Medium"
SLANT "R"
SETWIDTH_NAME "Normal"
ADD_STYLE_NAME ""
PIXEL_SIZE 12
POINT_SIZE 120
RESOLUTION_X 72
RESOLUTION_Y 72
SPACING "P"
AVERAGE_WIDTH 119
CHARSET_REGISTRY "ISO10646"
CHARSET_ENCODING "1"
FONT_ASCENT 12
FONT_DESCENT 3
COPYRIGHT "© 2008  Microsoft Corporation. All Rights Reserved. Portions © 2008 Beijing Founder Electronics Co. Ltd. All Rights Reserved.  © 2008 ®oløHC@	 © 2008 ¬'¹c5P	PløèHC@	"
_OTF_FONTFILE "msyh.ttf"
_OTF_PSNAME "MicrosoftYaHei"
ENDPROPERTIES
CHARS 29109
STARTCHAR 0020
ENCODING 32
SWIDTH 333 0
DWIDTH 4 0
BBX 0 0 0 0
BITMAP
ENDCHAR
STARTCHAR 0021
ENCODING 33
SWIDTH 333 0
DWIDTH 4 0
BBX 2 9 1 0
BITMAP
80
80
80
80
80
80
80
00
C0
ENDCHAR
STARTCHAR 0022
ENCODING 34
SWIDTH 416 0
DWIDTH 5 0
BBX 3 3 1 6
BITMAP
A0
A0
A0
ENDCHAR
STARTCHAR 0023
ENCODING 35
SWIDTH 666 0
DWIDTH 8 0
BBX 7 8 0 1
BITMAP
14
24
7E
24
28
FE
28
48
ENDCHAR
STARTCHAR 0024
ENCODING 36
SWIDTH 583 0
DWIDTH 7 0
BBX 5 11 1 -1
BITMAP
20
70
A8
A0
E0
70
38
28
A8
70
20
ENDCHAR
STARTCHAR 0025
ENCODING 37
SWIDTH 916 0
DWIDTH 11 0
BBX 9 9 1 0
BITMAP
E200
9200
9400
9800
EB80
1480
1480
2480
4300
ENDCHAR
STARTCHAR 0026
ENCODING 38
SWIDTH 833 0
DWIDTH 10 0
BBX 9 9 1 0
BITMAP
3800
4800
4900
7900
7900
8D00
8600
8600
7980
ENDCHAR
STARTCHAR 0027
ENCODING 39
SWIDTH 250 0
DWIDTH 3 0
BBX 1 3 1 6
BITMAP
80
80
80
ENDCHAR
STARTCHAR 0028
ENCODING 40
SWIDTH 333 0
DWIDTH 4 0
BBX 3 11 1 -2
BITMAP
60
40
80
80
80
80
80
80
80
40
40
ENDCHAR
STARTCHAR 0029
ENCODING 41
SWIDTH 333 0
DWIDTH 4 0
BBX 2 11 1 -2
BITMAP
80
80
40
40
40
40
40
40
40
80
80
ENDCHAR
STARTCHAR 002A
ENCODING 42
SWIDTH 416 0
DWIDTH 5 0
BBX 4 4 1 5
BITMAP
40
F0
60
A0
ENDCHAR
STARTCHAR 002B
ENCODING 43
SWIDTH 750 0
DWIDTH 9 0
BBX 6 7 1 0
BITMAP
10
10
10
FC
10
10
10
ENDCHAR
STARTCHAR 002C
ENCODING 44
SWIDTH 250 0
DWIDTH 3 0
BBX 2 3 0 -2
BITMAP
40
40
80
ENDCHAR
STARTCHAR 002D
ENCODING 45
SWIDTH 416 0
DWIDTH 5 0
BBX 3 1 1 3
BITMAP
E0
ENDCHAR
STARTCHAR 002E
ENCODING 46
SWIDTH 250 0
DWIDTH 3 0
BBX 1 2 1 0
BITMAP
80
80
ENDCHAR
STARTCHAR 002F
ENCODING 47
SWIDTH 416 0
DWIDTH 5 0
BBX 5 11 0 -2
BITMAP
08
08
10
10
20
20
20
40
40
80
80
ENDCHAR
STARTCHAR 0030
ENCODING 48
SWIDTH 583 0
DWIDTH 7 0
BBX 6 9 1 0
BITMAP
70
88
88
88
8C
88
88
88
70
ENDCHAR
STARTCHAR 0031
ENCODING 49
SWIDTH 583 0
DWIDTH 7 0
BBX 5 9 1 0
BITMAP
20
E0
20
20
20
20
20
20
F8
ENDCHAR
STARTCHAR 0032
ENCODING 50
SWIDTH 583 0
DWIDTH 7 0
BBX 5 9 1 0
BITMAP
70
88
08
08
18
30
60
C0
F8
ENDCHAR
STARTCHAR 0033
ENCODING 51
SWIDTH 583 0
DWIDTH 7 0
BBX 5 9 1 0
BITMAP
70
98
08
10
60
18
08
88
F0
ENDCHAR
STARTCHAR 0034
ENCODING 52
SWIDTH 583 0
DWIDTH 7 0
BBX 7 9 0 0
BITMAP
08
18
38
28
48
48
FE
08
08
ENDCHAR
STARTCHAR 0035
ENCODING 53
SWIDTH 583 0
DWIDTH 7 0
BBX 5 9 1 0
BITMAP
F8
80
80
F0
18
08
08
98
70
ENDCHAR
STARTCHAR 0036
ENCODING 54
SWIDTH 583 0
DWIDTH 7 0
BBX 6 9 1 0
BITMAP
38
40
80
F8
88
8C
88
C8
70
ENDCHAR
STARTCHAR 0037
ENCODING 55
SWIDTH 583 0
DWIDTH 7 0
BBX 5 9 1 0
BITMAP
F8
08
18
10
10
20
20
60
40
ENDCHAR
STARTCHAR 0038
ENCODING 56
SWIDTH 583 0
DWIDTH 7 0
BBX 5 9 1 0
BITMAP
70
88
88
D8
70
88
88
88
70
ENDCHAR
STARTCHAR 0039
ENCODING 57
SWIDTH 583 0
DWIDTH 7 0
BBX 5 9 1 0
BITMAP
70
88
88
88
88
78
08
18
F0
ENDCHAR
STARTCHAR 003A
ENCODING 58
SWIDTH 250 0
DWIDTH 3 0
BBX 1 6 1 0
BITMAP
80
80
00
00
80
80
ENDCHAR
STARTCHAR 003B
ENCODING 59
SWIDTH 250 0
DWIDTH 3 0
BBX 2 8 0 -2
BITMAP
40
40
00
00
00
40
40
80
ENDCHAR
STARTCHAR 003C
ENCODING 60
SWIDTH 750 0
DWIDTH 9 0
BBX 5 5 2 1
BITMAP
08
70
80
70
08
ENDCHAR
STARTCHAR 003D
ENCODING 61
SWIDTH 750 0
DWIDTH 9 0
BBX 6 4 1 2
BITMAP
FC
00
00
FC
ENDCHAR
STARTCHAR 003E
ENCODING 62
SWIDTH 750 0
DWIDTH 9 0
BBX 5 5 2 1
BITMAP
80
70
08
70
80
ENDCHAR
STARTCHAR 003F
ENCODING 63
SWIDTH 500 0
DWIDTH 6 0
BBX 4 9 1 0
BITMAP
60
90
10
10
20
40
40
00
40
ENDCHAR
STARTCHAR 0040
ENCODING 64
SWIDTH 1000 0
DWIDTH 12 0
BBX 10 10 1 -1
BITMAP
1F00
2080
4C40
9240
9240
9240
9240
5D80
6000
1F00
ENDCHAR
STARTCHAR 0041
ENCODING 65
SWIDTH 666 0
DWIDTH 8 0
BBX 8 9 0 0
BITMAP
18
18
14
24
26
62
7E
43
C1
ENDCHAR
STARTCHAR 0042
ENCODING 66
SWIDTH 666 0
DWIDTH 8 0
BBX 6 9 1 0
BITMAP
F8
88
88
88
F0
8C
84
8C
F8
ENDCHAR
STARTCHAR 0043
ENCODING 67
SWIDTH 666 0
DWIDTH 8 0
BBX 6 9 1 0
BITMAP
3C
44
80
80
80
80
80
C4
3C
ENDCHAR
STARTCHAR 0044
ENCODING 68
SWIDTH 750 0
DWIDTH 9 0
BBX 8 9 1 0
BITMAP
F8
86
82
82
83
82
82
84
F8
ENDCHAR
STARTCHAR 0045
ENCODING 69
SWIDTH 583 0
DWIDTH 7 0
BBX 5 9 1 0
BITMAP
F8
80
80
80
F8
80
80
80
F8
ENDCHAR
STARTCHAR 0046
ENCODING 70
SWIDTH 500 0
DWIDTH 6 0
BBX 5 9 1 0
BITMAP
F8
80
80
80
F8
80
80
80
80
ENDCHAR
STARTCHAR 0047
ENCODING 71
SWIDTH 750 0
DWIDTH 9 0
BBX 7 9 1 0
BITMAP
3C
42
80
80
8E
82
82
42
3C
ENDCHAR
STARTCHAR 0048
ENCODING 72
SWIDTH 750 0
DWIDTH 9 0
BBX 7 9 1 0
BITMAP
82
82
82
82
FE
82
82
82
82
ENDCHAR
STARTCHAR 0049
ENCODING 73
SWIDTH 333 0
DWIDTH 4 0
BBX 3 9 0 0
BITMAP
E0
40
40
40
40
40
40
40
E0
ENDCHAR
STARTCHAR 004A
ENCODING 74
SWIDTH 416 0
DWIDTH 5 0
BBX 4 9 0 0
BITMAP
30
30
30
30
30
30
30
20
E0
ENDCHAR
STARTCHAR 004B
ENCODING 75
SWIDTH 666 0
DWIDTH 8 0
BBX 6 9 1 0
BITMAP
8C
88
90
A0
E0
B0
90
88
84
ENDCHAR
STARTCHAR 004C
ENCODING 76
SWIDTH 500 0
DWIDTH 6 0
BBX 5 9 1 0
BITMAP
80
80
80
80
80
80
80
80
F8
ENDCHAR
STARTCHAR 004D
ENCODING 77
SWIDTH 1000 0
DWIDTH 12 0
BBX 10 9 1 0
BITMAP
C0C0
C1C0
A1C0
A3C0
92C0
92C0
9CC0
8CC0
88C0
ENDCHAR
STARTCHAR 004E
ENCODING 78
SWIDTH 833 0
DWIDTH 10 0
BBX 8 9 1 0
BITMAP
C3
A3
A3
93
9B
8B
87
87
83
ENDCHAR
STARTCHAR 004F
ENCODING 79
SWIDTH 833 0
DWIDTH 10 0
BBX 8 9 1 0
BITMAP
3C
42
81
81
81
81
81
42
3C
ENDCHAR
STARTCHAR 0050
ENCODING 80
SWIDTH 583 0
DWIDTH 7 0
BBX 6 9 1 0
BITMAP
F8
8C
84
84
88
F0
80
80
80
ENDCHAR
STARTCHAR 0051
ENCODING 81
SWIDTH 833 0
DWIDTH 10 0
BBX 8 11 1 -2
BITMAP
3C
42
81
81
81
81
81
42
3C
0C
03
ENDCHAR
STARTCHAR 0052
ENCODING 82
SWIDTH 666 0
DWIDTH 8 0
BBX 6 9 1 0
BITMAP
F8
8C
84
88
F0
98
88
84
84
ENDCHAR
STARTCHAR 0053
ENCODING 83
SWIDTH 583 0
DWIDTH 7 0
BBX 5 9 1 0
BITMAP
70
88
80
80
60
38
08
88
70
ENDCHAR
STARTCHAR 0054
ENCODING 84
SWIDTH 583 0
DWIDTH 7 0
BBX 7 9 0 0
BITMAP
FE
10
10
10
10
10
10
10
10
ENDCHAR
STARTCHAR 0055
ENCODING 85
SWIDTH 750 0
DWIDTH 9 0
BBX 7 9 1 0
BITMAP
82
82
82
82
82
82
82
C4
78
ENDCHAR
STARTCHAR 0056
ENCODING 86
SWIDTH 666 0
DWIDTH 8 0
BBX 8 9 0 0
BITMAP
C1
42
42
62
24
24
3C
18
18
ENDCHAR
STARTCHAR 0057
ENCODING 87
SWIDTH 1000 0
DWIDTH 12 0
BBX 12 9 0 0
BITMAP
C210
4630
4620
4520
6920
2960
2940
28C0
10C0
ENDCHAR
STARTCHAR 0058
ENCODING 88
SWIDTH 666 0
DWIDTH 8 0
BBX 7 9 0 0
BITMAP
42
66
24
18
18
38
24
66
C2
ENDCHAR
STARTCHAR 0059
ENCODING 89
SWIDTH 583 0
DWIDTH 7 0
BBX 7 9 0 0
BITMAP
C2
44
64
2C
28
18
10
10
10
ENDCHAR
STARTCHAR 005A
ENCODING 90
SWIDTH 583 0
DWIDTH 7 0
BBX 7 9 0 0
BITMAP
7E
04
0C
08
10
30
20
40
FE
ENDCHAR
STARTCHAR 005B
ENCODING 91
SWIDTH 333 0
DWIDTH 4 0
BBX 3 11 1 -2
BITMAP
E0
80
80
80
80
80
80
80
80
80
E0
ENDCHAR
STARTCHAR 005C
ENCODING 92
SWIDTH 416 0
DWIDTH 5 0
BBX 5 11 0 -2
BITMAP
80
C0
40
40
20
20
20
10
10
08
08
ENDCHAR
STARTCHAR 005D
ENCODING 93
SWIDTH 333 0
DWIDTH 4 0
BBX 3 11 0 -2
BITMAP
E0
20
20
20
20
20
20
20
20
20
E0
ENDCHAR
STARTCHAR 005E
ENCODING 94
SWIDTH 750 0
DWIDTH 9 0
BBX 5 5 2 4
BITMAP
20
60
50
88
88
ENDCHAR
STARTCHAR 005F
ENCODING 95
SWIDTH 416 0
DWIDTH 5 0
BBX 5 1 0 -2
BITMAP
F8
ENDCHAR
STARTCHAR 0060
ENCODING 96
SWIDTH 333 0
DWIDTH 4 0
BBX 2 2 1 8
BITMAP
80
40
ENDCHAR
STARTCHAR 0061
ENCODING 97
SWIDTH 583 0
DWIDTH 7 0
BBX 5 6 1 0
BITMAP
70
98
78
88
98
E8
ENDCHAR
STARTCHAR 0062
ENCODING 98
SWIDTH 666 0
DWIDTH 8 0
BBX 6 10 1 0
BITMAP
80
80
80
80
B8
CC
84
84
CC
B8
ENDCHAR
STARTCHAR 0063
ENCODING 99
SWIDTH 500 0
DWIDTH 6 0
BBX 5 6 1 0
BITMAP
78
80
80
80
88
70
ENDCHAR
STARTCHAR 0064
ENCODING 100
SWIDTH 666 0
DWIDTH 8 0
BBX 6 10 1 0
BITMAP
04
04
04
04
7C
8C
84
8C
8C
7C
ENDCHAR
STARTCHAR 0065
ENCODING 101
SWIDTH 583 0
DWIDTH 7 0
BBX 5 6 1 0
BITMAP
70
88
F8
80
88
70
ENDCHAR
STARTCHAR 0066
ENCODING 102
SWIDTH 333 0
DWIDTH 4 0
BBX 4 10 0 0
BITMAP
30
20
60
60
F0
60
60
60
60
60
ENDCHAR
STARTCHAR 0067
ENCODING 103
SWIDTH 666 0
DWIDTH 8 0
BBX 6 9 1 -3
BITMAP
7C
8C
8C
8C
8C
7C
0C
88
70
ENDCHAR
STARTCHAR 0068
ENCODING 104
SWIDTH 583 0
DWIDTH 7 0
BBX 6 10 1 0
BITMAP
80
80
80
80
B8
C8
8C
8C
8C
8C
ENDCHAR
STARTCHAR 0069
ENCODING 105
SWIDTH 250 0
DWIDTH 3 0
BBX 1 10 1 0
BITMAP
80
80
00
00
80
80
80
80
80
80
ENDCHAR
STARTCHAR 006A
ENCODING 106
SWIDTH 250 0
DWIDTH 3 0
BBX 3 13 -1 -3
BITMAP
20
20
00
00
20
20
20
20
20
20
20
20
C0
ENDCHAR
STARTCHAR 006B
ENCODING 107
SWIDTH 583 0
DWIDTH 7 0
BBX 5 10 1 0
BITMAP
80
80
80
80
98
B0
E0
A0
90
98
ENDCHAR
STARTCHAR 006C
ENCODING 108
SWIDTH 250 0
DWIDTH 3 0
BBX 1 10 1 0
BITMAP
80
80
80
80
80
80
80
80
80
80
ENDCHAR
STARTCHAR 006D
ENCODING 109
SWIDTH 916 0
DWIDTH 11 0
BBX 9 6 1 0
BITMAP
BB80
CC80
8880
8880
8880
8880
ENDCHAR
STARTCHAR 006E
ENCODING 110
SWIDTH 583 0
DWIDTH 7 0
BBX 6 6 1 0
BITMAP
B8
C8
8C
8C
8C
8C
ENDCHAR
STARTCHAR 006F
ENCODING 111
SWIDTH 666 0
DWIDTH 8 0
BBX 6 6 1 0
BITMAP
78
8C
84
84
8C
78
ENDCHAR
STARTCHAR 0070
ENCODING 112
SWIDTH 666 0
DWIDTH 8 0
BBX 6 9 1 -3
BITMAP
B8
CC
84
84
CC
B8
80
80
80
ENDCHAR
STARTCHAR 0071
ENCODING 113
SWIDTH 666 0
DWIDTH 8 0
BBX 6 9 1 -3
BITMAP
7C
8C
8C
8C
8C
7C
0C
0C
0C
ENDCHAR
STARTCHAR 0072
ENCODING 114
SWIDTH 416 0
DWIDTH 5 0
BBX 4 6 1 0
BITMAP
B0
C0
80
80
80
80
ENDCHAR
STARTCHAR 0073
ENCODING 115
SWIDTH 500 0
DWIDTH 6 0
BBX 4 6 1 0
BITMAP
F0
80
C0
30
90
E0
ENDCHAR
STARTCHAR 0074
ENCODING 116
SWIDTH 333 0
DWIDTH 4 0
BBX 4 8 0 0
BITMAP
60
60
F0
60
60
60
60
30
ENDCHAR
STARTCHAR 0075
ENCODING 117
SWIDTH 583 0
DWIDTH 7 0
BBX 5 6 1 0
BITMAP
88
88
88
88
88
78
ENDCHAR
STARTCHAR 0076
ENCODING 118
SWIDTH 500 0
DWIDTH 6 0
BBX 6 6 0 0
BITMAP
C4
4C
48
68
30
30
ENDCHAR
STARTCHAR 0077
ENCODING 119
SWIDTH 750 0
DWIDTH 9 0
BBX 9 6 0 0
BITMAP
8880
4C80
5480
5500
3300
2300
ENDCHAR
STARTCHAR 0078
ENCODING 120
SWIDTH 500 0
DWIDTH 6 0
BBX 5 6 1 0
BITMAP
98
D0
60
60
90
98
ENDCHAR
STARTCHAR 0079
ENCODING 121
SWIDTH 500 0
DWIDTH 6 0
BBX 6 9 0 -3
BITMAP
C4
44
48
28
30
30
30
20
C0
ENDCHAR
STARTCHAR 007A
ENCODING 122
SWIDTH 500 0
DWIDTH 6 0
BBX 6 6 0 0
BITMAP
7C
08
10
20
40
FC
ENDCHAR
STARTCHAR 007B
ENCODING 123
SWIDTH 333 0
DWIDTH 4 0
BBX 3 11 1 -2
BITMAP
60
40
40
40
C0
80
C0
40
40
40
60
ENDCHAR
STARTCHAR 007C
ENCODING 124
SWIDTH 250 0
DWIDTH 3 0
BBX 1 13 1 -3
BITMAP
80
80
80
80
80
80
80
80
80
80
80
80
80
ENDCHAR
STARTCHAR 007D
ENCODING 125
SWIDTH 333 0
DWIDTH 4 0
BBX 3 11 0 -2
BITMAP
C0
40
40
40
20
20
60
40
40
40
C0
ENDCHAR
STARTCHAR 007E
ENCODING 126
SWIDTH 750 0
DWIDTH 9 0
BBX 7 2 1 3
BITMAP
72
9C
ENDCHAR
STARTCHAR 007F
ENCODING 127
SWIDTH 333 0
DWIDTH 4 0
BBX 0 0 0 0
BITMAP
ENDCHAR
STARTCHAR 00A0
ENCODING 160
SWIDTH 333 0
DWIDTH 4 0
BBX 0 0 0 0
BITMAP
ENDCHAR
STARTCHAR 00A1
ENCODING 161
SWIDTH 333 0
DWIDTH 4 0
BBX 2 9 1 -3
BITMAP
C0
00
80
80
80
80
80
80
80
ENDCHAR
STARTCHAR 00A2
ENCODING 162
SWIDTH 583 0
DWIDTH 7 0
BBX 5 9 1 0
BITMAP
10
38
50
90
90
90
50
38
10
ENDCHAR
STARTCHAR 00A3
ENCODING 163
SWIDTH 583 0
DWIDTH 7 0
BBX 5 9 1 0
BITMAP
38
40
40
40
F0
40
40
40
F8
ENDCHAR
STARTCHAR 00A4
ENCODING 164
SWIDTH 583 0
DWIDTH 7 0
BBX 5 7 1 1
BITMAP
88
F8
88
88
88
F8
88
ENDCHAR
STARTCHAR 00A5
ENCODING 165
SWIDTH 583 0
DWIDTH 7 0
BBX 5 9 1 0
BITMAP
88
88
50
50
F8
20
F8
20
20
ENDCHAR
STARTCHAR 00A6
ENCODING 166
SWIDTH 250 0
DWIDTH 3 0
BBX 1 13 1 -3
BITMAP
80
80
80
80
80
00
00
00
80
80
80
80
80
ENDCHAR
STARTCHAR 00A7
ENCODING 167
SWIDTH 500 0
DWIDTH 6 0
BBX 4 9 1 0
BITMAP
70
80
C0
B0
90
D0
30
10
E0
ENDCHAR
STARTCHAR 00A8
ENCODING 168
SWIDTH 416 0
DWIDTH 5 0
BBX 4 1 1 8
BITMAP
B0
ENDCHAR
STARTCHAR 00A9
ENCODING 169
SWIDTH 1000 0
DWIDTH 12 0
BBX 9 10 1 -1
BITMAP
1E00
6100
9C80
B080
A080
A080
B080
9E80
6100
1E00
ENDCHAR
STARTCHAR 00AA
ENCODING 170
SWIDTH 416 0
DWIDTH 5 0
BBX 3 5 1 4
BITMAP
E0
20
E0
A0
E0
ENDCHAR
STARTCHAR 00AB
ENCODING 171
SWIDTH 583 0
DWIDTH 7 0
BBX 5 4 1 1
BITMAP
48
90
90
48
ENDCHAR
STARTCHAR 00AC
ENCODING 172
SWIDTH 750 0
DWIDTH 9 0
BBX 6 3 1 1
BITMAP
FC
04
04
ENDCHAR
STARTCHAR 00AD
ENCODING 173
SWIDTH 416 0
DWIDTH 5 0
BBX 3 1 1 3
BITMAP
E0
ENDCHAR
STARTCHAR 00AE
ENCODING 174
SWIDTH 1000 0
DWIDTH 12 0
BBX 9 10 1 -1
BITMAP
1E00
6100
9C80
9280
9280
9C80
9480
9280
6100
1E00
ENDCHAR
STARTCHAR 00AF
ENCODING 175
SWIDTH 416 0
DWIDTH 5 0
BBX 5 1 0 9
BITMAP
F8
ENDCHAR
STARTCHAR 00B0
ENCODING 176
SWIDTH 416 0
DWIDTH 5 0
BBX 3 4 1 5
BITMAP
E0
A0
A0
E0
ENDCHAR
STARTCHAR 00B1
ENCODING 177
SWIDTH 750 0
DWIDTH 9 0
BBX 6 7 1 0
BITMAP
10
10
FC
10
10
00
FC
ENDCHAR
STARTCHAR 00B2
ENCODING 178
SWIDTH 416 0
DWIDTH 5 0
BBX 3 5 1 4
BITMAP
E0
20
20
40
E0
ENDCHAR
STARTCHAR 00B3
ENCODING 179
SWIDTH 416 0
DWIDTH 5 0
BBX 3 5 1 4
BITMAP
E0
20
C0
20
E0
ENDCHAR
STARTCHAR 00B4
ENCODING 180
SWIDTH 333 0
DWIDTH 4 0
BBX 2 2 1 8
BITMAP
40
80
ENDCHAR
STARTCHAR 00B5
ENCODING 181
SWIDTH 666 0
DWIDTH 8 0
BBX 6 9 1 -3
BITMAP
88
88
88
88
C8
F4
80
80
80
ENDCHAR
STARTCHAR 00B6
ENCODING 182
SWIDTH 500 0
DWIDTH 6 0
BBX 4 9 1 0
BITMAP
F0
D0
D0
D0
50
50
50
50
50
ENDCHAR
STARTCHAR 00B7
ENCODING 183
SWIDTH 250 0
DWIDTH 3 0
BBX 1 2 1 3
BITMAP
80
80
ENDCHAR
STARTCHAR 00B8
ENCODING 184
SWIDTH 250 0
DWIDTH 3 0
BBX 3 4 0 -4
BITMAP
80
40
20
C0
ENDCHAR
STARTCHAR 00B9
ENCODING 185
SWIDTH 416 0
DWIDTH 5 0
BBX 3 5 1 4
BITMAP
C0
40
40
40
E0
ENDCHAR
STARTCHAR 00BA
ENCODING 186
SWIDTH 500 0
DWIDTH 6 0
BBX 5 5 0 4
BITMAP
70
48
88
48
70
ENDCHAR
STARTCHAR 00BB
ENCODING 187
SWIDTH 583 0
DWIDTH 7 0
BBX 5 4 1 1
BITMAP
90
48
48
90
ENDCHAR
STARTCHAR 00BC
ENCODING 188
SWIDTH 1000 0
DWIDTH 12 0
BBX 10 9 1 0
BITMAP
C100
4200
4400
4400
E880
0980
1280
23C0
2080
ENDCHAR
STARTCHAR 00BD
ENCODING 189
SWIDTH 1000 0
DWIDTH 12 0
BBX 10 9 1 0
BITMAP
C100
4200
4400
4400
E9C0
0840
1040
2180
21C0
ENDCHAR
STARTCHAR 00BE
ENCODING 190
SWIDTH 1000 0
DWIDTH 12 0
BBX 10 9 1 0
BITMAP
E100
2100
C200
2400
E480
0980
1280
13C0
2080
ENDCHAR
STARTCHAR 00BF
ENCODING 191
SWIDTH 500 0
DWIDTH 6 0
BBX 4 9 1 -3
BITMAP
20
00
00
20
20
40
80
80
F0
ENDCHAR
STARTCHAR 00C0
ENCODING 192
SWIDTH 666 0
DWIDTH 8 0
BBX 8 12 0 0
BITMAP
10
08
00
18
18
14
24
26
62
7E
43
C1
ENDCHAR
STARTCHAR 00C1
ENCODING 193
SWIDTH 666 0
DWIDTH 8 0
BBX 8 12 0 0
BITMAP
08
10
00
18
18
14
24
26
62
7E
43
C1
ENDCHAR
STARTCHAR 00C2
ENCODING 194
SWIDTH 666 0
DWIDTH 8 0
BBX 8 12 0 0
BITMAP
18
14
00
18
18
14
24
26
62
7E
43
C1
ENDCHAR
STARTCHAR 00C3
ENCODING 195
SWIDTH 666 0
DWIDTH 8 0
BBX 8 12 0 0
BITMAP
34
2C
00
18
18
14
24
26
62
7E
43
C1
ENDCHAR
STARTCHAR 00C4
ENCODING 196
SWIDTH 666 0
DWIDTH 8 0
BBX 8 11 0 0
BITMAP
34
00
18
18
14
24
26
62
7E
43
C1
ENDCHAR
STARTCHAR 00C5
ENCODING 197
SWIDTH 666 0
DWIDTH 8 0
BBX 8 11 0 0
BITMAP
18
24
18
18
1C
34
24
22
7E
43
C1
ENDCHAR
STARTCHAR 00C6
ENCODING 198
SWIDTH 916 0
DWIDTH 11 0
BBX 11 9 0 0
BITMAP
0FC0
0A00
1A00
1200
33C0
2200
7E00
4200
C3E0
ENDCHAR
STARTCHAR 00C7
ENCODING 199
SWIDTH 666 0
DWIDTH 8 0
BBX 6 13 1 -4
BITMAP
3C
44
80
80
80
80
80
44
3C
10
18
08
18
ENDCHAR
STARTCHAR 00C8
ENCODING 200
SWIDTH 583 0
DWIDTH 7 0
BBX 5 12 1 0
BITMAP
40
20
00
F8
80
80
80
F8
80
80
80
F8
ENDCHAR
STARTCHAR 00C9
ENCODING 201
SWIDTH 583 0
DWIDTH 7 0
BBX 5 12 1 0
BITMAP
10
20
00
F8
80
80
80
F8
80
80
80
F8
ENDCHAR
STARTCHAR 00CA
ENCODING 202
SWIDTH 583 0
DWIDTH 7 0
BBX 5 12 1 0
BITMAP
20
50
00
F8
80
80
80
F8
80
80
80
F8
ENDCHAR
STARTCHAR 00CB
ENCODING 203
SWIDTH 583 0
DWIDTH 7 0
BBX 5 11 1 0
BITMAP
50
00
F8
80
80
80
F8
80
80
80
F8
ENDCHAR
STARTCHAR 00CC
ENCODING 204
SWIDTH 333 0
DWIDTH 4 0
BBX 3 12 0 0
BITMAP
40
40
00
E0
40
40
40
40
40
40
40
E0
ENDCHAR
STARTCHAR 00CD
ENCODING 205
SWIDTH 333 0
DWIDTH 4 0
BBX 3 12 0 0
BITMAP
20
40
00
E0
40
40
40
40
40
40
40
E0
ENDCHAR
STARTCHAR 00CE
ENCODING 206
SWIDTH 333 0
DWIDTH 4 0
BBX 3 12 0 0
BITMAP
60
A0
00
E0
40
40
40
40
40
40
40
E0
ENDCHAR
STARTCHAR 00CF
ENCODING 207
SWIDTH 333 0
DWIDTH 4 0
BBX 4 11 0 0
BITMAP
B0
00
E0
40
40
40
40
40
40
40
E0
ENDCHAR
STARTCHAR 00D0
ENCODING 208
SWIDTH 750 0
DWIDTH 9 0
BBX 9 9 0 0
BITMAP
7C00
4300
4100
4180
F180
4100
4100
4200
7C00
ENDCHAR
STARTCHAR 00D1
ENCODING 209
SWIDTH 833 0
DWIDTH 10 0
BBX 8 12 1 0
BITMAP
34
2C
00
C3
A3
A3
93
9B
8B
87
87
83
ENDCHAR
STARTCHAR 00D2
ENCODING 210
SWIDTH 833 0
DWIDTH 10 0
BBX 8 12 1 0
BITMAP
10
10
00
3C
42
81
81
81
81
81
42
3C
ENDCHAR
STARTCHAR 00D3
ENCODING 211
SWIDTH 833 0
DWIDTH 10 0
BBX 8 12 1 0
BITMAP
08
10
00
3C
42
81
81
81
81
81
42
3C
ENDCHAR
STARTCHAR 00D4
ENCODING 212
SWIDTH 833 0
DWIDTH 10 0
BBX 8 12 1 0
BITMAP
18
28
00
3C
42
81
81
81
81
81
42
3C
ENDCHAR
STARTCHAR 00D5
ENCODING 213
SWIDTH 833 0
DWIDTH 10 0
BBX 8 12 1 0
BITMAP
34
2C
00
3C
42
81
81
81
81
81
42
3C
ENDCHAR
STARTCHAR 00D6
ENCODING 214
SWIDTH 833 0
DWIDTH 10 0
BBX 8 11 1 0
BITMAP
2C
00
3C
42
81
81
81
81
81
42
3C
ENDCHAR
STARTCHAR 00D7
ENCODING 215
SWIDTH 750 0
DWIDTH 9 0
BBX 5 6 2 1
BITMAP
88
D0
70
70
D0
88
ENDCHAR
STARTCHAR 00D8
ENCODING 216
SWIDTH 833 0
DWIDTH 10 0
BBX 8 9 1 0
BITMAP
3D
42
87
89
91
A1
C1
42
BC
ENDCHAR
STARTCHAR 00D9
ENCODING 217
SWIDTH 750 0
DWIDTH 9 0
BBX 7 12 1 0
BITMAP
20
10
00
82
82
82
82
82
82
82
C4
78
ENDCHAR
STARTCHAR 00DA
ENCODING 218
SWIDTH 750 0
DWIDTH 9 0
BBX 7 12 1 0
BITMAP
08
10
00
82
82
82
82
82
82
82
C4
78
ENDCHAR
STARTCHAR 00DB
ENCODING 219
SWIDTH 750 0
DWIDTH 9 0
BBX 7 12 1 0
BITMAP
10
28
00
82
82
82
82
82
82
82
C4
78
ENDCHAR
STARTCHAR 00DC
ENCODING 220
SWIDTH 750 0
DWIDTH 9 0
BBX 7 11 1 0
BITMAP
28
00
82
82
82
82
82
82
82
C4
78
ENDCHAR
STARTCHAR 00DD
ENCODING 221
SWIDTH 583 0
DWIDTH 7 0
BBX 7 12 0 0
BITMAP
08
10
00
C2
44
64
2C
28
18
10
10
10
ENDCHAR
STARTCHAR 00DE
ENCODING 222
SWIDTH 583 0
DWIDTH 7 0
BBX 6 9 1 0
BITMAP
80
F8
8C
84
84
88
F0
80
80
ENDCHAR
STARTCHAR 00DF
ENCODING 223
SWIDTH 583 0
DWIDTH 7 0
BBX 6 10 1 0
BITMAP
70
C8
88
98
B0
88
8C
84
88
B8
ENDCHAR
STARTCHAR 00E0
ENCODING 224
SWIDTH 583 0
DWIDTH 7 0
BBX 5 9 1 0
BITMAP
40
20
00
70
98
78
88
98
E8
ENDCHAR
STARTCHAR 00E1
ENCODING 225
SWIDTH 583 0
DWIDTH 7 0
BBX 5 9 1 0
BITMAP
20
20
00
70
98
78
88
98
E8
ENDCHAR
STARTCHAR 00E2
ENCODING 226
SWIDTH 583 0
DWIDTH 7 0
BBX 5 9 1 0
BITMAP
20
50
00
70
98
78
88
98
E8
ENDCHAR
STARTCHAR 00E3
ENCODING 227
SWIDTH 583 0
DWIDTH 7 0
BBX 5 9 1 0
BITMAP
50
B0
00
70
98
78
88
98
E8
ENDCHAR
STARTCHAR 00E4
ENCODING 228
SWIDTH 583 0
DWIDTH 7 0
BBX 5 8 1 0
BITMAP
D0
00
70
98
78
88
98
E8
ENDCHAR
STARTCHAR 00E5
ENCODING 229
SWIDTH 583 0
DWIDTH 7 0
BBX 5 10 1 0
BITMAP
60
50
60
00
70
98
78
88
98
E8
ENDCHAR
STARTCHAR 00E6
ENCODING 230
SWIDTH 916 0
DWIDTH 11 0
BBX 9 6 1 0
BITMAP
7700
8880
FF80
8800
9880
E700
ENDCHAR
STARTCHAR 00E7
ENCODING 231
SWIDTH 500 0
DWIDTH 6 0
BBX 5 9 1 -3
BITMAP
78
80
80
80
88
70
30
10
30
ENDCHAR
STARTCHAR 00E8
ENCODING 232
SWIDTH 583 0
DWIDTH 7 0
BBX 5 9 1 0
BITMAP
20
20
00
70
88
F8
80
88
70
ENDCHAR
STARTCHAR 00E9
ENCODING 233
SWIDTH 583 0
DWIDTH 7 0
BBX 5 9 1 0
BITMAP
10
20
00
70
88
F8
80
88
70
ENDCHAR
STARTCHAR 00EA
ENCODING 234
SWIDTH 583 0
DWIDTH 7 0
BBX 5 9 1 0
BITMAP
20
50
00
70
88
F8
80
88
70
ENDCHAR
STARTCHAR 00EB
ENCODING 235
SWIDTH 583 0
DWIDTH 7 0
BBX 5 8 1 0
BITMAP
50
00
70
88
F8
80
88
70
ENDCHAR
STARTCHAR 00EC
ENCODING 236
SWIDTH 250 0
DWIDTH 3 0
BBX 2 9 0 0
BITMAP
C0
40
00
40
40
40
40
40
40
ENDCHAR
STARTCHAR 00ED
ENCODING 237
SWIDTH 250 0
DWIDTH 3 0
BBX 2 9 1 0
BITMAP
40
80
00
80
80
80
80
80
80
ENDCHAR
STARTCHAR 00EE
ENCODING 238
SWIDTH 250 0
DWIDTH 3 0
BBX 3 9 0 0
BITMAP
40
A0
00
40
40
40
40
40
40
ENDCHAR
STARTCHAR 00EF
ENCODING 239
SWIDTH 250 0
DWIDTH 3 0
BBX 3 8 0 0
BITMAP
A0
00
40
40
40
40
40
40
ENDCHAR
STARTCHAR 00F0
ENCODING 240
SWIDTH 583 0
DWIDTH 7 0
BBX 6 10 1 0
BITMAP
68
30
50
08
78
8C
8C
8C
88
70
ENDCHAR
STARTCHAR 00F1
ENCODING 241
SWIDTH 583 0
DWIDTH 7 0
BBX 6 9 1 0
BITMAP
68
90
00
B8
C8
8C
8C
8C
8C
ENDCHAR
STARTCHAR 00F2
ENCODING 242
SWIDTH 666 0
DWIDTH 8 0
BBX 6 9 1 0
BITMAP
20
20
00
78
8C
84
84
8C
78
ENDCHAR
STARTCHAR 00F3
ENCODING 243
SWIDTH 666 0
DWIDTH 8 0
BBX 6 9 1 0
BITMAP
10
20
00
78
8C
84
84
8C
78
ENDCHAR
STARTCHAR 00F4
ENCODING 244
SWIDTH 666 0
DWIDTH 8 0
BBX 6 9 1 0
BITMAP
30
50
00
78
8C
84
84
8C
78
ENDCHAR
STARTCHAR 00F5
ENCODING 245
SWIDTH 666 0
DWIDTH 8 0
BBX 6 9 1 0
BITMAP
68
98
00
78
8C
84
84
8C
78
ENDCHAR
STARTCHAR 00F6
ENCODING 246
SWIDTH 666 0
DWIDTH 8 0
BBX 6 8 1 0
BITMAP
58
00
78
8C
84
84
8C
78
ENDCHAR
STARTCHAR 00F7
ENCODING 247
SWIDTH 750 0
DWIDTH 9 0
BBX 6 5 1 1
BITMAP
10
00
FC
00
10
ENDCHAR
STARTCHAR 00F8
ENCODING 248
SWIDTH 666 0
DWIDTH 8 0
BBX 7 6 0 0
BITMAP
3E
46
4A
52
66
BC
ENDCHAR
STARTCHAR 00F9
ENCODING 249
SWIDTH 583 0
DWIDTH 7 0
BBX 5 9 1 0
BITMAP
40
20
00
88
88
88
88
88
78
ENDCHAR
STARTCHAR 00FA
ENCODING 250
SWIDTH 583 0
DWIDTH 7 0
BBX 5 9 1 0
BITMAP
10
20
00
88
88
88
88
88
78
ENDCHAR
STARTCHAR 00FB
ENCODING 251
SWIDTH 583 0
DWIDTH 7 0
BBX 5 9 1 0
BITMAP
20
50
00
88
88
88
88
88
78
ENDCHAR
STARTCHAR 00FC
ENCODING 252
SWIDTH 583 0
DWIDTH 7 0
BBX 5 8 1 0
BITMAP
58
00
88
88
88
88
88
78
ENDCHAR
STARTCHAR 00FD
ENCODING 253
SWIDTH 500 0
DWIDTH 6 0
BBX 6 12 0 -3
BITMAP
10
10
00
C4
44
48
28
30
30
30
20
C0
ENDCHAR
STARTCHAR 00FE
ENCODING 254
SWIDTH 666 0
DWIDTH 8 0
BBX 6 13 1 -3
BITMAP
80
80
80
80
B8
CC
84
84
CC
B8
80
80
80
ENDCHAR
STARTCHAR 00FF
ENCODING 255
SWIDTH 500 0
DWIDTH 6 0
BBX 6 11 0 -3
BITMAP
68
00
C4
44
48
28
30
30
30
20
C0
ENDCHAR
STARTCHAR 0100
ENCODING 256
SWIDTH 666 0
DWIDTH 8 0
BBX 8 11 0 0
BITMAP
3C
00
18
18
14
24
26
62
7E
43
C1
ENDCHAR
STARTCHAR 0101
ENCODING 257
SWIDTH 583 0
DWIDTH 7 0
BBX 5 8 1 0
BITMAP
70
00
70
98
78
88
98
E8
ENDCHAR
STARTCHAR 0102
ENCODING 258
SWIDTH 666 0
DWIDTH 8 0
BBX 8 12 0 0
BITMAP
24
18
00
18
18
14
24
26
62
7E
43
C1
ENDCHAR
STARTCHAR 0103
ENCODING 259
SWIDTH 583 0
DWIDTH 7 0
BBX 5 9 1 0
BITMAP
90
60
00
70
98
78
88
98
E8
ENDCHAR
STARTCHAR 0104
ENCODING 260
SWIDTH 666 0
DWIDTH 8 0
BBX 8 11 0 -2
BITMAP
18
18
14
24
26
62
7E
43
C1
02
01
ENDCHAR
STARTCHAR 0105
ENCODING 261
SWIDTH 583 0
DWIDTH 7 0
BBX 5 8 1 -2
BITMAP
70
98
38
C8
98
E8
10
18
ENDCHAR
STARTCHAR 0106
ENCODING 262
SWIDTH 666 0
DWIDTH 8 0
BBX 6 12 1 0
BITMAP
08
08
00
3C
44
80
80
80
80
80
C4
3C
ENDCHAR
STARTCHAR 0107
ENCODING 263
SWIDTH 500 0
DWIDTH 6 0
BBX 5 9 1 0
BITMAP
10
20
00
78
80
80
80
88
70
ENDCHAR
STARTCHAR 0108
ENCODING 264
SWIDTH 666 0
DWIDTH 8 0
BBX 6 12 1 0
BITMAP
18
28
00
3C
44
80
80
80
80
80
C4
3C
ENDCHAR
STARTCHAR 0109
ENCODING 265
SWIDTH 500 0
DWIDTH 6 0
BBX 5 9 1 0
BITMAP
20
50
00
78
80
80
80
88
70
ENDCHAR
STARTCHAR 010A
ENCODING 266
SWIDTH 666 0
DWIDTH 8 0
BBX 6 11 1 0
BITMAP
10
00
3C
44
80
80
80
80
80
C4
3C
ENDCHAR
STARTCHAR 010B
ENCODING 267
SWIDTH 500 0
DWIDTH 6 0
BBX 5 8 1 0
BITMAP
20
00
78
80
80
80
88
70
ENDCHAR
STARTCHAR 010C
ENCODING 268
SWIDTH 666 0
DWIDTH 8 0
BBX 6 12 1 0
BITMAP
14
18
00
3C
44
80
80
80
80
80
C4
3C
ENDCHAR
STARTCHAR 010D
ENCODING 269
SWIDTH 500 0
DWIDTH 6 0
BBX 5 9 1 0
BITMAP
50
20
00
78
80
80
80
88
70
ENDCHAR
STARTCHAR 010E
ENCODING 270
SWIDTH 750 0
DWIDTH 9 0
BBX 8 10 1 0
BITMAP
28
F8
86
82
82
83
82
82
84
F8
ENDCHAR
STARTCHAR 010F
ENCODING 271
SWIDTH 750 0
DWIDTH 9 0
BBX 8 10 1 0
BITMAP
05
06
04
04
74
8C
84
8C
8C
7C
ENDCHAR
STARTCHAR 0110
ENCODING 272
SWIDTH 750 0
DWIDTH 9 0
BBX 9 9 0 0
BITMAP
7C00
4300
4100
4180
F180
4100
4100
4200
7C00
ENDCHAR
STARTCHAR 0111
ENCODING 273
SWIDTH 666 0
DWIDTH 8 0
BBX 7 10 1 0
BITMAP
0C
3E
0C
0C
7C
8C
84
84
8C
7C
ENDCHAR
STARTCHAR 0112
ENCODING 274
SWIDTH 583 0
DWIDTH 7 0
BBX 5 11 1 0
BITMAP
70
00
F8
80
80
80
F8
80
80
80
F8
ENDCHAR
STARTCHAR 0113
ENCODING 275
SWIDTH 583 0
DWIDTH 7 0
BBX 5 8 1 0
BITMAP
70
00
70
88
F8
80
88
70
ENDCHAR
STARTCHAR 0114
ENCODING 276
SWIDTH 583 0
DWIDTH 7 0
BBX 5 12 1 0
BITMAP
50
70
00
F8
80
80
80
F8
80
80
80
F8
ENDCHAR
STARTCHAR 0115
ENCODING 277
SWIDTH 583 0
DWIDTH 7 0
BBX 5 9 1 0
BITMAP
50
70
00
70
88
F8
80
88
70
ENDCHAR
STARTCHAR 0116
ENCODING 278
SWIDTH 583 0
DWIDTH 7 0
BBX 5 11 1 0
BITMAP
20
00
F8
80
80
80
F8
80
80
80
F8
ENDCHAR
STARTCHAR 0117
ENCODING 279
SWIDTH 583 0
DWIDTH 7 0
BBX 5 8 1 0
BITMAP
20
00
70
88
F8
80
88
70
ENDCHAR
STARTCHAR 0118
ENCODING 280
SWIDTH 583 0
DWIDTH 7 0
BBX 5 11 1 -2
BITMAP
F8
80
80
80
F8
80
80
80
F8
10
18
ENDCHAR
STARTCHAR 0119
ENCODING 281
SWIDTH 583 0
DWIDTH 7 0
BBX 5 8 1 -2
BITMAP
70
88
F8
80
80
78
20
30
ENDCHAR
STARTCHAR 011A
ENCODING 282
SWIDTH 583 0
DWIDTH 7 0
BBX 5 12 1 0
BITMAP
50
20
00
F8
80
80
80
F8
80
80
80
F8
ENDCHAR
STARTCHAR 011B
ENCODING 283
SWIDTH 583 0
DWIDTH 7 0
BBX 5 9 1 0
BITMAP
50
20
00
70
88
F8
80
88
70
ENDCHAR
STARTCHAR 011C
ENCODING 284
SWIDTH 750 0
DWIDTH 9 0
BBX 7 12 1 0
BITMAP
18
28
00
3C
42
80
80
8E
82
82
42
3C
ENDCHAR
STARTCHAR 011D
ENCODING 285
SWIDTH 666 0
DWIDTH 8 0
BBX 6 12 1 -3
BITMAP
20
50
00
7C
8C
8C
8C
8C
7C
0C
88
70
ENDCHAR
STARTCHAR 011E
ENCODING 286
SWIDTH 750 0
DWIDTH 9 0
BBX 7 12 1 0
BITMAP
24
18
00
3C
42
80
80
8E
82
82
42
3C
ENDCHAR
STARTCHAR 011F
ENCODING 287
SWIDTH 666 0
DWIDTH 8 0
BBX 6 12 1 -3
BITMAP
50
30
00
7C
8C
8C
8C
8C
7C
0C
88
70
ENDCHAR
STARTCHAR 0120
ENCODING 288
SWIDTH 750 0
DWIDTH 9 0
BBX 7 11 1 0
BITMAP
18
00
3C
42
80
80
8E
82
82
42
3C
ENDCHAR
STARTCHAR 0121
ENCODING 289
SWIDTH 666 0
DWIDTH 8 0
BBX 6 11 1 -3
BITMAP
20
00
7C
8C
8C
8C
8C
7C
0C
88
70
ENDCHAR
STARTCHAR 0122
ENCODING 290
SWIDTH 750 0
DWIDTH 9 0
BBX 7 12 1 -3
BITMAP
3C
42
80
80
8E
82
82
42
3C
00
10
10
ENDCHAR
STARTCHAR 0123
ENCODING 291
SWIDTH 666 0
DWIDTH 8 0
BBX 6 13 1 -3
BITMAP
10
20
00
00
7C
8C
84
8C
8C
7C
0C
88
70
ENDCHAR
STARTCHAR 0124
ENCODING 292
SWIDTH 750 0
DWIDTH 9 0
BBX 7 12 1 0
BITMAP
10
28
00
82
82
82
82
FE
82
82
82
82
ENDCHAR
STARTCHAR 0125
ENCODING 293
SWIDTH 583 0
DWIDTH 7 0
BBX 7 12 0 0
BITMAP
40
A0
40
40
40
40
5C
64
46
46
46
46
ENDCHAR
STARTCHAR 0126
ENCODING 294
SWIDTH 750 0
DWIDTH 9 0
BBX 9 9 0 0
BITMAP
4100
4100
FF80
4100
7F00
4100
4100
4100
4100
ENDCHAR
STARTCHAR 0127
ENCODING 295
SWIDTH 583 0
DWIDTH 7 0
BBX 7 10 0 0
BITMAP
40
40
F0
40
5C
64
46
46
46
46
ENDCHAR
STARTCHAR 012B
ENCODING 299
SWIDTH 250 0
DWIDTH 3 0
BBX 3 8 0 0
BITMAP
E0
00
40
40
40
40
40
40
ENDCHAR
STARTCHAR 012E
ENCODING 302
SWIDTH 333 0
DWIDTH 4 0
BBX 3 12 0 -3
BITMAP
E0
40
40
40
40
40
40
40
E0
40
40
40
ENDCHAR
STARTCHAR 012F
ENCODING 303
SWIDTH 250 0
DWIDTH 3 0
BBX 2 13 0 -3
BITMAP
40
40
00
00
40
40
40
40
40
40
40
80
C0
ENDCHAR
STARTCHAR 0130
ENCODING 304
SWIDTH 333 0
DWIDTH 4 0
BBX 3 11 0 0
BITMAP
40
00
E0
40
40
40
40
40
40
40
E0
ENDCHAR
STARTCHAR 0131
ENCODING 305
SWIDTH 250 0
DWIDTH 3 0
BBX 1 6 1 0
BITMAP
80
80
80
80
80
80
ENDCHAR
STARTCHAR 0132
ENCODING 306
SWIDTH 666 0
DWIDTH 8 0
BBX 7 9 0 0
BITMAP
E2
42
42
42
42
42
42
42
EC
ENDCHAR
STARTCHAR 0133
ENCODING 307
SWIDTH 500 0
DWIDTH 6 0
BBX 4 13 1 -3
BITMAP
90
90
00
00
90
90
90
90
90
90
10
10
60
ENDCHAR
STARTCHAR 0134
ENCODING 308
SWIDTH 416 0
DWIDTH 5 0
BBX 5 12 0 0
BITMAP
30
48
00
30
30
30
30
30
30
30
20
E0
ENDCHAR
STARTCHAR 0135
ENCODING 309
SWIDTH 250 0
DWIDTH 3 0
BBX 4 13 -1 -3
BITMAP
20
50
00
00
20
20
20
20
20
20
20
20
C0
ENDCHAR
STARTCHAR 0136
ENCODING 310
SWIDTH 666 0
DWIDTH 8 0
BBX 6 12 1 -3
BITMAP
8C
88
90
A0
E0
B0
90
88
84
00
20
20
ENDCHAR
STARTCHAR 0137
ENCODING 311
SWIDTH 583 0
DWIDTH 7 0
BBX 5 13 1 -3
BITMAP
80
80
80
80
98
B0
E0
A0
90
98
00
20
40
ENDCHAR
STARTCHAR 0138
ENCODING 312
SWIDTH 583 0
DWIDTH 7 0
BBX 5 6 1 0
BITMAP
98
B0
E0
A0
90
98
ENDCHAR
STARTCHAR 0139
ENCODING 313
SWIDTH 500 0
DWIDTH 6 0
BBX 5 12 1 0
BITMAP
40
80
00
80
80
80
80
80
80
80
80
F8
ENDCHAR
STARTCHAR 013A
ENCODING 314
SWIDTH 250 0
DWIDTH 3 0
BBX 2 12 1 0
BITMAP
40
80
80
80
80
80
80
80
80
80
80
80
ENDCHAR
STARTCHAR 013C
ENCODING 316
SWIDTH 250 0
DWIDTH 3 0
BBX 1 13 1 -3
BITMAP
80
80
80
80
80
80
80
80
80
80
00
80
80
ENDCHAR
STARTCHAR 013D
ENCODING 317
SWIDTH 500 0
DWIDTH 6 0
BBX 5 9 1 0
BITMAP
98
90
80
80
80
80
80
80
F8
ENDCHAR
STARTCHAR 013E
ENCODING 318
SWIDTH 333 0
DWIDTH 4 0
BBX 3 10 1 0
BITMAP
A0
A0
80
80
80
80
80
80
80
80
ENDCHAR
STARTCHAR 013F
ENCODING 319
SWIDTH 500 0
DWIDTH 6 0
BBX 5 9 1 0
BITMAP
80
80
80
90
80
80
80
80
F8
ENDCHAR
STARTCHAR 0140
ENCODING 320
SWIDTH 416 0
DWIDTH 5 0
BBX 3 10 1 0
BITMAP
80
80
80
80
A0
80
80
80
80
80
ENDCHAR
STARTCHAR 0141
ENCODING 321
SWIDTH 500 0
DWIDTH 6 0
BBX 6 9 0 0
BITMAP
40
40
40
50
60
C0
40
40
7C
ENDCHAR
STARTCHAR 0142
ENCODING 322
SWIDTH 250 0
DWIDTH 3 0
BBX 3 10 0 0
BITMAP
40
40
40
40
60
40
C0
40
40
40
ENDCHAR
STARTCHAR 0143
ENCODING 323
SWIDTH 833 0
DWIDTH 10 0
BBX 8 12 1 0
BITMAP
08
10
00
C3
A3
A3
93
9B
8B
87
87
83
ENDCHAR
STARTCHAR 0144
ENCODING 324
SWIDTH 583 0
DWIDTH 7 0
BBX 6 9 1 0
BITMAP
10
20
00
B8
C8
8C
8C
8C
8C
ENDCHAR
STARTCHAR 0145
ENCODING 325
SWIDTH 833 0
DWIDTH 10 0
BBX 8 12 1 -3
BITMAP
C3
A3
A3
93
9B
8B
87
87
83
00
10
10
ENDCHAR
STARTCHAR 0146
ENCODING 326
SWIDTH 583 0
DWIDTH 7 0
BBX 6 9 1 -3
BITMAP
B8
C8
8C
8C
8C
8C
00
20
20
ENDCHAR
STARTCHAR 0147
ENCODING 327
SWIDTH 833 0
DWIDTH 10 0
BBX 8 12 1 0
BITMAP
28
18
00
C3
A3
A3
93
9B
8B
87
87
83
ENDCHAR
STARTCHAR 0148
ENCODING 328
SWIDTH 583 0
DWIDTH 7 0
BBX 6 9 1 0
BITMAP
50
30
00
B8
C8
8C
8C
8C
8C
ENDCHAR
STARTCHAR 0149
ENCODING 329
SWIDTH 666 0
DWIDTH 8 0
BBX 7 9 0 0
BITMAP
80
80
80
3C
22
22
22
22
22
ENDCHAR
STARTCHAR 014A
ENCODING 330
SWIDTH 833 0
DWIDTH 10 0
BBX 8 12 1 -3
BITMAP
C3
E3
A3
93
9B
8B
87
87
83
03
02
0E
ENDCHAR
STARTCHAR 014B
ENCODING 331
SWIDTH 583 0
DWIDTH 7 0
BBX 6 9 1 -3
BITMAP
B8
C8
88
8C
8C
8C
08
08
38
ENDCHAR
STARTCHAR 014C
ENCODING 332
SWIDTH 833 0
DWIDTH 10 0
BBX 8 11 1 0
BITMAP
3C
00
3C
42
81
81
81
81
81
42
3C
ENDCHAR
STARTCHAR 014D
ENCODING 333
SWIDTH 666 0
DWIDTH 8 0
BBX 6 8 1 0
BITMAP
78
00
78
8C
84
84
8C
78
ENDCHAR
STARTCHAR 014E
ENCODING 334
SWIDTH 833 0
DWIDTH 10 0
BBX 8 12 1 0
BITMAP
24
18
00
3C
42
81
81
81
81
81
42
3C
ENDCHAR
STARTCHAR 014F
ENCODING 335
SWIDTH 666 0
DWIDTH 8 0
BBX 6 9 1 0
BITMAP
48
30
00
78
8C
84
84
8C
78
ENDCHAR
STARTCHAR 0150
ENCODING 336
SWIDTH 833 0
DWIDTH 10 0
BBX 8 12 1 0
BITMAP
14
18
00
3C
42
81
81
81
81
81
42
3C
ENDCHAR
STARTCHAR 0151
ENCODING 337
SWIDTH 666 0
DWIDTH 8 0
BBX 6 9 1 0
BITMAP
28
50
00
78
8C
84
84
8C
78
ENDCHAR
STARTCHAR 0152
ENCODING 338
SWIDTH 1000 0
DWIDTH 12 0
BBX 10 9 1 0
BITMAP
3FC0
4200
8200
8200
83C0
8200
8200
4200
3FC0
ENDCHAR
STARTCHAR 0153
ENCODING 339
SWIDTH 1000 0
DWIDTH 12 0
BBX 11 6 1 0
BITMAP
7BC0
8C40
87E0
8400
8A40
7380
ENDCHAR
STARTCHAR 0154
ENCODING 340
SWIDTH 666 0
DWIDTH 8 0
BBX 6 12 1 0
BITMAP
10
20
00
F8
8C
84
88
F0
98
88
84
84
ENDCHAR
STARTCHAR 0155
ENCODING 341
SWIDTH 416 0
DWIDTH 5 0
BBX 4 9 1 0
BITMAP
20
40
00
B0
C0
80
80
80
80
ENDCHAR
STARTCHAR 0156
ENCODING 342
SWIDTH 666 0
DWIDTH 8 0
BBX 6 12 1 -3
BITMAP
F8
8C
84
88
F0
98
88
84
84
00
10
20
ENDCHAR
STARTCHAR 0157
ENCODING 343
SWIDTH 416 0
DWIDTH 5 0
BBX 4 9 1 -3
BITMAP
B0
C0
80
80
80
80
00
80
80
ENDCHAR
STARTCHAR 0158
ENCODING 344
SWIDTH 666 0
DWIDTH 8 0
BBX 6 12 1 0
BITMAP
50
30
00
F8
8C
84
88
F0
98
88
84
84
ENDCHAR
STARTCHAR 0159
ENCODING 345
SWIDTH 416 0
DWIDTH 5 0
BBX 4 9 1 0
BITMAP
A0
40
00
B0
C0
80
80
80
80
ENDCHAR
STARTCHAR 015A
ENCODING 346
SWIDTH 583 0
DWIDTH 7 0
BBX 5 12 1 0
BITMAP
10
20
00
70
88
80
80
60
38
08
88
70
ENDCHAR
STARTCHAR 015B
ENCODING 347
SWIDTH 500 0
DWIDTH 6 0
BBX 4 9 1 0
BITMAP
20
40
00
F0
80
C0
30
90
E0
ENDCHAR
STARTCHAR 015C
ENCODING 348
SWIDTH 583 0
DWIDTH 7 0
BBX 5 12 1 0
BITMAP
30
50
00
70
88
80
80
60
38
08
88
70
ENDCHAR
STARTCHAR 015D
ENCODING 349
SWIDTH 500 0
DWIDTH 6 0
BBX 4 9 1 0
BITMAP
60
90
00
F0
80
C0
30
90
E0
ENDCHAR
STARTCHAR 015E
ENCODING 350
SWIDTH 583 0
DWIDTH 7 0
BBX 5 12 1 -3
BITMAP
78
88
80
C0
60
18
08
88
70
30
10
30
ENDCHAR
STARTCHAR 015F
ENCODING 351
SWIDTH 500 0
DWIDTH 6 0
BBX 4 9 1 -3
BITMAP
F0
80
C0
30
90
E0
40
60
60
ENDCHAR
STARTCHAR 0160
ENCODING 352
SWIDTH 583 0
DWIDTH 7 0
BBX 5 12 1 0
BITMAP
50
20
00
70
88
80
80
60
38
08
88
70
ENDCHAR
STARTCHAR 0161
ENCODING 353
SWIDTH 500 0
DWIDTH 6 0
BBX 4 9 1 0
BITMAP
90
60
00
F0
80
C0
30
90
E0
ENDCHAR
STARTCHAR 0162
ENCODING 354
SWIDTH 583 0
DWIDTH 7 0
BBX 7 12 0 -3
BITMAP
FE
10
10
10
10
10
10
10
10
10
18
18
ENDCHAR
STARTCHAR 0163
ENCODING 355
SWIDTH 333 0
DWIDTH 4 0
BBX 4 11 0 -3
BITMAP
60
60
F0
60
60
60
60
30
20
30
30
ENDCHAR
STARTCHAR 0164
ENCODING 356
SWIDTH 583 0
DWIDTH 7 0
BBX 7 12 0 0
BITMAP
28
10
00
FE
10
10
10
10
10
10
10
10
ENDCHAR
STARTCHAR 0165
ENCODING 357
SWIDTH 416 0
DWIDTH 5 0
BBX 5 10 0 0
BITMAP
08
08
60
60
F0
60
60
60
60
30
ENDCHAR
STARTCHAR 0166
ENCODING 358
SWIDTH 583 0
DWIDTH 7 0
BBX 7 9 0 0
BITMAP
FE
10
10
10
7C
10
10
10
10
ENDCHAR
STARTCHAR 0167
ENCODING 359
SWIDTH 333 0
DWIDTH 4 0
BBX 4 8 0 0
BITMAP
60
60
F0
60
F0
60
60
30
ENDCHAR
STARTCHAR 0168
ENCODING 360
SWIDTH 750 0
DWIDTH 9 0
BBX 7 12 1 0
BITMAP
34
58
00
82
82
82
82
82
82
82
C4
78
ENDCHAR
STARTCHAR 0169
ENCODING 361
SWIDTH 583 0
DWIDTH 7 0
BBX 5 9 1 0
BITMAP
68
90
00
88
88
88
88
88
78
ENDCHAR
STARTCHAR 016A
ENCODING 362
SWIDTH 750 0
DWIDTH 9 0
BBX 7 11 1 0
BITMAP
38
00
82
82
82
82
82
82
82
C4
78
ENDCHAR
STARTCHAR 016B
ENCODING 363
SWIDTH 583 0
DWIDTH 7 0
BBX 5 8 1 0
BITMAP
70
00
88
88
88
88
88
78
ENDCHAR
STARTCHAR 016C
ENCODING 364
SWIDTH 750 0
DWIDTH 9 0
BBX 7 12 1 0
BITMAP
48
38
00
82
82
82
82
82
82
82
C4
78
ENDCHAR
STARTCHAR 016D
ENCODING 365
SWIDTH 583 0
DWIDTH 7 0
BBX 5 9 1 0
BITMAP
50
70
00
88
88
88
88
88
78
ENDCHAR
STARTCHAR 016E
ENCODING 366
SWIDTH 750 0
DWIDTH 9 0
BBX 7 13 1 0
BITMAP
30
28
30
00
82
82
82
82
82
82
82
C4
78
ENDCHAR
STARTCHAR 016F
ENCODING 367
SWIDTH 583 0
DWIDTH 7 0
BBX 5 10 1 0
BITMAP
30
50
30
00
88
88
88
88
88
78
ENDCHAR
STARTCHAR 0170
ENCODING 368
SWIDTH 750 0
DWIDTH 9 0
BBX 7 12 1 0
BITMAP
18
28
00
82
82
82
82
82
82
82
C4
78
ENDCHAR
STARTCHAR 0171
ENCODING 369
SWIDTH 583 0
DWIDTH 7 0
BBX 5 9 1 0
BITMAP
28
50
00
88
88
88
88
88
78
ENDCHAR
STARTCHAR 0172
ENCODING 370
SWIDTH 750 0
DWIDTH 9 0
BBX 7 11 1 -2
BITMAP
82
82
82
82
82
82
82
C4
7C
10
18
ENDCHAR
STARTCHAR 0173
ENCODING 371
SWIDTH 583 0
DWIDTH 7 0
BBX 6 8 1 -2
BITMAP
88
88
88
88
88
78
08
0C
ENDCHAR
STARTCHAR 0174
ENCODING 372
SWIDTH 1000 0
DWIDTH 12 0
BBX 12 12 0 0
BITMAP
0600
0500
0000
C210
4630
4620
4520
6920
2960
2940
28C0
10C0
ENDCHAR
STARTCHAR 0175
ENCODING 373
SWIDTH 750 0
DWIDTH 9 0
BBX 9 9 0 0
BITMAP
0C00
1400
0000
8880
4C80
5480
5500
3300
2300
ENDCHAR
STARTCHAR 0176
ENCODING 374
SWIDTH 583 0
DWIDTH 7 0
BBX 7 12 0 0
BITMAP
10
28
00
C2
44
64
2C
28
18
10
10
10
ENDCHAR
STARTCHAR 0177
ENCODING 375
SWIDTH 500 0
DWIDTH 6 0
BBX 6 12 0 -3
BITMAP
30
28
00
C4
44
48
28
30
30
30
20
C0
ENDCHAR
STARTCHAR 0178
ENCODING 376
SWIDTH 583 0
DWIDTH 7 0
BBX 7 11 0 0
BITMAP
2C
00
C2
44
64
2C
28
18
10
10
10
ENDCHAR
STARTCHAR 0179
ENCODING 377
SWIDTH 583 0
DWIDTH 7 0
BBX 7 12 0 0
BITMAP
08
10
00
7E
04
0C
08
10
30
20
40
FE
ENDCHAR
STARTCHAR 017A
ENCODING 378
SWIDTH 500 0
DWIDTH 6 0
BBX 6 9 0 0
BITMAP
10
20
00
7C
08
10
20
40
FC
ENDCHAR
STARTCHAR 017B
ENCODING 379
SWIDTH 583 0
DWIDTH 7 0
BBX 7 11 0 0
BITMAP
10
00
7E
04
0C
08
10
30
20
40
FE
ENDCHAR
STARTCHAR 017C
ENCODING 380
SWIDTH 500 0
DWIDTH 6 0
BBX 6 8 0 0
BITMAP
30
00
7C
08
10
20
40
FC
ENDCHAR
STARTCHAR 017D
ENCODING 381
SWIDTH 583 0
DWIDTH 7 0
BBX 7 12 0 0
BITMAP
28
18
00
7E
04
0C
08
10
30
20
40
FE
ENDCHAR
STARTCHAR 017E
ENCODING 382
SWIDTH 500 0
DWIDTH 6 0
BBX 6 9 0 0
BITMAP
28
30
00
7C
08
10
20
40
FC
ENDCHAR
STARTCHAR 017F
ENCODING 383
SWIDTH 250 0
DWIDTH 3 0
BBX 3 10 1 0
BITMAP
60
80
80
80
80
80
80
80
80
80
ENDCHAR
STARTCHAR 0192
ENCODING 402
SWIDTH 583 0
DWIDTH 7 0
BBX 5 11 1 -2
BITMAP
18
20
20
70
20
20
20
60
40
40
C0
ENDCHAR
STARTCHAR 01CE
ENCODING 462
SWIDTH 583 0
DWIDTH 7 0
BBX 5 9 1 0
BITMAP
50
20
00
70
98
78
88
98
E8
ENDCHAR
STARTCHAR 01D0
ENCODING 464
SWIDTH 250 0
DWIDTH 3 0
BBX 3 9 0 0
BITMAP
A0
40
00
40
40
40
40
40
40
ENDCHAR
STARTCHAR 01D2
ENCODING 466
SWIDTH 666 0
DWIDTH 8 0
BBX 6 9 1 0
BITMAP
50
30
00
78
8C
84
84
8C
78
ENDCHAR
STARTCHAR 01D4
ENCODING 468
SWIDTH 583 0
DWIDTH 7 0
BBX 5 10 1 0
BITMAP
50
20
00
00
88
88
88
88
88
78
ENDCHAR
STARTCHAR 01D6
ENCODING 470
SWIDTH 583 0
DWIDTH 7 0
BBX 5 11 1 0
BITMAP
70
00
58
00
00
88
88
88
88
88
78
ENDCHAR
STARTCHAR 01D8
ENCODING 472
SWIDTH 583 0
DWIDTH 7 0
BBX 5 12 1 0
BITMAP
10
20
00
58
00
00
88
88
88
88
88
78
ENDCHAR
STARTCHAR 01DA
ENCODING 474
SWIDTH 583 0
DWIDTH 7 0
BBX 5 12 1 0
BITMAP
50
20
00
58
00
00
88
88
88
88
88
78
ENDCHAR
STARTCHAR 01DC
ENCODING 476
SWIDTH 583 0
DWIDTH 7 0
BBX 5 12 1 0
BITMAP
40
20
00
58
00
00
88
88
88
88
88
78
ENDCHAR
STARTCHAR 01F9
ENCODING 505
SWIDTH 583 0
DWIDTH 7 0
BBX 6 9 1 0
BITMAP
20
10
00
B8
C8
8C
8C
8C
8C
ENDCHAR
STARTCHAR 01FB
ENCODING 507
SWIDTH 583 0
DWIDTH 7 0
BBX 5 13 1 0
BITMAP
10
20
00
60
50
60
00
70
98
78
88
98
E8
ENDCHAR
STARTCHAR 01FC
ENCODING 508
SWIDTH 916 0
DWIDTH 11 0
BBX 11 12 0 0
BITMAP
0100
0200
0000
0FC0
0A00
1A00
1200
33C0
2200
7E00
4200
C3E0
ENDCHAR
STARTCHAR 01FD
ENCODING 509
SWIDTH 916 0
DWIDTH 11 0
BBX 9 9 1 0
BITMAP
0C00
0800
0000
7700
8880
FF80
8800
9880
E700
ENDCHAR
STARTCHAR 01FE
ENCODING 510
SWIDTH 833 0
DWIDTH 10 0
BBX 8 12 1 0
BITMAP
08
10
00
3D
42
87
89
91
A1
C1
42
BC
ENDCHAR
STARTCHAR 01FF
ENCODING 511
SWIDTH 666 0
DWIDTH 8 0
BBX 7 9 0 0
BITMAP
08
10
00
3E
46
4A
52
66
BC
ENDCHAR
STARTCHAR 0218
ENCODING 536
SWIDTH 583 0
DWIDTH 7 0
BBX 5 12 1 -3
BITMAP
70
88
80
80
60
38
08
88
70
00
40
40
ENDCHAR
STARTCHAR 0219
ENCODING 537
SWIDTH 500 0
DWIDTH 6 0
BBX 4 9 1 -3
BITMAP
F0
80
C0
30
90
E0
00
40
40
ENDCHAR
STARTCHAR 0251
ENCODING 593
SWIDTH 666 0
DWIDTH 8 0
BBX 7 6 1 0
BITMAP
74
8C
8C
8C
8C
76
ENDCHAR
STARTCHAR 0261
ENCODING 609
SWIDTH 666 0
DWIDTH 8 0
BBX 6 9 1 -3
BITMAP
7C
8C
8C
8C
8C
7C
0C
88
70
ENDCHAR
STARTCHAR 02C6
ENCODING 710
SWIDTH 416 0
DWIDTH 5 0
BBX 3 2 1 8
BITMAP
40
A0
ENDCHAR
STARTCHAR 02C7
ENCODING 711
SWIDTH 416 0
DWIDTH 5 0
BBX 3 2 1 8
BITMAP
A0
40
ENDCHAR
STARTCHAR 02C9
ENCODING 713
SWIDTH 333 0
DWIDTH 4 0
BBX 4 1 0 8
BITMAP
F0
ENDCHAR
STARTCHAR 02CA
ENCODING 714
SWIDTH 333 0
DWIDTH 4 0
BBX 2 2 1 8
BITMAP
40
80
ENDCHAR
STARTCHAR 02CB
ENCODING 715
SWIDTH 333 0
DWIDTH 4 0
BBX 2 2 1 8
BITMAP
80
40
ENDCHAR
STARTCHAR 02D8
ENCODING 728
SWIDTH 333 0
DWIDTH 4 0
BBX 4 2 0 8
BITMAP
90
60
ENDCHAR
STARTCHAR 02D9
ENCODING 729
SWIDTH 250 0
DWIDTH 3 0
BBX 1 1 1 8
BITMAP
80
ENDCHAR
STARTCHAR 02DA
ENCODING 730
SWIDTH 333 0
DWIDTH 4 0
BBX 3 3 0 7
BITMAP
60
A0
60
ENDCHAR
STARTCHAR 02DB
ENCODING 731
SWIDTH 250 0
DWIDTH 3 0
BBX 2 3 0 -3
BITMAP
40
80
40
ENDCHAR
STARTCHAR 02DC
ENCODING 732
SWIDTH 333 0
DWIDTH 4 0
BBX 4 2 0 8
BITMAP
50
B0
ENDCHAR
STARTCHAR 02DD
ENCODING 733
SWIDTH 333 0
DWIDTH 4 0
BBX 4 2 0 8
BITMAP
50
A0
ENDCHAR
STARTCHAR 037E
ENCODING 894
SWIDTH 250 0
DWIDTH 3 0
BBX 2 8 0 -2
BITMAP
40
40
00
00
00
40
40
80
ENDCHAR
STARTCHAR 0384
ENCODING 900
SWIDTH 333 0
DWIDTH 4 0
BBX 2 2 1 8
BITMAP
40
80
ENDCHAR
STARTCHAR 0385
ENCODING 901
SWIDTH 333 0
DWIDTH 4 0
BBX 4 2 0 8
BITMAP
20
D0
ENDCHAR
STARTCHAR 0386
ENCODING 902
SWIDTH 666 0
DWIDTH 8 0
BBX 8 9 0 0
BITMAP
58
98
14
24
26
62
7E
43
C1
ENDCHAR
STARTCHAR 0387
ENCODING 903
SWIDTH 250 0
DWIDTH 3 0
BBX 1 2 1 3
BITMAP
80
80
ENDCHAR
STARTCHAR 0388
ENCODING 904
SWIDTH 666 0
DWIDTH 8 0
BBX 7 9 0 0
BITMAP
BE
A0
20
20
3E
20
20
20
3E
ENDCHAR
STARTCHAR 0389
ENCODING 905
SWIDTH 833 0
DWIDTH 10 0
BBX 9 9 0 0
BITMAP
A080
A080
2080
2080
3F80
2080
2080
2080
2080
ENDCHAR
STARTCHAR 038A
ENCODING 906
SWIDTH 416 0
DWIDTH 5 0
BBX 5 9 0 0
BITMAP
B8
90
10
10
10
10
10
10
38
ENDCHAR
STARTCHAR 038C
ENCODING 908
SWIDTH 916 0
DWIDTH 11 0
BBX 10 9 0 0
BITMAP
8F00
B180
20C0
6040
6040
6040
20C0
3180
1F00
ENDCHAR
STARTCHAR 038E
ENCODING 910
SWIDTH 750 0
DWIDTH 9 0
BBX 9 9 0 0
BITMAP
A080
9100
1100
0A00
0A00
0C00
0400
0400
0400
ENDCHAR
STARTCHAR 038F
ENCODING 911
SWIDTH 916 0
DWIDTH 11 0
BBX 10 9 0 0
BITMAP
9F00
B080
20C0
6040
6040
2040
2080
1100
79C0
ENDCHAR
STARTCHAR 0390
ENCODING 912
SWIDTH 333 0
DWIDTH 4 0
BBX 5 9 -1 0
BITMAP
10
E8
00
20
20
20
20
20
30
ENDCHAR
STARTCHAR 0391
ENCODING 913
SWIDTH 666 0
DWIDTH 8 0
BBX 8 9 0 0
BITMAP
18
18
14
24
26
62
7E
43
C1
ENDCHAR
STARTCHAR 0392
ENCODING 914
SWIDTH 666 0
DWIDTH 8 0
BBX 6 9 1 0
BITMAP
F8
88
88
88
F0
8C
84
8C
F8
ENDCHAR
STARTCHAR 0393
ENCODING 915
SWIDTH 500 0
DWIDTH 6 0
BBX 5 9 1 0
BITMAP
F8
80
80
80
80
80
80
80
80
ENDCHAR
STARTCHAR 0394
ENCODING 916
SWIDTH 666 0
DWIDTH 8 0
BBX 8 9 0 0
BITMAP
18
18
14
24
26
62
42
43
FF
ENDCHAR
STARTCHAR 0395
ENCODING 917
SWIDTH 583 0
DWIDTH 7 0
BBX 5 9 1 0
BITMAP
F8
80
80
80
F8
80
80
80
F8
ENDCHAR
STARTCHAR 0396
ENCODING 918
SWIDTH 583 0
DWIDTH 7 0
BBX 7 9 0 0
BITMAP
7E
04
0C
08
10
30
20
40
FE
ENDCHAR
STARTCHAR 0397
ENCODING 919
SWIDTH 750 0
DWIDTH 9 0
BBX 7 9 1 0
BITMAP
82
82
82
82
FE
82
82
82
82
ENDCHAR
STARTCHAR 0398
ENCODING 920
SWIDTH 833 0
DWIDTH 10 0
BBX 8 9 1 0
BITMAP
3C
42
81
81
BD
81
81
42
3C
ENDCHAR
STARTCHAR 0399
ENCODING 921
SWIDTH 333 0
DWIDTH 4 0
BBX 3 9 0 0
BITMAP
E0
40
40
40
40
40
40
40
E0
ENDCHAR
STARTCHAR 039A
ENCODING 922
SWIDTH 666 0
DWIDTH 8 0
BBX 6 9 1 0
BITMAP
8C
88
90
A0
E0
B0
90
88
84
ENDCHAR
STARTCHAR 039B
ENCODING 923
SWIDTH 666 0
DWIDTH 8 0
BBX 8 9 0 0
BITMAP
18
18
14
24
24
62
42
43
C1
ENDCHAR
STARTCHAR 039C
ENCODING 924
SWIDTH 1000 0
DWIDTH 12 0
BBX 10 9 1 0
BITMAP
C0C0
C1C0
A1C0
A3C0
92C0
92C0
9CC0
8CC0
88C0
ENDCHAR
STARTCHAR 039D
ENCODING 925
SWIDTH 833 0
DWIDTH 10 0
BBX 8 9 1 0
BITMAP
C3
A3
A3
93
9B
8B
87
87
83
ENDCHAR
STARTCHAR 039E
ENCODING 926
SWIDTH 583 0
DWIDTH 7 0
BBX 6 9 0 0
BITMAP
7C
00
00
00
78
00
00
00
FC
ENDCHAR
STARTCHAR 039F
ENCODING 927
SWIDTH 833 0
DWIDTH 10 0
BBX 8 9 1 0
BITMAP
3C
42
81
81
81
81
81
42
3C
ENDCHAR
STARTCHAR 03A0
ENCODING 928
SWIDTH 750 0
DWIDTH 9 0
BBX 7 9 1 0
BITMAP
FE
82
82
82
82
82
82
82
82
ENDCHAR
STARTCHAR 03A1
ENCODING 929
SWIDTH 583 0
DWIDTH 7 0
BBX 6 9 1 0
BITMAP
F8
8C
84
84
88
F0
80
80
80
ENDCHAR
STARTCHAR 03A3
ENCODING 931
SWIDTH 583 0
DWIDTH 7 0
BBX 6 9 0 0
BITMAP
7C
60
20
10
10
30
20
40
FC
ENDCHAR
STARTCHAR 03A4
ENCODING 932
SWIDTH 583 0
DWIDTH 7 0
BBX 7 9 0 0
BITMAP
FE
10
10
10
10
10
10
10
10
ENDCHAR
STARTCHAR 03A5
ENCODING 933
SWIDTH 583 0
DWIDTH 7 0
BBX 7 9 0 0
BITMAP
C2
44
64
2C
28
18
10
10
10
ENDCHAR
STARTCHAR 03A6
ENCODING 934
SWIDTH 833 0
DWIDTH 10 0
BBX 8 9 1 0
BITMAP
10
7E
D3
91
91
91
D3
7E
10
ENDCHAR
STARTCHAR 03A7
ENCODING 935
SWIDTH 666 0
DWIDTH 8 0
BBX 7 9 0 0
BITMAP
42
66
24
18
18
38
24
66
C2
ENDCHAR
STARTCHAR 03A8
ENCODING 936
SWIDTH 833 0
DWIDTH 10 0
BBX 8 9 1 0
BITMAP
89
89
89
89
89
CB
7E
08
08
ENDCHAR
STARTCHAR 03A9
ENCODING 937
SWIDTH 833 0
DWIDTH 10 0
BBX 8 9 1 0
BITMAP
3C
C2
81
81
81
81
C3
46
E7
ENDCHAR
STARTCHAR 03AA
ENCODING 938
SWIDTH 333 0
DWIDTH 4 0
BBX 4 11 0 0
BITMAP
B0
00
E0
40
40
40
40
40
40
40
E0
ENDCHAR
STARTCHAR 03AB
ENCODING 939
SWIDTH 583 0
DWIDTH 7 0
BBX 7 11 0 0
BITMAP
2C
00
C2
44
64
2C
28
18
10
10
10
ENDCHAR
STARTCHAR 03AC
ENCODING 940
SWIDTH 666 0
DWIDTH 8 0
BBX 7 9 1 0
BITMAP
10
20
00
74
8C
8C
8C
8C
76
ENDCHAR
STARTCHAR 03AD
ENCODING 941
SWIDTH 500 0
DWIDTH 6 0
BBX 4 9 1 0
BITMAP
20
40
00
F0
80
60
80
80
F0
ENDCHAR
STARTCHAR 03AE
ENCODING 942
SWIDTH 666 0
DWIDTH 8 0
BBX 6 12 1 -3
BITMAP
10
20
00
B8
C8
8C
8C
8C
8C
0C
0C
0C
ENDCHAR
STARTCHAR 03AF
ENCODING 943
SWIDTH 333 0
DWIDTH 4 0
BBX 2 9 1 0
BITMAP
80
80
00
80
80
80
80
80
C0
ENDCHAR
STARTCHAR 03B0
ENCODING 944
SWIDTH 583 0
DWIDTH 7 0
BBX 7 9 0 0
BITMAP
10
74
00
C4
44
46
46
64
3C
ENDCHAR
STARTCHAR 03B1
ENCODING 945
SWIDTH 666 0
DWIDTH 8 0
BBX 7 6 1 0
BITMAP
74
8C
8C
8C
8C
76
ENDCHAR
STARTCHAR 03B2
ENCODING 946
SWIDTH 583 0
DWIDTH 7 0
BBX 6 13 1 -3
BITMAP
70
88
88
98
B0
88
8C
84
C8
B8
80
80
80
ENDCHAR
STARTCHAR 03B3
ENCODING 947
SWIDTH 583 0
DWIDTH 7 0
BBX 6 9 0 -3
BITMAP
C4
44
64
24
28
30
10
10
30
ENDCHAR
STARTCHAR 03B4
ENCODING 948
SWIDTH 666 0
DWIDTH 8 0
BBX 6 10 1 0
BITMAP
78
48
40
70
78
CC
84
84
8C
78
ENDCHAR
STARTCHAR 03B5
ENCODING 949
SWIDTH 500 0
DWIDTH 6 0
BBX 4 6 1 0
BITMAP
F0
80
60
80
80
F0
ENDCHAR
STARTCHAR 03B6
ENCODING 950
SWIDTH 500 0
DWIDTH 6 0
BBX 6 12 0 -2
BITMAP
78
08
10
20
40
40
C0
40
60
38
04
0C
ENDCHAR
STARTCHAR 03B7
ENCODING 951
SWIDTH 666 0
DWIDTH 8 0
BBX 6 9 1 -3
BITMAP
B8
C8
8C
8C
8C
8C
0C
0C
0C
ENDCHAR
STARTCHAR 03B8
ENCODING 952
SWIDTH 666 0
DWIDTH 8 0
BBX 6 10 1 0
BITMAP
78
C8
84
84
FC
84
84
8C
C8
70
ENDCHAR
STARTCHAR 03B9
ENCODING 953
SWIDTH 333 0
DWIDTH 4 0
BBX 2 6 1 0
BITMAP
80
80
80
80
80
C0
ENDCHAR
STARTCHAR 03BA
ENCODING 954
SWIDTH 583 0
DWIDTH 7 0
BBX 5 6 1 0
BITMAP
88
90
A0
F0
90
88
ENDCHAR
STARTCHAR 03BB
ENCODING 955
SWIDTH 583 0
DWIDTH 7 0
BBX 6 10 0 0
BITMAP
60
20
10
10
30
28
28
4C
44
84
ENDCHAR
STARTCHAR 03BC
ENCODING 956
SWIDTH 666 0
DWIDTH 8 0
BBX 6 9 1 -3
BITMAP
8C
8C
8C
8C
CC
FC
80
80
80
ENDCHAR
STARTCHAR 03BD
ENCODING 957
SWIDTH 583 0
DWIDTH 7 0
BBX 6 6 0 0
BITMAP
C4
44
44
2C
28
30
ENDCHAR
STARTCHAR 03BE
ENCODING 958
SWIDTH 500 0
DWIDTH 6 0
BBX 5 12 1 -2
BITMAP
F0
40
80
C0
70
80
80
80
C0
70
08
18
ENDCHAR
STARTCHAR 03BF
ENCODING 959
SWIDTH 666 0
DWIDTH 8 0
BBX 6 6 1 0
BITMAP
78
8C
84
84
8C
78
ENDCHAR
STARTCHAR 03C0
ENCODING 960
SWIDTH 666 0
DWIDTH 8 0
BBX 8 6 0 0
BITMAP
FF
A4
24
24
24
26
ENDCHAR
STARTCHAR 03C1
ENCODING 961
SWIDTH 666 0
DWIDTH 8 0
BBX 6 9 1 -3
BITMAP
78
8C
84
84
CC
B8
80
80
80
ENDCHAR
STARTCHAR 03C2
ENCODING 962
SWIDTH 500 0
DWIDTH 6 0
BBX 5 8 1 -2
BITMAP
70
C0
80
80
80
E0
18
08
ENDCHAR
STARTCHAR 03C3
ENCODING 963
SWIDTH 666 0
DWIDTH 8 0
BBX 6 6 1 0
BITMAP
7C
88
8C
8C
88
70
ENDCHAR
STARTCHAR 03C4
ENCODING 964
SWIDTH 500 0
DWIDTH 6 0
BBX 6 6 0 0
BITMAP
7C
90
10
10
10
18
ENDCHAR
STARTCHAR 03C5
ENCODING 965
SWIDTH 583 0
DWIDTH 7 0
BBX 7 6 0 0
BITMAP
C4
44
46
46
64
3C
ENDCHAR
STARTCHAR 03C6
ENCODING 966
SWIDTH 750 0
DWIDTH 9 0
BBX 8 9 1 -3
BITMAP
DC
92
93
93
92
7C
10
10
10
ENDCHAR
STARTCHAR 03C7
ENCODING 967
SWIDTH 583 0
DWIDTH 7 0
BBX 7 9 0 -3
BITMAP
C4
2C
28
10
10
28
68
44
C6
ENDCHAR
STARTCHAR 03C8
ENCODING 968
SWIDTH 833 0
DWIDTH 10 0
BBX 8 11 1 -3
BITMAP
10
10
91
91
91
91
D2
7C
10
10
10
ENDCHAR
STARTCHAR 03C9
ENCODING 969
SWIDTH 916 0
DWIDTH 11 0
BBX 9 6 1 0
BITMAP
C100
8180
8880
8880
9980
7700
ENDCHAR
STARTCHAR 03CA
ENCODING 970
SWIDTH 333 0
DWIDTH 4 0
BBX 4 8 0 0
BITMAP
B0
00
40
40
40
40
40
60
ENDCHAR
STARTCHAR 03CB
ENCODING 971
SWIDTH 583 0
DWIDTH 7 0
BBX 7 8 0 0
BITMAP
28
00
C4
44
46
46
64
3C
ENDCHAR
STARTCHAR 03CC
ENCODING 972
SWIDTH 666 0
DWIDTH 8 0
BBX 6 9 1 0
BITMAP
10
20
00
78
8C
84
84
8C
78
ENDCHAR
STARTCHAR 03CD
ENCODING 973
SWIDTH 583 0
DWIDTH 7 0
BBX 7 9 0 0
BITMAP
10
10
00
C4
44
46
46
64
3C
ENDCHAR
STARTCHAR 03CE
ENCODING 974
SWIDTH 916 0
DWIDTH 11 0
BBX 9 9 1 0
BITMAP
0800
0800
0000
C100
8180
8880
8880
9980
7700
ENDCHAR
STARTCHAR 03D0
ENCODING 976
SWIDTH 583 0
DWIDTH 7 0
BBX 6 10 1 0
BITMAP
70
88
88
98
B0
88
8C
84
C8
78
ENDCHAR
STARTCHAR 03D1
ENCODING 977
SWIDTH 666 0
DWIDTH 8 0
BBX 8 10 0 0
BITMAP
1C
34
32
12
CF
42
42
44
44
38
ENDCHAR
STARTCHAR 03D2
ENCODING 978
SWIDTH 583 0
DWIDTH 7 0
BBX 8 9 0 0
BITMAP
C3
44
64
28
28
18
10
10
10
ENDCHAR
STARTCHAR 03D3
ENCODING 979
SWIDTH 750 0
DWIDTH 9 0
BBX 10 9 0 0
BITMAP
A0C0
9100
1100
0A00
0A00
0C00
0400
0400
0400
ENDCHAR
STARTCHAR 03D4
ENCODING 980
SWIDTH 583 0
DWIDTH 7 0
BBX 8 11 0 0
BITMAP
2C
00
C3
44
64
28
28
18
10
10
10
ENDCHAR
STARTCHAR 03D5
ENCODING 981
SWIDTH 666 0
DWIDTH 8 0
BBX 7 13 1 -3
BITMAP
10
10
10
10
78
94
92
92
94
78
10
10
10
ENDCHAR
STARTCHAR 03D6
ENCODING 982
SWIDTH 916 0
DWIDTH 11 0
BBX 10 6 0 0
BITMAP
FFC0
4080
4440
4440
4CC0
3B80
ENDCHAR
STARTCHAR 03D7
ENCODING 983
SWIDTH 583 0
DWIDTH 7 0
BBX 7 8 0 -2
BITMAP
C2
64
2C
74
64
46
02
06
ENDCHAR
STARTCHAR 03D8
ENCODING 984
SWIDTH 750 0
DWIDTH 9 0
BBX 8 9 1 0
BITMAP
7C
C6
82
83
82
C6
7C
10
10
ENDCHAR
STARTCHAR 03D9
ENCODING 985
SWIDTH 666 0
DWIDTH 8 0
BBX 6 9 1 -3
BITMAP
78
8C
84
84
8C
78
20
20
20
ENDCHAR
STARTCHAR 03DA
ENCODING 986
SWIDTH 666 0
DWIDTH 8 0
BBX 6 12 1 -2
BITMAP
04
3C
60
80
80
80
80
80
C0
78
04
04
ENDCHAR
STARTCHAR 03DB
ENCODING 987
SWIDTH 500 0
DWIDTH 6 0
BBX 5 10 1 -2
BITMAP
08
30
C0
80
80
80
C0
70
08
08
ENDCHAR
STARTCHAR 03DC
ENCODING 988
SWIDTH 583 0
DWIDTH 7 0
BBX 5 9 1 0
BITMAP
F8
80
80
80
F8
88
80
80
80
ENDCHAR
STARTCHAR 03DD
ENCODING 989
SWIDTH 500 0
DWIDTH 6 0
BBX 4 9 1 -3
BITMAP
70
80
80
F0
80
80
80
80
80
ENDCHAR
STARTCHAR 03DE
ENCODING 990
SWIDTH 666 0
DWIDTH 8 0
BBX 6 9 1 0
BITMAP
40
40
C0
80
FC
04
08
08
18
ENDCHAR
STARTCHAR 03DF
ENCODING 991
SWIDTH 583 0
DWIDTH 7 0
BBX 6 13 0 -3
BITMAP
C0
20
20
60
40
40
FC
04
08
08
08
08
0C
ENDCHAR
STARTCHAR 03E0
ENCODING 992
SWIDTH 666 0
DWIDTH 8 0
BBX 7 9 0 0
BITMAP
78
84
0A
12
26
0A
12
02
02
ENDCHAR
STARTCHAR 03E1
ENCODING 993
SWIDTH 583 0
DWIDTH 7 0
BBX 7 13 -1 -3
BITMAP
C0
70
18
08
0C
1C
26
0E
32
02
04
04
0C
ENDCHAR
STARTCHAR 03E2
ENCODING 994
SWIDTH 1000 0
DWIDTH 12 0
BBX 10 12 1 -3
BITMAP
88C0
88C0
88C0
88C0
88C0
88C0
88C0
CC80
7780
0080
0180
3F00
ENDCHAR
STARTCHAR 03E3
ENCODING 995
SWIDTH 916 0
DWIDTH 11 0
BBX 9 9 1 -3
BITMAP
8880
8880
8880
8880
8C80
7780
0080
0180
3F00
ENDCHAR
STARTCHAR 03E4
ENCODING 996
SWIDTH 666 0
DWIDTH 8 0
BBX 7 9 0 0
BITMAP
62
42
C2
C2
46
3A
02
02
02
ENDCHAR
STARTCHAR 03E5
ENCODING 997
SWIDTH 583 0
DWIDTH 7 0
BBX 6 9 0 -3
BITMAP
64
44
C4
C4
4C
74
04
04
04
ENDCHAR
STARTCHAR 03E6
ENCODING 998
SWIDTH 666 0
DWIDTH 8 0
BBX 8 12 0 -3
BITMAP
40
40
40
5E
62
43
41
41
41
02
06
FC
ENDCHAR
STARTCHAR 03E7
ENCODING 999
SWIDTH 583 0
DWIDTH 7 0
BBX 6 6 0 0
BITMAP
7C
4C
74
04
E4
B8
ENDCHAR
STARTCHAR 03E8
ENCODING 1000
SWIDTH 666 0
DWIDTH 8 0
BBX 8 9 0 0
BITMAP
38
26
02
06
3C
60
C3
42
3C
ENDCHAR
STARTCHAR 03E9
ENCODING 1001
SWIDTH 500 0
DWIDTH 6 0
BBX 6 6 0 0
BITMAP
70
48
78
C0
C4
78
ENDCHAR
STARTCHAR 03EA
ENCODING 1002
SWIDTH 666 0
DWIDTH 8 0
BBX 8 9 0 0
BITMAP
66
18
18
18
3C
24
66
42
FF
ENDCHAR
STARTCHAR 03EB
ENCODING 1003
SWIDTH 500 0
DWIDTH 6 0
BBX 6 6 0 0
BITMAP
68
30
30
28
48
FC
ENDCHAR
STARTCHAR 03EC
ENCODING 1004
SWIDTH 750 0
DWIDTH 9 0
BBX 7 10 1 0
BITMAP
7E
C0
80
B8
C4
82
82
82
C4
78
ENDCHAR
STARTCHAR 03ED
ENCODING 1005
SWIDTH 666 0
DWIDTH 8 0
BBX 6 10 1 0
BITMAP
78
C0
80
80
F8
8C
84
84
8C
78
ENDCHAR
STARTCHAR 03EE
ENCODING 1006
SWIDTH 583 0
DWIDTH 7 0
BBX 7 9 0 0
BITMAP
10
10
FE
90
10
10
10
10
10
ENDCHAR
STARTCHAR 03EF
ENCODING 1007
SWIDTH 416 0
DWIDTH 5 0
BBX 5 10 0 -2
BITMAP
20
20
F8
A0
20
20
20
20
20
40
ENDCHAR
STARTCHAR 03F0
ENCODING 1008
SWIDTH 583 0
DWIDTH 7 0
BBX 7 6 0 0
BITMAP
C2
64
2C
74
64
46
ENDCHAR
STARTCHAR 03F1
ENCODING 1009
SWIDTH 666 0
DWIDTH 8 0
BBX 6 9 1 -3
BITMAP
78
CC
84
84
CC
B8
80
40
3C
ENDCHAR
STARTCHAR 03F2
ENCODING 1010
SWIDTH 500 0
DWIDTH 6 0
BBX 5 6 1 0
BITMAP
78
80
80
80
88
70
ENDCHAR
STARTCHAR 03F3
ENCODING 1011
SWIDTH 250 0
DWIDTH 3 0
BBX 3 13 -1 -3
BITMAP
20
20
00
00
20
20
20
20
20
20
20
20
C0
ENDCHAR
STARTCHAR 03F4
ENCODING 1012
SWIDTH 833 0
DWIDTH 10 0
BBX 8 9 1 0
BITMAP
3C
42
81
81
FF
81
81
42
3C
ENDCHAR
STARTCHAR 03F5
ENCODING 1013
SWIDTH 500 0
DWIDTH 6 0
BBX 4 6 1 0
BITMAP
70
80
F0
80
80
70
ENDCHAR
STARTCHAR 03F6
ENCODING 1014
SWIDTH 500 0
DWIDTH 6 0
BBX 4 6 1 0
BITMAP
E0
10
F0
10
10
E0
ENDCHAR
STARTCHAR 03F7
ENCODING 1015
SWIDTH 583 0
DWIDTH 7 0
BBX 6 9 1 0
BITMAP
80
F8
8C
84
84
88
F0
80
80
ENDCHAR
STARTCHAR 03F8
ENCODING 1016
SWIDTH 666 0
DWIDTH 8 0
BBX 6 13 1 -3
BITMAP
80
80
80
80
B8
CC
84
84
CC
B8
80
80
80
ENDCHAR
STARTCHAR 03F9
ENCODING 1017
SWIDTH 666 0
DWIDTH 8 0
BBX 6 9 1 0
BITMAP
3C
44
80
80
80
80
80
C4
3C
ENDCHAR
STARTCHAR 03FA
ENCODING 1018
SWIDTH 916 0
DWIDTH 11 0
BBX 9 9 1 0
BITMAP
C180
C380
A380
A580
9580
9980
8980
8180
8180
ENDCHAR
STARTCHAR 03FB
ENCODING 1019
SWIDTH 750 0
DWIDTH 9 0
BBX 7 9 1 -3
BITMAP
C6
E6
AA
92
82
82
80
80
80
ENDCHAR
STARTCHAR 0401
ENCODING 1025
SWIDTH 583 0
DWIDTH 7 0
BBX 5 11 1 0
BITMAP
50
00
F8
80
80
80
F8
80
80
80
F8
ENDCHAR
STARTCHAR 0402
ENCODING 1026
SWIDTH 750 0
DWIDTH 9 0
BBX 8 9 0 0
BITMAP
FE
10
10
10
1E
11
11
11
17
ENDCHAR
STARTCHAR 0403
ENCODING 1027
SWIDTH 500 0
DWIDTH 6 0
BBX 5 12 1 0
BITMAP
10
20
00
F8
80
80
80
80
80
80
80
80
ENDCHAR
STARTCHAR 0404
ENCODING 1028
SWIDTH 666 0
DWIDTH 8 0
BBX 6 9 1 0
BITMAP
3C
44
80
80
F8
80
80
C4
3C
ENDCHAR
STARTCHAR 0405
ENCODING 1029
SWIDTH 583 0
DWIDTH 7 0
BBX 5 9 1 0
BITMAP
70
88
80
80
60
38
08
88
70
ENDCHAR
STARTCHAR 0406
ENCODING 1030
SWIDTH 333 0
DWIDTH 4 0
BBX 3 9 0 0
BITMAP
E0
40
40
40
40
40
40
40
E0
ENDCHAR
STARTCHAR 0407
ENCODING 1031
SWIDTH 333 0
DWIDTH 4 0
BBX 4 11 0 0
BITMAP
B0
00
E0
40
40
40
40
40
40
40
E0
ENDCHAR
STARTCHAR 0408
ENCODING 1032
SWIDTH 416 0
DWIDTH 5 0
BBX 4 9 0 0
BITMAP
30
30
30
30
30
30
30
20
E0
ENDCHAR
STARTCHAR 0409
ENCODING 1033
SWIDTH 1083 0
DWIDTH 13 0
BBX 12 9 0 0
BITMAP
1F00
1300
1300
1300
33E0
2310
2310
2310
C3E0
ENDCHAR
STARTCHAR 040A
ENCODING 1034
SWIDTH 1083 0
DWIDTH 13 0
BBX 11 9 1 0
BITMAP
8600
8600
8600
8600
FFC0
8620
8620
8620
87C0
ENDCHAR
STARTCHAR 040B
ENCODING 1035
SWIDTH 750 0
DWIDTH 9 0
BBX 9 9 0 0
BITMAP
FE00
1000
1000
1000
1F00
1180
1080
1080
1080
ENDCHAR
STARTCHAR 040C
ENCODING 1036
SWIDTH 666 0
DWIDTH 8 0
BBX 6 12 1 0
BITMAP
10
10
00
8C
88
90
A0
E0
B0
90
88
84
ENDCHAR
STARTCHAR 040E
ENCODING 1038
SWIDTH 583 0
DWIDTH 7 0
BBX 6 12 1 0
BITMAP
48
30
00
84
84
48
48
30
30
30
20
C0
ENDCHAR
STARTCHAR 040F
ENCODING 1039
SWIDTH 750 0
DWIDTH 9 0
BBX 7 11 1 -2
BITMAP
82
82
82
82
82
82
82
82
FE
10
10
ENDCHAR
STARTCHAR 0410
ENCODING 1040
SWIDTH 666 0
DWIDTH 8 0
BBX 8 9 0 0
BITMAP
18
18
14
24
26
62
7E
43
C1
ENDCHAR
STARTCHAR 0411
ENCODING 1041
SWIDTH 666 0
DWIDTH 8 0
BBX 6 9 1 0
BITMAP
F8
80
80
80
F8
8C
84
8C
F8
ENDCHAR
STARTCHAR 0412
ENCODING 1042
SWIDTH 666 0
DWIDTH 8 0
BBX 6 9 1 0
BITMAP
F8
88
88
88
F0
8C
84
8C
F8
ENDCHAR
STARTCHAR 0413
ENCODING 1043
SWIDTH 500 0
DWIDTH 6 0
BBX 5 9 1 0
BITMAP
F8
80
80
80
80
80
80
80
80
ENDCHAR
STARTCHAR 0414
ENCODING 1044
SWIDTH 750 0
DWIDTH 9 0
BBX 9 11 0 -2
BITMAP
1E00
1200
1200
1200
2200
2200
2200
4200
FF80
8080
8080
ENDCHAR
STARTCHAR 0415
ENCODING 1045
SWIDTH 583 0
DWIDTH 7 0
BBX 5 9 1 0
BITMAP
F8
80
80
80
F8
80
80
80
F8
ENDCHAR
STARTCHAR 0416
ENCODING 1046
SWIDTH 916 0
DWIDTH 11 0
BBX 11 9 0 0
BITMAP
4460
6440
3480
1D00
0F00
1500
3480
6440
C420
ENDCHAR
STARTCHAR 0417
ENCODING 1047
SWIDTH 583 0
DWIDTH 7 0
BBX 5 9 1 0
BITMAP
70
98
08
18
70
08
08
88
F0
ENDCHAR
STARTCHAR 0418
ENCODING 1048
SWIDTH 833 0
DWIDTH 10 0
BBX 8 9 1 0
BITMAP
83
87
87
8B
9B
93
A3
E3
C3
ENDCHAR
STARTCHAR 0419
ENCODING 1049
SWIDTH 833 0
DWIDTH 10 0
BBX 8 12 1 0
BITMAP
24
18
00
83
87
87
8B
9B
93
A3
E3
C3
ENDCHAR
STARTCHAR 041A
ENCODING 1050
SWIDTH 666 0
DWIDTH 8 0
BBX 6 9 1 0
BITMAP
8C
88
90
A0
E0
B0
90
88
84
ENDCHAR
STARTCHAR 041B
ENCODING 1051
SWIDTH 750 0
DWIDTH 9 0
BBX 8 9 0 0
BITMAP
1F
13
13
13
33
23
23
23
C3
ENDCHAR
STARTCHAR 041C
ENCODING 1052
SWIDTH 1000 0
DWIDTH 12 0
BBX 10 9 1 0
BITMAP
C0C0
C1C0
A1C0
A3C0
92C0
92C0
9CC0
8CC0
88C0
ENDCHAR
STARTCHAR 041D
ENCODING 1053
SWIDTH 750 0
DWIDTH 9 0
BBX 7 9 1 0
BITMAP
82
82
82
82
FE
82
82
82
82
ENDCHAR
STARTCHAR 041E
ENCODING 1054
SWIDTH 833 0
DWIDTH 10 0
BBX 8 9 1 0
BITMAP
3C
42
81
81
81
81
81
42
3C
ENDCHAR
STARTCHAR 041F
ENCODING 1055
SWIDTH 750 0
DWIDTH 9 0
BBX 7 9 1 0
BITMAP
FE
82
82
82
82
82
82
82
82
ENDCHAR
STARTCHAR 0420
ENCODING 1056
SWIDTH 583 0
DWIDTH 7 0
BBX 6 9 1 0
BITMAP
F8
8C
84
84
88
F0
80
80
80
ENDCHAR
STARTCHAR 0421
ENCODING 1057
SWIDTH 666 0
DWIDTH 8 0
BBX 6 9 1 0
BITMAP
3C
44
80
80
80
80
80
C4
3C
ENDCHAR
STARTCHAR 0422
ENCODING 1058
SWIDTH 583 0
DWIDTH 7 0
BBX 7 9 0 0
BITMAP
FE
10
10
10
10
10
10
10
10
ENDCHAR
STARTCHAR 0423
ENCODING 1059
SWIDTH 583 0
DWIDTH 7 0
BBX 6 9 1 0
BITMAP
84
84
48
48
30
30
30
20
C0
ENDCHAR
STARTCHAR 0424
ENCODING 1060
SWIDTH 833 0
DWIDTH 10 0
BBX 8 9 1 0
BITMAP
10
7C
D3
91
91
91
D2
7C
10
ENDCHAR
STARTCHAR 0425
ENCODING 1061
SWIDTH 666 0
DWIDTH 8 0
BBX 7 9 0 0
BITMAP
42
66
24
18
18
38
24
66
C2
ENDCHAR
STARTCHAR 0426
ENCODING 1062
SWIDTH 833 0
DWIDTH 10 0
BBX 8 11 1 -2
BITMAP
82
82
82
82
82
82
82
82
FF
01
01
ENDCHAR
STARTCHAR 0427
ENCODING 1063
SWIDTH 750 0
DWIDTH 9 0
BBX 6 9 1 0
BITMAP
84
84
84
84
8C
74
04
04
04
ENDCHAR
STARTCHAR 0428
ENCODING 1064
SWIDTH 1000 0
DWIDTH 12 0
BBX 10 9 1 0
BITMAP
8440
8440
8440
8440
8440
8440
8440
8440
FFC0
ENDCHAR
STARTCHAR 0429
ENCODING 1065
SWIDTH 1083 0
DWIDTH 13 0
BBX 11 11 1 -2
BITMAP
8440
8440
8440
8440
8440
8440
8440
8440
FFE0
0020
0020
ENDCHAR
STARTCHAR 042A
ENCODING 1066
SWIDTH 750 0
DWIDTH 9 0
BBX 9 9 0 0
BITMAP
F000
1000
1000
1000
1F00
1100
1180
1100
1F00
ENDCHAR
STARTCHAR 042B
ENCODING 1067
SWIDTH 833 0
DWIDTH 10 0
BBX 8 9 1 0
BITMAP
81
81
81
81
F9
8D
85
8D
F9
ENDCHAR
STARTCHAR 042C
ENCODING 1068
SWIDTH 666 0
DWIDTH 8 0
BBX 6 9 1 0
BITMAP
80
80
80
80
F8
8C
84
8C
F8
ENDCHAR
STARTCHAR 042D
ENCODING 1069
SWIDTH 666 0
DWIDTH 8 0
BBX 6 9 1 0
BITMAP
F0
88
04
04
7C
04
04
88
F0
ENDCHAR
STARTCHAR 042E
ENCODING 1070
SWIDTH 1083 0
DWIDTH 13 0
BBX 12 9 1 0
BITMAP
83C0
8C60
8820
8830
F830
9830
8820
8C60
87C0
ENDCHAR
STARTCHAR 042F
ENCODING 1071
SWIDTH 666 0
DWIDTH 8 0
BBX 6 9 1 0
BITMAP
7C
8C
8C
CC
7C
4C
CC
8C
8C
ENDCHAR
STARTCHAR 0430
ENCODING 1072
SWIDTH 583 0
DWIDTH 7 0
BBX 5 6 1 0
BITMAP
70
98
78
88
98
E8
ENDCHAR
STARTCHAR 0431
ENCODING 1073
SWIDTH 666 0
DWIDTH 8 0
BBX 6 10 1 0
BITMAP
18
60
80
B8
CC
84
84
84
C8
78
ENDCHAR
STARTCHAR 0432
ENCODING 1074
SWIDTH 583 0
DWIDTH 7 0
BBX 5 6 1 0
BITMAP
F8
88
F0
88
88
F8
ENDCHAR
STARTCHAR 0433
ENCODING 1075
SWIDTH 416 0
DWIDTH 5 0
BBX 4 6 1 0
BITMAP
F0
80
80
80
80
80
ENDCHAR
STARTCHAR 0434
ENCODING 1076
SWIDTH 583 0
DWIDTH 7 0
BBX 7 8 0 -2
BITMAP
3C
24
24
24
44
FE
82
82
ENDCHAR
STARTCHAR 0435
ENCODING 1077
SWIDTH 583 0
DWIDTH 7 0
BBX 5 6 1 0
BITMAP
70
88
F8
80
88
70
ENDCHAR
STARTCHAR 0436
ENCODING 1078
SWIDTH 833 0
DWIDTH 10 0
BBX 8 6 1 0
BITMAP
91
52
34
3C
52
91
ENDCHAR
STARTCHAR 0437
ENCODING 1079
SWIDTH 500 0
DWIDTH 6 0
BBX 5 6 0 0
BITMAP
78
08
38
08
08
F8
ENDCHAR
STARTCHAR 0438
ENCODING 1080
SWIDTH 666 0
DWIDTH 8 0
BBX 6 6 1 0
BITMAP
8C
94
94
A4
C4
C4
ENDCHAR
STARTCHAR 0439
ENCODING 1081
SWIDTH 666 0
DWIDTH 8 0
BBX 6 9 1 0
BITMAP
48
30
00
8C
94
94
A4
C4
C4
ENDCHAR
STARTCHAR 043A
ENCODING 1082
SWIDTH 583 0
DWIDTH 7 0
BBX 5 6 1 0
BITMAP
98
B0
E0
A0
90
98
ENDCHAR
STARTCHAR 043B
ENCODING 1083
SWIDTH 583 0
DWIDTH 7 0
BBX 6 6 0 0
BITMAP
3C
24
24
24
64
C4
ENDCHAR
STARTCHAR 043C
ENCODING 1084
SWIDTH 750 0
DWIDTH 9 0
BBX 7 6 1 0
BITMAP
C6
C6
A6
AA
AA
92
ENDCHAR
STARTCHAR 043D
ENCODING 1085
SWIDTH 666 0
DWIDTH 8 0
BBX 6 6 1 0
BITMAP
8C
8C
FC
8C
8C
8C
ENDCHAR
STARTCHAR 043E
ENCODING 1086
SWIDTH 666 0
DWIDTH 8 0
BBX 6 6 1 0
BITMAP
78
8C
84
84
8C
78
ENDCHAR
STARTCHAR 043F
ENCODING 1087
SWIDTH 666 0
DWIDTH 8 0
BBX 6 6 1 0
BITMAP
FC
8C
8C
8C
8C
8C
ENDCHAR
STARTCHAR 0440
ENCODING 1088
SWIDTH 666 0
DWIDTH 8 0
BBX 6 9 1 -3
BITMAP
B8
CC
84
84
CC
B8
80
80
80
ENDCHAR
STARTCHAR 0441
ENCODING 1089
SWIDTH 500 0
DWIDTH 6 0
BBX 5 6 1 0
BITMAP
78
80
80
80
88
70
ENDCHAR
STARTCHAR 0442
ENCODING 1090
SWIDTH 416 0
DWIDTH 5 0
BBX 5 6 0 0
BITMAP
F8
20
20
20
20
20
ENDCHAR
STARTCHAR 0443
ENCODING 1091
SWIDTH 500 0
DWIDTH 6 0
BBX 6 9 0 -3
BITMAP
C4
44
48
28
30
30
30
20
C0
ENDCHAR
STARTCHAR 0444
ENCODING 1092
SWIDTH 750 0
DWIDTH 9 0
BBX 7 12 1 -3
BITMAP
10
10
10
7C
92
92
92
92
7C
10
10
10
ENDCHAR
STARTCHAR 0445
ENCODING 1093
SWIDTH 500 0
DWIDTH 6 0
BBX 5 6 1 0
BITMAP
98
D0
60
60
90
98
ENDCHAR
STARTCHAR 0446
ENCODING 1094
SWIDTH 666 0
DWIDTH 8 0
BBX 6 8 1 -2
BITMAP
8C
8C
8C
8C
8C
FC
04
04
ENDCHAR
STARTCHAR 0447
ENCODING 1095
SWIDTH 583 0
DWIDTH 7 0
BBX 5 6 1 0
BITMAP
88
88
88
F8
08
08
ENDCHAR
STARTCHAR 0448
ENCODING 1096
SWIDTH 833 0
DWIDTH 10 0
BBX 8 6 1 0
BITMAP
89
89
89
89
89
FF
ENDCHAR
STARTCHAR 0449
ENCODING 1097
SWIDTH 916 0
DWIDTH 11 0
BBX 9 8 1 -2
BITMAP
8900
8900
8900
8900
8900
FF80
0080
0080
ENDCHAR
STARTCHAR 044A
ENCODING 1098
SWIDTH 666 0
DWIDTH 8 0
BBX 7 6 0 0
BITMAP
E0
20
3E
22
22
3E
ENDCHAR
STARTCHAR 044B
ENCODING 1099
SWIDTH 750 0
DWIDTH 9 0
BBX 7 6 1 0
BITMAP
82
82
F2
8A
8A
F2
ENDCHAR
STARTCHAR 044C
ENCODING 1100
SWIDTH 583 0
DWIDTH 7 0
BBX 5 6 1 0
BITMAP
80
80
F0
88
88
F0
ENDCHAR
STARTCHAR 044D
ENCODING 1101
SWIDTH 500 0
DWIDTH 6 0
BBX 4 6 1 0
BITMAP
E0
10
70
10
10
E0
ENDCHAR
STARTCHAR 044E
ENCODING 1102
SWIDTH 916 0
DWIDTH 11 0
BBX 9 6 1 0
BITMAP
8F00
9980
F080
9080
9980
8F00
ENDCHAR
STARTCHAR 044F
ENCODING 1103
SWIDTH 583 0
DWIDTH 7 0
BBX 5 6 1 0
BITMAP
F8
98
98
78
D8
98
ENDCHAR
STARTCHAR 0451
ENCODING 1105
SWIDTH 583 0
DWIDTH 7 0
BBX 5 8 1 0
BITMAP
58
00
70
88
F8
80
88
70
ENDCHAR
STARTCHAR 0452
ENCODING 1106
SWIDTH 666 0
DWIDTH 8 0
BBX 7 13 0 -3
BITMAP
40
F0
40
40
5C
64
46
42
42
46
06
04
18
ENDCHAR
STARTCHAR 0453
ENCODING 1107
SWIDTH 416 0
DWIDTH 5 0
BBX 4 9 1 0
BITMAP
20
40
00
F0
80
80
80
80
80
ENDCHAR
STARTCHAR 0454
ENCODING 1108
SWIDTH 500 0
DWIDTH 6 0
BBX 5 6 1 0
BITMAP
70
80
E0
80
80
78
ENDCHAR
STARTCHAR 0455
ENCODING 1109
SWIDTH 500 0
DWIDTH 6 0
BBX 4 6 1 0
BITMAP
F0
80
C0
30
90
E0
ENDCHAR
STARTCHAR 0456
ENCODING 1110
SWIDTH 250 0
DWIDTH 3 0
BBX 1 10 1 0
BITMAP
80
80
00
00
80
80
80
80
80
80
ENDCHAR
STARTCHAR 0457
ENCODING 1111
SWIDTH 250 0
DWIDTH 3 0
BBX 4 8 0 0
BITMAP
B0
00
40
40
40
40
40
40
ENDCHAR
STARTCHAR 0458
ENCODING 1112
SWIDTH 250 0
DWIDTH 3 0
BBX 3 13 -1 -3
BITMAP
20
20
00
00
20
20
20
20
20
20
20
20
C0
ENDCHAR
STARTCHAR 0459
ENCODING 1113
SWIDTH 833 0
DWIDTH 10 0
BBX 10 6 0 0
BITMAP
3C00
2400
2780
2440
6440
C780
ENDCHAR
STARTCHAR 045A
ENCODING 1114
SWIDTH 916 0
DWIDTH 11 0
BBX 9 6 1 0
BITMAP
8800
8800
FF00
8880
8880
8F00
ENDCHAR
STARTCHAR 045B
ENCODING 1115
SWIDTH 583 0
DWIDTH 7 0
BBX 7 10 0 0
BITMAP
40
40
F0
40
5C
64
46
46
46
46
ENDCHAR
STARTCHAR 045C
ENCODING 1116
SWIDTH 583 0
DWIDTH 7 0
BBX 5 9 1 0
BITMAP
10
20
00
98
B0
E0
A0
90
98
ENDCHAR
STARTCHAR 045E
ENCODING 1118
SWIDTH 500 0
DWIDTH 6 0
BBX 6 12 0 -3
BITMAP
48
30
00
C4
44
48
28
30
30
30
20
C0
ENDCHAR
STARTCHAR 045F
ENCODING 1119
SWIDTH 666 0
DWIDTH 8 0
BBX 6 8 1 -2
BITMAP
8C
8C
8C
8C
8C
FC
20
20
ENDCHAR
STARTCHAR 0490
ENCODING 1168
SWIDTH 500 0
DWIDTH 6 0
BBX 5 11 1 0
BITMAP
08
08
F8
80
80
80
80
80
80
80
80
ENDCHAR
STARTCHAR 0491
ENCODING 1169
SWIDTH 416 0
DWIDTH 5 0
BBX 4 8 1 0
BITMAP
10
10
F0
80
80
80
80
80
ENDCHAR
STARTCHAR 1E3F
ENCODING 7743
SWIDTH 1000 0
DWIDTH 12 0
BBX 10 9 1 0
BITMAP
0400
0400
0000
BB80
CCC0
8CC0
8CC0
8CC0
8CC0
ENDCHAR
STARTCHAR 1E80
ENCODING 7808
SWIDTH 1000 0
DWIDTH 12 0
BBX 12 12 0 0
BITMAP
0400
0200
0000
C210
4630
4620
4520
6920
2960
2940
28C0
10C0
ENDCHAR
STARTCHAR 1E81
ENCODING 7809
SWIDTH 750 0
DWIDTH 9 0
BBX 9 9 0 0
BITMAP
0800
0800
0000
8880
4C80
5480
5500
3300
2300
ENDCHAR
STARTCHAR 1E82
ENCODING 7810
SWIDTH 1000 0
DWIDTH 12 0
BBX 12 12 0 0
BITMAP
0200
0400
0000
C210
4630
4620
4520
6920
2960
2940
28C0
10C0
ENDCHAR
STARTCHAR 1E83
ENCODING 7811
SWIDTH 750 0
DWIDTH 9 0
BBX 9 9 0 0
BITMAP
0400
0800
0000
8880
4C80
5480
5500
3300
2300
ENDCHAR
STARTCHAR 1E84
ENCODING 7812
SWIDTH 1000 0
DWIDTH 12 0
BBX 12 11 0 0
BITMAP
0D00
0000
C210
4630
4620
4520
6920
2960
2940
28C0
10C0
ENDCHAR
STARTCHAR 1E85
ENCODING 7813
SWIDTH 750 0
DWIDTH 9 0
BBX 9 8 0 0
BITMAP
1600
0000
8880
4C80
5480
5500
3300
2300
ENDCHAR
STARTCHAR 1EF2
ENCODING 7922
SWIDTH 583 0
DWIDTH 7 0
BBX 7 12 0 0
BITMAP
30
10
00
C2
44
64
2C
28
18
10
10
10
ENDCHAR
STARTCHAR 1EF3
ENCODING 7923
SWIDTH 500 0
DWIDTH 6 0
BBX 6 12 0 -3
BITMAP
20
10
00
C4
44
48
28
30
30
30
20
C0
ENDCHAR
STARTCHAR 200A
ENCODING 8202
SWIDTH 166 0
DWIDTH 2 0
BBX 0 0 0 0
BITMAP
ENDCHAR
STARTCHAR 2010
ENCODING 8208
SWIDTH 416 0
DWIDTH 5 0
BBX 3 1 1 3
BITMAP
E0
ENDCHAR
STARTCHAR 2013
ENCODING 8211
SWIDTH 500 0
DWIDTH 6 0
BBX 6 1 0 3
BITMAP
FC
ENDCHAR
STARTCHAR 2014
ENCODING 8212
SWIDTH 1083 0
DWIDTH 13 0
BBX 13 1 0 3
BITMAP
FFF8
ENDCHAR
STARTCHAR 2015
ENCODING 8213
SWIDTH 416 0
DWIDTH 5 0
BBX 5 1 0 9
BITMAP
F8
ENDCHAR
STARTCHAR 2016
ENCODING 8214
SWIDTH 583 0
DWIDTH 7 0
BBX 5 13 1 -3
BITMAP
88
88
88
88
88
88
88
88
88
88
88
88
88
ENDCHAR
STARTCHAR 2018
ENCODING 8216
SWIDTH 1000 0
DWIDTH 12 0
BBX 1 3 10 6
BITMAP
80
80
80
ENDCHAR
STARTCHAR 2019
ENCODING 8217
SWIDTH 1000 0
DWIDTH 12 0
BBX 1 3 1 6
BITMAP
80
80
80
ENDCHAR
STARTCHAR 201A
ENCODING 8218
SWIDTH 500 0
DWIDTH 6 0
BBX 1 3 1 -1
BITMAP
80
80
80
ENDCHAR
STARTCHAR 201B
ENCODING 8219
SWIDTH 250 0
DWIDTH 3 0
BBX 1 3 1 6
BITMAP
80
80
80
ENDCHAR
STARTCHAR 201C
ENCODING 8220
SWIDTH 1000 0
DWIDTH 12 0
BBX 3 3 8 6
BITMAP
A0
A0
A0
ENDCHAR
STARTCHAR 201D
ENCODING 8221
SWIDTH 1000 0
DWIDTH 12 0
BBX 3 3 1 6
BITMAP
A0
A0
A0
ENDCHAR
STARTCHAR 201E
ENCODING 8222
SWIDTH 500 0
DWIDTH 6 0
BBX 3 3 1 -1
BITMAP
A0
A0
A0
ENDCHAR
STARTCHAR 2020
ENCODING 8224
SWIDTH 416 0
DWIDTH 5 0
BBX 4 7 0 2
BITMAP
20
20
F0
20
20
20
20
ENDCHAR
STARTCHAR 2021
ENCODING 8225
SWIDTH 416 0
DWIDTH 5 0
BBX 4 7 0 2
BITMAP
20
20
F0
20
F0
20
20
ENDCHAR
STARTCHAR 2022
ENCODING 8226
SWIDTH 416 0
DWIDTH 5 0
BBX 3 3 1 2
BITMAP
E0
E0
E0
ENDCHAR
STARTCHAR 2024
ENCODING 8228
SWIDTH 250 0
DWIDTH 3 0
BBX 1 2 1 0
BITMAP
80
80
ENDCHAR
STARTCHAR 2025
ENCODING 8229
SWIDTH 500 0
DWIDTH 6 0
BBX 4 2 1 0
BITMAP
90
90
ENDCHAR
STARTCHAR 2026
ENCODING 8230
SWIDTH 833 0
DWIDTH 10 0
BBX 8 2 1 0
BITMAP
9B
9B
ENDCHAR
STARTCHAR 2027
ENCODING 8231
SWIDTH 250 0
DWIDTH 3 0
BBX 1 2 1 3
BITMAP
80
80
ENDCHAR
STARTCHAR 2030
ENCODING 8240
SWIDTH 1333 0
DWIDTH 16 0
BBX 14 9 1 0
BITMAP
E200
9200
9400
9800
EB9C
14A4
14A4
24A4
4318
ENDCHAR
STARTCHAR 2032
ENCODING 8242
SWIDTH 250 0
DWIDTH 3 0
BBX 1 3 1 6
BITMAP
80
80
80
ENDCHAR
STARTCHAR 2033
ENCODING 8243
SWIDTH 416 0
DWIDTH 5 0
BBX 3 3 1 6
BITMAP
A0
A0
A0
ENDCHAR
STARTCHAR 2035
ENCODING 8245
SWIDTH 250 0
DWIDTH 3 0
BBX 1 3 1 6
BITMAP
80
80
80
ENDCHAR
STARTCHAR 2039
ENCODING 8249
SWIDTH 333 0
DWIDTH 4 0
BBX 2 4 1 1
BITMAP
40
80
80
40
ENDCHAR
STARTCHAR 203A
ENCODING 8250
SWIDTH 333 0
DWIDTH 4 0
BBX 2 4 1 1
BITMAP
80
40
40
80
ENDCHAR
STARTCHAR 203B
ENCODING 8251
SWIDTH 833 0
DWIDTH 10 0
BBX 10 9 0 0
BITMAP
8C40
4C80
2100
7A80
6480
1A00
2100
4C80
8C40
ENDCHAR
STARTCHAR 203C
ENCODING 8252
SWIDTH 500 0
DWIDTH 6 0
BBX 4 9 1 0
BITMAP
90
90
90
90
90
90
00
00
D0
ENDCHAR
STARTCHAR 203E
ENCODING 8254
SWIDTH 416 0
DWIDTH 5 0
BBX 5 1 0 9
BITMAP
F8
ENDCHAR
STARTCHAR 2044
ENCODING 8260
SWIDTH 250 0
DWIDTH 3 0
BBX 6 9 -2 0
BITMAP
04
04
08
10
10
20
20
40
80
ENDCHAR
STARTCHAR 2074
ENCODING 8308
SWIDTH 416 0
DWIDTH 5 0
BBX 4 5 0 4
BITMAP
30
50
50
F0
10
ENDCHAR
STARTCHAR 2075
ENCODING 8309
SWIDTH 416 0
DWIDTH 5 0
BBX 3 5 1 4
BITMAP
E0
80
E0
20
E0
ENDCHAR
STARTCHAR 2077
ENCODING 8311
SWIDTH 416 0
DWIDTH 5 0
BBX 4 5 0 4
BITMAP
F0
10
20
20
40
ENDCHAR
STARTCHAR 2078
ENCODING 8312
SWIDTH 416 0
DWIDTH 5 0
BBX 4 5 0 4
BITMAP
70
50
60
90
70
ENDCHAR
STARTCHAR 207F
ENCODING 8319
SWIDTH 416 0
DWIDTH 5 0
BBX 4 4 1 5
BITMAP
E0
90
90
90
ENDCHAR
STARTCHAR 20A0
ENCODING 8352
SWIDTH 666 0
DWIDTH 8 0
BBX 6 9 1 0
BITMAP
70
C8
80
9C
90
7C
10
10
1C
ENDCHAR
STARTCHAR 20A1
ENCODING 8353
SWIDTH 583 0
DWIDTH 7 0
BBX 6 11 1 -1
BITMAP
18
3C
58
A8
B0
B0
D0
E0
64
B8
C0
ENDCHAR
STARTCHAR 20A2
ENCODING 8354
SWIDTH 583 0
DWIDTH 7 0
BBX 6 9 1 0
BITMAP
3C
40
80
9C
90
90
90
50
3C
ENDCHAR
STARTCHAR 20A3
ENCODING 8355
SWIDTH 500 0
DWIDTH 6 0
BBX 6 9 0 0
BITMAP
7C
40
40
40
7C
40
F0
40
40
ENDCHAR
STARTCHAR 20A4
ENCODING 8356
SWIDTH 583 0
DWIDTH 7 0
BBX 5 9 1 0
BITMAP
38
40
40
F0
40
F0
40
40
F8
ENDCHAR
STARTCHAR 20A5
ENCODING 8357
SWIDTH 916 0
DWIDTH 11 0
BBX 9 10 1 -2
BITMAP
0100
0200
BB80
CC80
8C80
8880
8880
9880
2000
2000
ENDCHAR
STARTCHAR 20A6
ENCODING 8358
SWIDTH 666 0
DWIDTH 8 0
BBX 8 9 0 0
BITMAP
62
62
52
FF
4A
FF
46
46
42
ENDCHAR
STARTCHAR 20A7
ENCODING 8359
SWIDTH 1250 0
DWIDTH 15 0
BBX 13 9 1 0
BITMAP
F000
9B00
8B00
8FB8
9B60
F330
8308
8348
81B8
ENDCHAR
STARTCHAR 20A8
ENCODING 8360
SWIDTH 916 0
DWIDTH 11 0
BBX 10 9 1 0
BITMAP
F000
8800
8800
8B80
F200
9300
9880
8840
8B80
ENDCHAR
STARTCHAR 20A9
ENCODING 8361
SWIDTH 833 0
DWIDTH 10 0
BBX 10 9 0 0
BITMAP
4880
4C80
4D00
FFC0
5500
FFC0
3500
3300
3200
ENDCHAR
STARTCHAR 20AA
ENCODING 8362
SWIDTH 583 0
DWIDTH 7 0
BBX 5 6 1 0
BITMAP
E8
98
D8
D8
C8
F8
ENDCHAR
STARTCHAR 20AB
ENCODING 8363
SWIDTH 666 0
DWIDTH 8 0
BBX 7 12 1 -2
BITMAP
0C
3E
0C
0C
7C
8C
84
84
8C
7C
00
F8
ENDCHAR
STARTCHAR 20AC
ENCODING 8364
SWIDTH 583 0
DWIDTH 7 0
BBX 5 9 1 0
BITMAP
38
60
40
F8
80
F8
40
48
38
ENDCHAR
STARTCHAR 20AD
ENCODING 8365
SWIDTH 583 0
DWIDTH 7 0
BBX 6 9 0 0
BITMAP
44
48
58
50
FC
50
58
4C
44
ENDCHAR
STARTCHAR 20AE
ENCODING 8366
SWIDTH 500 0
DWIDTH 6 0
BBX 6 9 0 0
BITMAP
FC
30
38
30
78
30
70
30
30
ENDCHAR
STARTCHAR 20AF
ENCODING 8367
SWIDTH 1250 0
DWIDTH 15 0
BBX 14 12 0 -2
BITMAP
0100
0F80
34C0
0440
0C60
0860
085C
7054
90A4
6F3C
0020
0040
ENDCHAR
STARTCHAR 20B0
ENCODING 8368
SWIDTH 500 0
DWIDTH 6 0
BBX 6 13 0 -3
BITMAP
30
30
30
30
30
10
18
68
A8
AC
0C
08
10
ENDCHAR
STARTCHAR 20B1
ENCODING 8369
SWIDTH 666 0
DWIDTH 8 0
BBX 7 9 0 0
BITMAP
78
44
FE
46
FE
44
78
40
40
ENDCHAR
STARTCHAR 2103
ENCODING 8451
SWIDTH 1000 0
DWIDTH 12 0
BBX 11 9 0 0
BITMAP
61E0
9600
9400
6C00
0800
0C00
0400
0600
03E0
ENDCHAR
STARTCHAR 2105
ENCODING 8453
SWIDTH 916 0
DWIDTH 11 0
BBX 9 9 1 0
BITMAP
7100
4200
8200
8400
6B00
1480
2880
4580
8700
ENDCHAR
STARTCHAR 2109
ENCODING 8457
SWIDTH 1000 0
DWIDTH 12 0
BBX 9 9 1 0
BITMAP
6780
A400
A400
6400
0780
0400
0400
0400
0400
ENDCHAR
STARTCHAR 2113
ENCODING 8467
SWIDTH 333 0
DWIDTH 4 0
BBX 4 9 0 0
BITMAP
30
50
50
60
60
40
C0
50
60
ENDCHAR
STARTCHAR 2116
ENCODING 8470
SWIDTH 1250 0
DWIDTH 15 0
BBX 13 9 1 0
BITMAP
C270
E2C8
A288
B2C8
9270
8A00
8AF8
8600
8600
ENDCHAR
STARTCHAR 2121
ENCODING 8481
SWIDTH 1000 0
DWIDTH 12 0
BBX 12 9 0 0
BITMAP
F800
2000
2000
2740
2440
2640
2440
2440
2770
ENDCHAR
STARTCHAR 2122
ENCODING 8482
SWIDTH 833 0
DWIDTH 10 0
BBX 9 4 0 5
BITMAP
F880
4D80
4E80
4A80
ENDCHAR
STARTCHAR 2126
ENCODING 8486
SWIDTH 833 0
DWIDTH 10 0
BBX 8 9 1 0
BITMAP
3C
C2
81
81
81
81
C3
46
E7
ENDCHAR
STARTCHAR 212E
ENCODING 8494
SWIDTH 666 0
DWIDTH 8 0
BBX 6 7 1 0
BITMAP
78
84
84
FC
80
84
78
ENDCHAR
STARTCHAR 215B
ENCODING 8539
SWIDTH 1000 0
DWIDTH 12 0
BBX 10 9 1 0
BITMAP
C100
4200
4400
4400
E980
0A40
1180
2240
23C0
ENDCHAR
STARTCHAR 215C
ENCODING 8540
SWIDTH 1000 0
DWIDTH 12 0
BBX 10 9 1 0
BITMAP
E100
2200
C400
2400
E9C0
0A40
1180
2240
23C0
ENDCHAR
STARTCHAR 215D
ENCODING 8541
SWIDTH 1000 0
DWIDTH 12 0
BBX 10 9 1 0
BITMAP
E100
8200
E400
2400
E9C0
0A40
1180
2240
23C0
ENDCHAR
STARTCHAR 215E
ENCODING 8542
SWIDTH 1000 0
DWIDTH 12 0
BBX 10 9 1 0
BITMAP
F200
2200
2400
4800
4980
1240
1180
2240
43C0
ENDCHAR
STARTCHAR 2160
ENCODING 8544
SWIDTH 1000 0
DWIDTH 12 0
BBX 4 9 4 0
BITMAP
F0
60
60
60
60
60
60
60
F0
ENDCHAR
STARTCHAR 2161
ENCODING 8545
SWIDTH 1000 0
DWIDTH 12 0
BBX 8 9 2 0
BITMAP
FF
42
42
42
42
42
42
42
FF
ENDCHAR
STARTCHAR 2162
ENCODING 8546
SWIDTH 1000 0
DWIDTH 12 0
BBX 10 9 1 0
BITMAP
FFC0
4C80
4C80
4C80
4C80
4C80
4C80
4C80
FFC0
ENDCHAR
STARTCHAR 2163
ENCODING 8547
SWIDTH 1000 0
DWIDTH 12 0
BBX 11 9 0 0
BITMAP
E820
4C20
4420
4440
4240
4240
4280
4180
E180
ENDCHAR
STARTCHAR 2164
ENCODING 8548
SWIDTH 1000 0
DWIDTH 12 0
BBX 8 9 2 0
BITMAP
81
42
42
42
24
24
34
18
18
ENDCHAR
STARTCHAR 2165
ENCODING 8549
SWIDTH 1000 0
DWIDTH 12 0
BBX 11 9 1 0
BITMAP
82E0
8640
8440
4440
4840
4840
2840
3040
30E0
ENDCHAR
STARTCHAR 2166
ENCODING 8550
SWIDTH 1000 0
DWIDTH 12 0
BBX 10 9 1 0
BITMAP
8FC0
8A40
9A40
9240
5240
5240
6240
6240
27C0
ENDCHAR
STARTCHAR 2167
ENCODING 8551
SWIDTH 1000 0
DWIDTH 12 0
BBX 12 9 0 0
BITMAP
8FF0
4AA0
4AA0
52A0
52A0
52A0
52A0
32A0
27F0
ENDCHAR
STARTCHAR 2168
ENCODING 8552
SWIDTH 1000 0
DWIDTH 12 0
BBX 10 9 1 0
BITMAP
C840
CC80
C580
C700
C300
C700
C580
C880
D840
ENDCHAR
STARTCHAR 2169
ENCODING 8553
SWIDTH 1000 0
DWIDTH 12 0
BBX 6 9 3 0
BITMAP
84
CC
48
30
30
30
48
CC
84
ENDCHAR
STARTCHAR 216A
ENCODING 8554
SWIDTH 1000 0
DWIDTH 12 0
BBX 10 9 1 0
BITMAP
85C0
4480
6880
3880
3080
3880
4880
4480
85C0
ENDCHAR
STARTCHAR 216B
ENCODING 8555
SWIDTH 1000 0
DWIDTH 12 0
BBX 10 9 1 0
BITMAP
8FC0
9240
5240
6240
2240
6240
5240
9240
8FC0
ENDCHAR
STARTCHAR 2170
ENCODING 8560
SWIDTH 1000 0
DWIDTH 12 0
BBX 2 9 5 0
BITMAP
C0
00
00
C0
C0
C0
C0
C0
C0
ENDCHAR
STARTCHAR 2171
ENCODING 8561
SWIDTH 1000 0
DWIDTH 12 0
BBX 6 9 3 0
BITMAP
CC
00
00
84
84
84
84
84
84
ENDCHAR
STARTCHAR 2172
ENCODING 8562
SWIDTH 1000 0
DWIDTH 12 0
BBX 8 9 2 0
BITMAP
99
00
00
99
99
99
99
99
99
ENDCHAR
STARTCHAR 2173
ENCODING 8563
SWIDTH 1000 0
DWIDTH 12 0
BBX 8 9 2 0
BITMAP
80
00
00
B1
91
93
8A
8A
8C
ENDCHAR
STARTCHAR 2174
ENCODING 8564
SWIDTH 1000 0
DWIDTH 12 0
BBX 6 6 3 0
BITMAP
84
CC
48
48
30
30
ENDCHAR
STARTCHAR 2175
ENCODING 8565
SWIDTH 1000 0
DWIDTH 12 0
BBX 8 9 2 0
BITMAP
01
00
00
85
89
C9
51
51
21
ENDCHAR
STARTCHAR 2176
ENCODING 8566
SWIDTH 1000 0
DWIDTH 12 0
BBX 10 9 1 0
BITMAP
06C0
0000
0000
9A40
9240
9240
7240
6240
6240
ENDCHAR
STARTCHAR 2177
ENCODING 8567
SWIDTH 1000 0
DWIDTH 12 0
BBX 11 9 0 0
BITMAP
06A0
0000
0000
8AA0
4AA0
52A0
52A0
32A0
22A0
ENDCHAR
STARTCHAR 2178
ENCODING 8568
SWIDTH 1000 0
DWIDTH 12 0
BBX 8 9 2 0
BITMAP
80
00
00
91
8A
8E
8E
8A
91
ENDCHAR
STARTCHAR 2179
ENCODING 8569
SWIDTH 1000 0
DWIDTH 12 0
BBX 6 6 3 0
BITMAP
CC
48
30
30
48
CC
ENDCHAR
STARTCHAR 2190
ENCODING 8592
SWIDTH 1000 0
DWIDTH 12 0
BBX 12 5 0 2
BITMAP
2000
2000
FFF0
2000
2000
ENDCHAR
STARTCHAR 2191
ENCODING 8593
SWIDTH 500 0
DWIDTH 6 0
BBX 4 11 1 -1
BITMAP
40
60
F0
60
60
60
60
60
60
60
60
ENDCHAR
STARTCHAR 2192
ENCODING 8594
SWIDTH 1000 0
DWIDTH 12 0
BBX 12 5 0 2
BITMAP
0080
0040
FFF0
0040
0080
ENDCHAR
STARTCHAR 2193
ENCODING 8595
SWIDTH 500 0
DWIDTH 6 0
BBX 4 11 1 -1
BITMAP
60
60
60
60
60
60
60
60
F0
60
40
ENDCHAR
STARTCHAR 2196
ENCODING 8598
SWIDTH 1000 0
DWIDTH 12 0
BBX 8 7 2 0
BITMAP
F0
60
B0
08
04
02
01
ENDCHAR
STARTCHAR 2197
ENCODING 8599
SWIDTH 1000 0
DWIDTH 12 0
BBX 8 7 2 0
BITMAP
0F
06
0A
10
20
40
80
ENDCHAR
STARTCHAR 2198
ENCODING 8600
SWIDTH 1000 0
DWIDTH 12 0
BBX 8 7 2 0
BITMAP
80
40
20
10
0A
06
0F
ENDCHAR
STARTCHAR 2199
ENCODING 8601
SWIDTH 1000 0
DWIDTH 12 0
BBX 8 7 2 0
BITMAP
01
02
04
08
90
60
F0
ENDCHAR
STARTCHAR 2202
ENCODING 8706
SWIDTH 583 0
DWIDTH 7 0
BBX 7 9 0 0
BITMAP
3C
04
06
3E
66
44
C4
4C
78
ENDCHAR
STARTCHAR 2206
ENCODING 8710
SWIDTH 666 0
DWIDTH 8 0
BBX 8 9 0 0
BITMAP
18
18
14
24
26
62
42
43
FF
ENDCHAR
STARTCHAR 2208
ENCODING 8712
SWIDTH 1000 0
DWIDTH 12 0
BBX 8 8 2 0
BITMAP
7F
80
80
FF
80
80
C0
7F
ENDCHAR
STARTCHAR 220F
ENCODING 8719
SWIDTH 833 0
DWIDTH 10 0
BBX 8 12 1 -3
BITMAP
FF
81
81
81
81
81
81
81
81
81
81
81
ENDCHAR
STARTCHAR 2211
ENCODING 8721
SWIDTH 666 0
DWIDTH 8 0
BBX 8 12 0 -3
BITMAP
7E
60
20
10
18
0C
08
18
10
20
40
FF
ENDCHAR
STARTCHAR 2212
ENCODING 8722
SWIDTH 750 0
DWIDTH 9 0
BBX 6 1 1 3
BITMAP
FC
ENDCHAR
STARTCHAR 2215
ENCODING 8725
SWIDTH 250 0
DWIDTH 3 0
BBX 6 9 -2 0
BITMAP
04
04
08
10
10
20
20
40
80
ENDCHAR
STARTCHAR 2219
ENCODING 8729
SWIDTH 250 0
DWIDTH 3 0
BBX 1 2 1 3
BITMAP
80
80
ENDCHAR
STARTCHAR 221A
ENCODING 8730
SWIDTH 666 0
DWIDTH 8 0
BBX 6 10 1 0
BITMAP
04
04
08
08
C8
48
48
30
30
10
ENDCHAR
STARTCHAR 221D
ENCODING 8733
SWIDTH 916 0
DWIDTH 11 0
BBX 8 5 1 1
BITMAP
73
8C
88
8C
73
ENDCHAR
STARTCHAR 221E
ENCODING 8734
SWIDTH 916 0
DWIDTH 11 0
BBX 9 5 1 1
BITMAP
E700
9C80
8880
9880
E700
ENDCHAR
STARTCHAR 221F
ENCODING 8735
SWIDTH 1000 0
DWIDTH 12 0
BBX 10 10 1 0
BITMAP
8000
8000
8000
8000
8000
8000
8000
8000
8000
FFC0
ENDCHAR
STARTCHAR 2220
ENCODING 8736
SWIDTH 666 0
DWIDTH 8 0
BBX 7 7 1 0
BITMAP
04
0C
18
30
60
C0
FE
ENDCHAR
STARTCHAR 2223
ENCODING 8739
SWIDTH 583 0
DWIDTH 7 0
BBX 1 11 3 -2
BITMAP
80
80
80
80
80
80
80
80
80
80
80
ENDCHAR
STARTCHAR 2225
ENCODING 8741
SWIDTH 750 0
DWIDTH 9 0
BBX 3 8 3 0
BITMAP
A0
A0
A0
A0
A0
A0
A0
A0
ENDCHAR
STARTCHAR 2227
ENCODING 8743
SWIDTH 750 0
DWIDTH 9 0
BBX 6 6 1 1
BITMAP
10
30
28
48
44
84
ENDCHAR
STARTCHAR 2228
ENCODING 8744
SWIDTH 750 0
DWIDTH 9 0
BBX 6 6 1 1
BITMAP
84
44
48
28
30
10
ENDCHAR
STARTCHAR 2229
ENCODING 8745
SWIDTH 750 0
DWIDTH 9 0
BBX 7 9 1 0
BITMAP
78
C4
84
86
82
82
82
82
82
ENDCHAR
STARTCHAR 222A
ENCODING 8746
SWIDTH 1000 0
DWIDTH 12 0
BBX 8 8 2 0
BITMAP
81
81
81
81
81
81
42
3C
ENDCHAR
STARTCHAR 222B
ENCODING 8747
SWIDTH 583 0
DWIDTH 7 0
BBX 5 13 1 -3
BITMAP
18
20
20
20
20
20
20
20
20
20
20
20
C0
ENDCHAR
STARTCHAR 222E
ENCODING 8750
SWIDTH 583 0
DWIDTH 7 0
BBX 7 13 0 -3
BITMAP
0C
10
10
38
54
94
92
94
54
38
10
10
60
ENDCHAR
STARTCHAR 2234
ENCODING 8756
SWIDTH 666 0
DWIDTH 8 0
BBX 7 6 1 1
BITMAP
10
00
00
00
00
86
ENDCHAR
STARTCHAR 2235
ENCODING 8757
SWIDTH 666 0
DWIDTH 8 0
BBX 7 6 1 1
BITMAP
86
00
00
00
00
10
ENDCHAR
STARTCHAR 2236
ENCODING 8758
SWIDTH 833 0
DWIDTH 10 0
BBX 1 6 5 2
BITMAP
80
00
00
00
00
80
ENDCHAR
STARTCHAR 2237
ENCODING 8759
SWIDTH 833 0
DWIDTH 10 0
BBX 6 6 2 0
BITMAP
84
00
00
00
00
84
ENDCHAR
STARTCHAR 223D
ENCODING 8765
SWIDTH 750 0
DWIDTH 9 0
BBX 6 2 1 3
BITMAP
9C
64
ENDCHAR
STARTCHAR 2248
ENCODING 8776
SWIDTH 750 0
DWIDTH 9 0
BBX 7 5 1 1
BITMAP
72
9C
00
72
9C
ENDCHAR
STARTCHAR 224C
ENCODING 8780
SWIDTH 583 0
DWIDTH 7 0
BBX 6 7 0 0
BITMAP
64
94
4C
00
FC
00
FC
ENDCHAR
STARTCHAR 2252
ENCODING 8786
SWIDTH 750 0
DWIDTH 9 0
BBX 6 8 1 0
BITMAP
C0
00
FC
00
00
FC
00
04
ENDCHAR
STARTCHAR 2260
ENCODING 8800
SWIDTH 750 0
DWIDTH 9 0
BBX 6 8 1 0
BITMAP
04
08
FC
10
10
FC
20
40
ENDCHAR
STARTCHAR 2261
ENCODING 8801
SWIDTH 583 0
DWIDTH 7 0
BBX 5 5 1 2
BITMAP
F8
00
F8
00
F8
ENDCHAR
STARTCHAR 2264
ENCODING 8804
SWIDTH 750 0
DWIDTH 9 0
BBX 6 7 1 0
BITMAP
04
38
40
38
04
00
FC
ENDCHAR
STARTCHAR 2265
ENCODING 8805
SWIDTH 750 0
DWIDTH 9 0
BBX 6 7 1 0
BITMAP
40
38
04
38
40
00
FC
ENDCHAR
STARTCHAR 2266
ENCODING 8806
SWIDTH 583 0
DWIDTH 7 0
BBX 6 10 0 -2
BITMAP
04
18
60
80
70
0C
00
FC
00
FC
ENDCHAR
STARTCHAR 2267
ENCODING 8807
SWIDTH 583 0
DWIDTH 7 0
BBX 6 10 0 -2
BITMAP
C0
30
18
04
38
C0
00
FC
00
FC
ENDCHAR
STARTCHAR 226E
ENCODING 8814
SWIDTH 583 0
DWIDTH 7 0
BBX 6 7 0 0
BITMAP
10
14
28
60
A0
70
2C
ENDCHAR
STARTCHAR 226F
ENCODING 8815
SWIDTH 583 0
DWIDTH 7 0
BBX 6 7 0 0
BITMAP
10
D0
30
28
24
38
E0
ENDCHAR
STARTCHAR 2295
ENCODING 8853
SWIDTH 833 0
DWIDTH 10 0
BBX 8 9 1 -2
BITMAP
3C
52
92
91
FF
91
92
52
3C
ENDCHAR
STARTCHAR 2299
ENCODING 8857
SWIDTH 1000 0
DWIDTH 12 0
BBX 8 8 2 0
BITMAP
3C
42
81
99
81
81
42
3C
ENDCHAR
STARTCHAR 22A5
ENCODING 8869
SWIDTH 1000 0
DWIDTH 12 0
BBX 8 8 2 0
BITMAP
10
10
10
10
10
10
10
FF
ENDCHAR
STARTCHAR 22BF
ENCODING 8895
SWIDTH 750 0
DWIDTH 9 0
BBX 7 8 1 0
BITMAP
02
06
0A
12
22
42
82
FE
ENDCHAR
STARTCHAR 2312
ENCODING 8978
SWIDTH 1000 0
DWIDTH 12 0
BBX 8 4 2 0
BITMAP
3C
42
81
81
ENDCHAR
STARTCHAR 2460
ENCODING 9312
SWIDTH 1000 0
DWIDTH 12 0
BBX 12 11 0 -2
BITMAP
0F00
30C0
4620
4A20
8220
8210
8220
4220
4F20
30C0
0F00
ENDCHAR
STARTCHAR 2461
ENCODING 9313
SWIDTH 1000 0
DWIDTH 12 0
BBX 12 11 0 -2
BITMAP
0F00
30C0
4720
4920
8120
8210
8420
4820
4F20
30C0
0F00
ENDCHAR
STARTCHAR 2462
ENCODING 9314
SWIDTH 1000 0
DWIDTH 12 0
BBX 12 11 0 -2
BITMAP
0F00
30C0
4E20
4120
8120
8610
8120
4120
4E20
30C0
0F00
ENDCHAR
STARTCHAR 2463
ENCODING 9315
SWIDTH 1000 0
DWIDTH 12 0
BBX 12 11 0 -2
BITMAP
0F00
30C0
4220
4620
8A20
8A10
9F20
4220
4220
30C0
0F00
ENDCHAR
STARTCHAR 2464
ENCODING 9316
SWIDTH 1000 0
DWIDTH 12 0
BBX 12 11 0 -2
BITMAP
0F00
30C0
4F20
4820
8820
8E10
8120
4120
4E20
30C0
0F00
ENDCHAR
STARTCHAR 2465
ENCODING 9317
SWIDTH 1000 0
DWIDTH 12 0
BBX 12 11 0 -2
BITMAP
0F00
30C0
4720
4820
8F20
8910
8920
4920
4620
30C0
0F00
ENDCHAR
STARTCHAR 2466
ENCODING 9318
SWIDTH 1000 0
DWIDTH 12 0
BBX 12 11 0 -2
BITMAP
0F00
30C0
4F20
4120
8220
8210
8220
4420
4420
30C0
0F00
ENDCHAR
STARTCHAR 2467
ENCODING 9319
SWIDTH 1000 0
DWIDTH 12 0
BBX 12 11 0 -2
BITMAP
0F00
30C0
4720
4920
8920
8610
8920
4920
4F20
30C0
0F00
ENDCHAR
STARTCHAR 2468
ENCODING 9320
SWIDTH 1000 0
DWIDTH 12 0
BBX 12 11 0 -2
BITMAP
0F00
30C0
4620
4920
8920
8910
8720
4120
4E20
30C0
0F00
ENDCHAR
STARTCHAR 2469
ENCODING 9321
SWIDTH 1000 0
DWIDTH 12 0
BBX 12 11 0 -2
BITMAP
0F00
30C0
5BA0
4AA0
8AA0
8A50
8AA0
4AA0
5FA0
30C0
0F00
ENDCHAR
STARTCHAR 2474
ENCODING 9332
SWIDTH 1000 0
DWIDTH 12 0
BBX 12 11 0 -2
BITMAP
2040
4020
4620
4A20
8220
8210
8220
4220
4F20
4020
2040
ENDCHAR
STARTCHAR 2475
ENCODING 9333
SWIDTH 1000 0
DWIDTH 12 0
BBX 12 11 0 -2
BITMAP
2040
4020
4720
4920
8120
8210
8420
4820
4F20
4020
2040
ENDCHAR
STARTCHAR 2476
ENCODING 9334
SWIDTH 1000 0
DWIDTH 12 0
BBX 12 11 0 -2
BITMAP
2040
4020
4E20
4120
8220
8E10
8120
4120
4E20
4020
2040
ENDCHAR
STARTCHAR 2477
ENCODING 9335
SWIDTH 1000 0
DWIDTH 12 0
BBX 12 11 0 -2
BITMAP
2040
4020
4220
4620
8620
8A10
9F20
4220
4220
4020
2040
ENDCHAR
STARTCHAR 2478
ENCODING 9336
SWIDTH 1000 0
DWIDTH 12 0
BBX 12 11 0 -2
BITMAP
2040
4020
4F20
4820
8820
8E10
8120
4120
4E20
4020
2040
ENDCHAR
STARTCHAR 2479
ENCODING 9337
SWIDTH 1000 0
DWIDTH 12 0
BBX 12 11 0 -2
BITMAP
2040
4020
4720
4820
8F20
8910
8920
4920
4620
4020
2040
ENDCHAR
STARTCHAR 247A
ENCODING 9338
SWIDTH 1000 0
DWIDTH 12 0
BBX 12 11 0 -2
BITMAP
2040
4020
4F20
4120
8220
8210
8220
4420
4420
4020
2040
ENDCHAR
STARTCHAR 247B
ENCODING 9339
SWIDTH 1000 0
DWIDTH 12 0
BBX 12 11 0 -2
BITMAP
2040
4020
4720
4920
8920
8610
8920
4920
4F20
4020
2040
ENDCHAR
STARTCHAR 247C
ENCODING 9340
SWIDTH 1000 0
DWIDTH 12 0
BBX 12 11 0 -2
BITMAP
2040
4020
4620
4920
8920
8910
8720
4120
4E20
4020
2040
ENDCHAR
STARTCHAR 247D
ENCODING 9341
SWIDTH 1000 0
DWIDTH 12 0
BBX 12 11 0 -2
BITMAP
2040
4020
59A0
4AA0
8A60
8A50
8A60
4AA0
5BA0
4020
2040
ENDCHAR
STARTCHAR 247E
ENCODING 9342
SWIDTH 1000 0
DWIDTH 12 0
BBX 12 11 0 -2
BITMAP
2040
4020
5920
4920
8920
8910
8920
4920
59A0
4020
2040
ENDCHAR
STARTCHAR 247F
ENCODING 9343
SWIDTH 1000 0
DWIDTH 12 0
BBX 12 11 0 -2
BITMAP
2040
4020
53A0
50A0
90A0
9090
9120
5220
5BA0
4020
2040
ENDCHAR
STARTCHAR 2480
ENCODING 9344
SWIDTH 1000 0
DWIDTH 12 0
BBX 12 11 0 -2
BITMAP
2040
4020
53A0
50A0
90A0
9310
90A0
50A0
5BA0
4020
2040
ENDCHAR
STARTCHAR 2481
ENCODING 9345
SWIDTH 1000 0
DWIDTH 12 0
BBX 12 11 0 -2
BITMAP
2040
4020
51A0
51A0
92A0
9490
97A0
50A0
58A0
4020
2040
ENDCHAR
STARTCHAR 2482
ENCODING 9346
SWIDTH 1000 0
DWIDTH 12 0
BBX 12 11 0 -2
BITMAP
2040
4020
53A0
5220
9220
9310
90A0
50A0
5F20
4020
2040
ENDCHAR
STARTCHAR 2483
ENCODING 9347
SWIDTH 1000 0
DWIDTH 12 0
BBX 12 11 0 -2
BITMAP
2040
4020
53A0
5220
95A0
9690
94A0
52A0
5BA0
4020
2040
ENDCHAR
STARTCHAR 2484
ENCODING 9348
SWIDTH 1000 0
DWIDTH 12 0
BBX 12 11 0 -2
BITMAP
2040
4020
53A0
50A0
90A0
9110
9120
5120
5A20
4020
2040
ENDCHAR
STARTCHAR 2485
ENCODING 9349
SWIDTH 1000 0
DWIDTH 12 0
BBX 12 11 0 -2
BITMAP
2040
4020
53A0
52A0
92A0
9190
92A0
5260
5BA0
4020
2040
ENDCHAR
STARTCHAR 2486
ENCODING 9350
SWIDTH 1000 0
DWIDTH 12 0
BBX 12 11 0 -2
BITMAP
2040
4020
51A0
52A0
9260
92D0
93E0
50A0
5BA0
4020
2040
ENDCHAR
STARTCHAR 2487
ENCODING 9351
SWIDTH 1000 0
DWIDTH 12 0
BBX 12 11 0 -2
BITMAP
2040
4020
79A0
4660
8660
8A50
9260
5260
7DA0
4020
2040
ENDCHAR
STARTCHAR 2488
ENCODING 9352
SWIDTH 1000 0
DWIDTH 12 0
BBX 8 9 2 0
BITMAP
60
E0
20
20
20
20
20
21
F9
ENDCHAR
STARTCHAR 2489
ENCODING 9353
SWIDTH 1000 0
DWIDTH 12 0
BBX 9 9 1 0
BITMAP
7800
8400
0400
0400
0800
1000
2000
4080
FC80
ENDCHAR
STARTCHAR 248A
ENCODING 9354
SWIDTH 1000 0
DWIDTH 12 0
BBX 8 9 2 0
BITMAP
F0
88
08
08
70
08
0C
89
71
ENDCHAR
STARTCHAR 248B
ENCODING 9355
SWIDTH 1000 0
DWIDTH 12 0
BBX 9 9 1 0
BITMAP
0C00
1400
1400
2400
4400
4400
FE00
0480
0480
ENDCHAR
STARTCHAR 248C
ENCODING 9356
SWIDTH 1000 0
DWIDTH 12 0
BBX 8 9 2 0
BITMAP
F8
C0
C0
F0
08
0C
0C
09
F1
ENDCHAR
STARTCHAR 248D
ENCODING 9357
SWIDTH 1000 0
DWIDTH 12 0
BBX 8 9 2 0
BITMAP
38
40
80
F8
88
8C
8C
89
71
ENDCHAR
STARTCHAR 248E
ENCODING 9358
SWIDTH 1000 0
DWIDTH 12 0
BBX 8 9 2 0
BITMAP
FC
04
0C
08
08
10
10
21
21
ENDCHAR
STARTCHAR 248F
ENCODING 9359
SWIDTH 1000 0
DWIDTH 12 0
BBX 9 9 2 0
BITMAP
7800
4C00
C400
4800
3800
CC00
8400
C580
7980
ENDCHAR
STARTCHAR 2490
ENCODING 9360
SWIDTH 1000 0
DWIDTH 12 0
BBX 8 9 2 0
BITMAP
78
88
84
84
8C
74
08
09
F1
ENDCHAR
STARTCHAR 2491
ENCODING 9361
SWIDTH 1000 0
DWIDTH 12 0
BBX 12 9 0 0
BITMAP
E380
2240
2440
2420
2420
2420
2440
2240
FBB0
ENDCHAR
STARTCHAR 2492
ENCODING 9362
SWIDTH 1000 0
DWIDTH 12 0
BBX 12 9 0 0
BITMAP
E700
2100
2100
2100
2100
2100
2100
2100
FFF0
ENDCHAR
STARTCHAR 2493
ENCODING 9363
SWIDTH 1000 0
DWIDTH 12 0
BBX 12 9 0 0
BITMAP
E380
2440
2040
2040
2080
2100
2300
2200
FFF0
ENDCHAR
STARTCHAR 2494
ENCODING 9364
SWIDTH 1000 0
DWIDTH 12 0
BBX 12 9 0 0
BITMAP
E180
2240
2040
2040
2380
2040
2040
2040
FBB0
ENDCHAR
STARTCHAR 2495
ENCODING 9365
SWIDTH 1000 0
DWIDTH 12 0
BBX 12 9 0 0
BITMAP
E080
2180
2180
2280
2480
2480
27C0
2080
F8B0
ENDCHAR
STARTCHAR 2496
ENCODING 9366
SWIDTH 1000 0
DWIDTH 12 0
BBX 12 9 0 0
BITMAP
E3C0
2200
2200
2200
2380
2040
2040
2440
FBB0
ENDCHAR
STARTCHAR 2497
ENCODING 9367
SWIDTH 1000 0
DWIDTH 12 0
BBX 12 9 0 0
BITMAP
E1C0
2200
2600
2400
2580
2640
2440
2640
FBB0
ENDCHAR
STARTCHAR 2498
ENCODING 9368
SWIDTH 1000 0
DWIDTH 12 0
BBX 11 9 1 0
BITMAP
E7C0
2040
2080
2080
2100
2100
2100
2200
FA60
ENDCHAR
STARTCHAR 2499
ENCODING 9369
SWIDTH 1000 0
DWIDTH 12 0
BBX 12 9 0 0
BITMAP
E380
2640
2440
2280
2380
2440
2440
2440
FBB0
ENDCHAR
STARTCHAR 249A
ENCODING 9370
SWIDTH 1000 0
DWIDTH 12 0
BBX 12 9 0 0
BITMAP
E1C0
2240
2220
2220
2260
23A0
2040
2040
FBB0
ENDCHAR
STARTCHAR 249B
ENCODING 9371
SWIDTH 1000 0
DWIDTH 12 0
BBX 12 9 0 0
BITMAP
71C0
8A40
0A20
0A20
1220
1220
2240
4240
F9B0
ENDCHAR
STARTCHAR 2500
ENCODING 9472
SWIDTH 750 0
DWIDTH 9 0
BBX 9 1 0 4
BITMAP
FF80
ENDCHAR
STARTCHAR 2501
ENCODING 9473
SWIDTH 583 0
DWIDTH 7 0
BBX 7 2 0 4
BITMAP
FE
FE
ENDCHAR
STARTCHAR 2502
ENCODING 9474
SWIDTH 750 0
DWIDTH 9 0
BBX 1 11 4 -1
BITMAP
80
80
80
80
80
80
80
80
80
80
80
ENDCHAR
STARTCHAR 2503
ENCODING 9475
SWIDTH 583 0
DWIDTH 7 0
BBX 2 15 3 -3
BITMAP
C0
C0
C0
C0
C0
C0
C0
C0
C0
C0
C0
C0
C0
C0
C0
ENDCHAR
STARTCHAR 2504
ENCODING 9476
SWIDTH 583 0
DWIDTH 7 0
BBX 7 1 0 4
BITMAP
DE
ENDCHAR
STARTCHAR 2505
ENCODING 9477
SWIDTH 583 0
DWIDTH 7 0
BBX 7 2 0 4
BITMAP
DE
DE
ENDCHAR
STARTCHAR 2506
ENCODING 9478
SWIDTH 583 0
DWIDTH 7 0
BBX 1 15 3 -3
BITMAP
80
80
80
80
00
80
80
80
80
80
00
80
80
80
80
ENDCHAR
STARTCHAR 2507
ENCODING 9479
SWIDTH 583 0
DWIDTH 7 0
BBX 2 15 3 -3
BITMAP
C0
C0
C0
C0
00
C0
C0
C0
C0
C0
00
C0
C0
C0
C0
ENDCHAR
STARTCHAR 2508
ENCODING 9480
SWIDTH 583 0
DWIDTH 7 0
BBX 7 1 0 4
BITMAP
AA
ENDCHAR
STARTCHAR 2509
ENCODING 9481
SWIDTH 583 0
DWIDTH 7 0
BBX 7 2 0 4
BITMAP
AA
AA
ENDCHAR
STARTCHAR 250A
ENCODING 9482
SWIDTH 583 0
DWIDTH 7 0
BBX 1 15 3 -3
BITMAP
80
80
80
00
80
80
80
00
80
80
80
00
80
80
80
ENDCHAR
STARTCHAR 250B
ENCODING 9483
SWIDTH 583 0
DWIDTH 7 0
BBX 2 15 3 -3
BITMAP
C0
C0
C0
00
C0
C0
C0
00
C0
C0
C0
00
C0
C0
C0
ENDCHAR
STARTCHAR 250C
ENCODING 9484
SWIDTH 750 0
DWIDTH 9 0
BBX 5 6 4 -1
BITMAP
F8
80
80
80
80
80
ENDCHAR
STARTCHAR 250D
ENCODING 9485
SWIDTH 583 0
DWIDTH 7 0
BBX 4 8 3 -3
BITMAP
F0
F0
80
80
80
80
80
80
ENDCHAR
STARTCHAR 250E
ENCODING 9486
SWIDTH 583 0
DWIDTH 7 0
BBX 4 8 3 -3
BITMAP
F0
C0
C0
C0
C0
C0
C0
C0
ENDCHAR
STARTCHAR 250F
ENCODING 9487
SWIDTH 583 0
DWIDTH 7 0
BBX 4 8 3 -3
BITMAP
F0
F0
C0
C0
C0
C0
C0
C0
ENDCHAR
STARTCHAR 2510
ENCODING 9488
SWIDTH 750 0
DWIDTH 9 0
BBX 5 6 0 -1
BITMAP
F8
08
08
08
08
08
ENDCHAR
STARTCHAR 2511
ENCODING 9489
SWIDTH 583 0
DWIDTH 7 0
BBX 4 8 0 -3
BITMAP
F0
F0
10
10
10
10
10
10
ENDCHAR
STARTCHAR 2512
ENCODING 9490
SWIDTH 583 0
DWIDTH 7 0
BBX 5 8 0 -3
BITMAP
F8
18
18
18
18
18
18
18
ENDCHAR
STARTCHAR 2513
ENCODING 9491
SWIDTH 583 0
DWIDTH 7 0
BBX 5 8 0 -3
BITMAP
F8
F8
18
18
18
18
18
18
ENDCHAR
STARTCHAR 2514
ENCODING 9492
SWIDTH 750 0
DWIDTH 9 0
BBX 5 6 4 4
BITMAP
80
80
80
80
80
F8
ENDCHAR
STARTCHAR 2515
ENCODING 9493
SWIDTH 583 0
DWIDTH 7 0
BBX 4 8 3 4
BITMAP
80
80
80
80
80
80
F0
F0
ENDCHAR
STARTCHAR 2516
ENCODING 9494
SWIDTH 583 0
DWIDTH 7 0
BBX 4 8 3 4
BITMAP
C0
C0
C0
C0
C0
C0
C0
F0
ENDCHAR
STARTCHAR 2517
ENCODING 9495
SWIDTH 583 0
DWIDTH 7 0
BBX 4 8 3 4
BITMAP
C0
C0
C0
C0
C0
C0
F0
F0
ENDCHAR
STARTCHAR 2518
ENCODING 9496
SWIDTH 750 0
DWIDTH 9 0
BBX 5 6 0 4
BITMAP
08
08
08
08
08
F8
ENDCHAR
STARTCHAR 2519
ENCODING 9497
SWIDTH 583 0
DWIDTH 7 0
BBX 4 8 0 4
BITMAP
10
10
10
10
10
10
F0
F0
ENDCHAR
STARTCHAR 251A
ENCODING 9498
SWIDTH 583 0
DWIDTH 7 0
BBX 5 8 0 4
BITMAP
18
18
18
18
18
18
18
F8
ENDCHAR
STARTCHAR 251B
ENCODING 9499
SWIDTH 583 0
DWIDTH 7 0
BBX 5 8 0 4
BITMAP
18
18
18
18
18
18
F8
F8
ENDCHAR
STARTCHAR 251C
ENCODING 9500
SWIDTH 750 0
DWIDTH 9 0
BBX 5 11 4 -1
BITMAP
80
80
80
80
80
F8
80
80
80
80
80
ENDCHAR
STARTCHAR 251D
ENCODING 9501
SWIDTH 583 0
DWIDTH 7 0
BBX 4 15 3 -3
BITMAP
80
80
80
80
80
80
F0
F0
F0
80
80
80
80
80
80
ENDCHAR
STARTCHAR 251E
ENCODING 9502
SWIDTH 583 0
DWIDTH 7 0
BBX 4 15 3 -3
BITMAP
C0
C0
C0
C0
C0
C0
C0
F0
80
80
80
80
80
80
80
ENDCHAR
STARTCHAR 251F
ENCODING 9503
SWIDTH 583 0
DWIDTH 7 0
BBX 4 15 3 -3
BITMAP
80
80
80
80
80
80
80
F0
C0
C0
C0
C0
C0
C0
C0
ENDCHAR
STARTCHAR 2520
ENCODING 9504
SWIDTH 583 0
DWIDTH 7 0
BBX 4 15 3 -3
BITMAP
C0
C0
C0
C0
C0
C0
C0
F0
C0
C0
C0
C0
C0
C0
C0
ENDCHAR
STARTCHAR 2521
ENCODING 9505
SWIDTH 583 0
DWIDTH 7 0
BBX 4 15 3 -3
BITMAP
C0
C0
C0
C0
C0
C0
F0
F0
F0
80
80
80
80
80
80
ENDCHAR
STARTCHAR 2522
ENCODING 9506
SWIDTH 583 0
DWIDTH 7 0
BBX 4 15 3 -3
BITMAP
80
80
80
80
80
80
F0
F0
F0
C0
C0
C0
C0
C0
C0
ENDCHAR
STARTCHAR 2523
ENCODING 9507
SWIDTH 583 0
DWIDTH 7 0
BBX 4 15 3 -3
BITMAP
C0
C0
C0
C0
C0
C0
F0
F0
F0
C0
C0
C0
C0
C0
C0
ENDCHAR
STARTCHAR 2524
ENCODING 9508
SWIDTH 750 0
DWIDTH 9 0
BBX 5 11 0 -1
BITMAP
08
08
08
08
08
F8
08
08
08
08
08
ENDCHAR
STARTCHAR 2525
ENCODING 9509
SWIDTH 583 0
DWIDTH 7 0
BBX 4 15 0 -3
BITMAP
10
10
10
10
10
10
F0
F0
F0
10
10
10
10
10
10
ENDCHAR
STARTCHAR 2526
ENCODING 9510
SWIDTH 583 0
DWIDTH 7 0
BBX 5 15 0 -3
BITMAP
18
18
18
18
18
18
18
F8
10
10
10
10
10
10
10
ENDCHAR
STARTCHAR 2527
ENCODING 9511
SWIDTH 583 0
DWIDTH 7 0
BBX 5 15 0 -3
BITMAP
10
10
10
10
10
10
10
F8
18
18
18
18
18
18
18
ENDCHAR
STARTCHAR 2528
ENCODING 9512
SWIDTH 583 0
DWIDTH 7 0
BBX 5 15 0 -3
BITMAP
18
18
18
18
18
18
18
F8
18
18
18
18
18
18
18
ENDCHAR
STARTCHAR 2529
ENCODING 9513
SWIDTH 583 0
DWIDTH 7 0
BBX 5 15 0 -3
BITMAP
18
18
18
18
18
18
F8
F8
F8
10
10
10
10
10
10
ENDCHAR
STARTCHAR 252A
ENCODING 9514
SWIDTH 583 0
DWIDTH 7 0
BBX 5 15 0 -3
BITMAP
10
10
10
10
10
10
F8
F8
F8
18
18
18
18
18
18
ENDCHAR
STARTCHAR 252B
ENCODING 9515
SWIDTH 583 0
DWIDTH 7 0
BBX 5 15 0 -3
BITMAP
18
18
18
18
18
18
F8
F8
F8
18
18
18
18
18
18
ENDCHAR
STARTCHAR 252C
ENCODING 9516
SWIDTH 750 0
DWIDTH 9 0
BBX 9 6 0 -1
BITMAP
FF80
0800
0800
0800
0800
0800
ENDCHAR
STARTCHAR 252D
ENCODING 9517
SWIDTH 583 0
DWIDTH 7 0
BBX 7 9 0 -3
BITMAP
F0
FE
F0
10
10
10
10
10
10
ENDCHAR
STARTCHAR 252E
ENCODING 9518
SWIDTH 583 0
DWIDTH 7 0
BBX 7 9 0 -3
BITMAP
1E
FE
1E
10
10
10
10
10
10
ENDCHAR
STARTCHAR 252F
ENCODING 9519
SWIDTH 583 0
DWIDTH 7 0
BBX 7 8 0 -3
BITMAP
FE
FE
10
10
10
10
10
10
ENDCHAR
STARTCHAR 2530
ENCODING 9520
SWIDTH 583 0
DWIDTH 7 0
BBX 7 8 0 -3
BITMAP
FE
18
18
18
18
18
18
18
ENDCHAR
STARTCHAR 2531
ENCODING 9521
SWIDTH 583 0
DWIDTH 7 0
BBX 7 9 0 -3
BITMAP
F8
FE
18
18
18
18
18
18
18
ENDCHAR
STARTCHAR 2532
ENCODING 9522
SWIDTH 583 0
DWIDTH 7 0
BBX 7 9 0 -3
BITMAP
1E
FE
18
18
18
18
18
18
18
ENDCHAR
STARTCHAR 2533
ENCODING 9523
SWIDTH 583 0
DWIDTH 7 0
BBX 7 8 0 -3
BITMAP
FE
FE
18
18
18
18
18
18
ENDCHAR
STARTCHAR 2534
ENCODING 9524
SWIDTH 750 0
DWIDTH 9 0
BBX 9 6 0 4
BITMAP
0800
0800
0800
0800
0800
FF80
ENDCHAR
STARTCHAR 2535
ENCODING 9525
SWIDTH 583 0
DWIDTH 7 0
BBX 7 9 0 3
BITMAP
10
10
10
10
10
10
F0
FE
F0
ENDCHAR
STARTCHAR 2536
ENCODING 9526
SWIDTH 583 0
DWIDTH 7 0
BBX 7 9 0 3
BITMAP
10
10
10
10
10
10
1E
FE
1E
ENDCHAR
STARTCHAR 2537
ENCODING 9527
SWIDTH 583 0
DWIDTH 7 0
BBX 7 8 0 4
BITMAP
10
10
10
10
10
10
FE
FE
ENDCHAR
STARTCHAR 2538
ENCODING 9528
SWIDTH 583 0
DWIDTH 7 0
BBX 7 8 0 4
BITMAP
18
18
18
18
18
18
18
FE
ENDCHAR
STARTCHAR 2539
ENCODING 9529
SWIDTH 583 0
DWIDTH 7 0
BBX 7 9 0 3
BITMAP
18
18
18
18
18
18
18
FE
F8
ENDCHAR
STARTCHAR 253A
ENCODING 9530
SWIDTH 583 0
DWIDTH 7 0
BBX 7 9 0 3
BITMAP
18
18
18
18
18
18
18
FE
1E
ENDCHAR
STARTCHAR 253B
ENCODING 9531
SWIDTH 583 0
DWIDTH 7 0
BBX 7 8 0 4
BITMAP
18
18
18
18
18
18
FE
FE
ENDCHAR
STARTCHAR 253C
ENCODING 9532
SWIDTH 750 0
DWIDTH 9 0
BBX 9 11 0 -1
BITMAP
0800
0800
0800
0800
0800
FF80
0800
0800
0800
0800
0800
ENDCHAR
STARTCHAR 253D
ENCODING 9533
SWIDTH 583 0
DWIDTH 7 0
BBX 7 15 0 -3
BITMAP
10
10
10
10
10
10
F0
FE
F0
10
10
10
10
10
10
ENDCHAR
STARTCHAR 253E
ENCODING 9534
SWIDTH 583 0
DWIDTH 7 0
BBX 7 15 0 -3
BITMAP
10
10
10
10
10
10
1E
FE
1E
10
10
10
10
10
10
ENDCHAR
STARTCHAR 253F
ENCODING 9535
SWIDTH 583 0
DWIDTH 7 0
BBX 7 15 0 -3
BITMAP
10
10
10
10
10
10
FE
FE
FE
10
10
10
10
10
10
ENDCHAR
STARTCHAR 2540
ENCODING 9536
SWIDTH 583 0
DWIDTH 7 0
BBX 7 15 0 -3
BITMAP
18
18
18
18
18
18
18
FE
10
10
10
10
10
10
10
ENDCHAR
STARTCHAR 2541
ENCODING 9537
SWIDTH 583 0
DWIDTH 7 0
BBX 7 15 0 -3
BITMAP
10
10
10
10
10
10
10
FE
18
18
18
18
18
18
18
ENDCHAR
STARTCHAR 2542
ENCODING 9538
SWIDTH 583 0
DWIDTH 7 0
BBX 7 15 0 -3
BITMAP
18
18
18
18
18
18
18
FE
18
18
18
18
18
18
18
ENDCHAR
STARTCHAR 2543
ENCODING 9539
SWIDTH 583 0
DWIDTH 7 0
BBX 7 15 0 -3
BITMAP
18
18
18
18
18
18
F8
FE
F8
10
10
10
10
10
10
ENDCHAR
STARTCHAR 2544
ENCODING 9540
SWIDTH 583 0
DWIDTH 7 0
BBX 7 15 0 -3
BITMAP
18
18
18
18
18
18
1E
FE
1E
10
10
10
10
10
10
ENDCHAR
STARTCHAR 2545
ENCODING 9541
SWIDTH 583 0
DWIDTH 7 0
BBX 7 15 0 -3
BITMAP
10
10
10
10
10
10
F8
FE
F8
18
18
18
18
18
18
ENDCHAR
STARTCHAR 2546
ENCODING 9542
SWIDTH 583 0
DWIDTH 7 0
BBX 7 15 0 -3
BITMAP
10
10
10
10
10
10
1E
FE
1E
18
18
18
18
18
18
ENDCHAR
STARTCHAR 2547
ENCODING 9543
SWIDTH 583 0
DWIDTH 7 0
BBX 7 15 0 -3
BITMAP
18
18
18
18
18
18
FE
FE
FE
10
10
10
10
10
10
ENDCHAR
STARTCHAR 2548
ENCODING 9544
SWIDTH 583 0
DWIDTH 7 0
BBX 7 15 0 -3
BITMAP
10
10
10
10
10
10
FE
FE
FE
18
18
18
18
18
18
ENDCHAR
STARTCHAR 2549
ENCODING 9545
SWIDTH 583 0
DWIDTH 7 0
BBX 7 15 0 -3
BITMAP
18
18
18
18
18
18
F8
FE
F8
18
18
18
18
18
18
ENDCHAR
STARTCHAR 254A
ENCODING 9546
SWIDTH 583 0
DWIDTH 7 0
BBX 7 15 0 -3
BITMAP
18
18
18
18
18
18
1E
FE
1E
18
18
18
18
18
18
ENDCHAR
STARTCHAR 254B
ENCODING 9547
SWIDTH 583 0
DWIDTH 7 0
BBX 7 15 0 -3
BITMAP
18
18
18
18
18
18
FE
FE
FE
18
18
18
18
18
18
ENDCHAR
STARTCHAR 2550
ENCODING 9552
SWIDTH 750 0
DWIDTH 9 0
BBX 9 3 0 3
BITMAP
FF80
0000
FF80
ENDCHAR
STARTCHAR 2551
ENCODING 9553
SWIDTH 750 0
DWIDTH 9 0
BBX 3 11 3 -1
BITMAP
A0
A0
A0
A0
A0
A0
A0
A0
A0
A0
A0
ENDCHAR
STARTCHAR 2552
ENCODING 9554
SWIDTH 750 0
DWIDTH 9 0
BBX 5 7 4 -1
BITMAP
F8
80
F8
80
80
80
80
ENDCHAR
STARTCHAR 2553
ENCODING 9555
SWIDTH 750 0
DWIDTH 9 0
BBX 6 6 3 -1
BITMAP
FC
A0
A0
A0
A0
A0
ENDCHAR
STARTCHAR 2554
ENCODING 9556
SWIDTH 750 0
DWIDTH 9 0
BBX 6 7 3 -1
BITMAP
FC
80
BC
A0
A0
A0
A0
ENDCHAR
STARTCHAR 2555
ENCODING 9557
SWIDTH 750 0
DWIDTH 9 0
BBX 5 7 0 -1
BITMAP
F8
08
F8
08
08
08
08
ENDCHAR
STARTCHAR 2556
ENCODING 9558
SWIDTH 750 0
DWIDTH 9 0
BBX 6 6 0 -1
BITMAP
FC
14
14
14
14
14
ENDCHAR
STARTCHAR 2557
ENCODING 9559
SWIDTH 750 0
DWIDTH 9 0
BBX 6 7 0 -1
BITMAP
FC
04
F4
14
14
14
14
ENDCHAR
STARTCHAR 2558
ENCODING 9560
SWIDTH 750 0
DWIDTH 9 0
BBX 5 7 4 3
BITMAP
80
80
80
80
F8
80
F8
ENDCHAR
STARTCHAR 2559
ENCODING 9561
SWIDTH 750 0
DWIDTH 9 0
BBX 6 6 3 4
BITMAP
A0
A0
A0
A0
A0
FC
ENDCHAR
STARTCHAR 255A
ENCODING 9562
SWIDTH 750 0
DWIDTH 9 0
BBX 6 7 3 3
BITMAP
A0
A0
A0
A0
BC
80
FC
ENDCHAR
STARTCHAR 255B
ENCODING 9563
SWIDTH 750 0
DWIDTH 9 0
BBX 5 7 0 3
BITMAP
08
08
08
08
F8
08
F8
ENDCHAR
STARTCHAR 255C
ENCODING 9564
SWIDTH 750 0
DWIDTH 9 0
BBX 6 6 0 4
BITMAP
14
14
14
14
14
FC
ENDCHAR
STARTCHAR 255D
ENCODING 9565
SWIDTH 750 0
DWIDTH 9 0
BBX 6 7 0 3
BITMAP
14
14
14
14
F4
04
FC
ENDCHAR
STARTCHAR 255E
ENCODING 9566
SWIDTH 750 0
DWIDTH 9 0
BBX 5 11 4 -1
BITMAP
80
80
80
80
F8
80
F8
80
80
80
80
ENDCHAR
STARTCHAR 255F
ENCODING 9567
SWIDTH 750 0
DWIDTH 9 0
BBX 6 11 3 -1
BITMAP
A0
A0
A0
A0
A0
BC
A0
A0
A0
A0
A0
ENDCHAR
STARTCHAR 2560
ENCODING 9568
SWIDTH 750 0
DWIDTH 9 0
BBX 6 11 3 -1
BITMAP
A0
A0
A0
A0
BC
80
BC
A0
A0
A0
A0
ENDCHAR
STARTCHAR 2561
ENCODING 9569
SWIDTH 750 0
DWIDTH 9 0
BBX 5 11 0 -1
BITMAP
08
08
08
08
F8
08
F8
08
08
08
08
ENDCHAR
STARTCHAR 2562
ENCODING 9570
SWIDTH 750 0
DWIDTH 9 0
BBX 6 11 0 -1
BITMAP
14
14
14
14
14
F4
14
14
14
14
14
ENDCHAR
STARTCHAR 2563
ENCODING 9571
SWIDTH 750 0
DWIDTH 9 0
BBX 6 11 0 -1
BITMAP
14
14
14
14
F4
04
F4
14
14
14
14
ENDCHAR
STARTCHAR 2564
ENCODING 9572
SWIDTH 750 0
DWIDTH 9 0
BBX 9 7 0 -1
BITMAP
FF80
0000
FF80
0800
0800
0800
0800
ENDCHAR
STARTCHAR 2565
ENCODING 9573
SWIDTH 750 0
DWIDTH 9 0
BBX 9 6 0 -1
BITMAP
FF80
1400
1400
1400
1400
1400
ENDCHAR
STARTCHAR 2566
ENCODING 9574
SWIDTH 750 0
DWIDTH 9 0
BBX 9 7 0 -1
BITMAP
FF80
0000
F780
1400
1400
1400
1400
ENDCHAR
STARTCHAR 2567
ENCODING 9575
SWIDTH 750 0
DWIDTH 9 0
BBX 9 7 0 3
BITMAP
0800
0800
0800
0800
FF80
0000
FF80
ENDCHAR
STARTCHAR 2568
ENCODING 9576
SWIDTH 750 0
DWIDTH 9 0
BBX 9 6 0 4
BITMAP
1400
1400
1400
1400
1400
FF80
ENDCHAR
STARTCHAR 2569
ENCODING 9577
SWIDTH 750 0
DWIDTH 9 0
BBX 9 7 0 3
BITMAP
1400
1400
1400
1400
F780
0000
FF80
ENDCHAR
STARTCHAR 256A
ENCODING 9578
SWIDTH 750 0
DWIDTH 9 0
BBX 9 11 0 -1
BITMAP
0800
0800
0800
0800
FF80
0800
FF80
0800
0800
0800
0800
ENDCHAR
STARTCHAR 256B
ENCODING 9579
SWIDTH 750 0
DWIDTH 9 0
BBX 9 11 0 -1
BITMAP
1400
1400
1400
1400
1400
FF80
1400
1400
1400
1400
1400
ENDCHAR
STARTCHAR 256C
ENCODING 9580
SWIDTH 750 0
DWIDTH 9 0
BBX 9 11 0 -1
BITMAP
1400
1400
1400
1400
F780
0000
F780
1400
1400
1400
1400
ENDCHAR
STARTCHAR 256D
ENCODING 9581
SWIDTH 583 0
DWIDTH 7 0
BBX 4 4 3 1
BITMAP
30
60
C0
80
ENDCHAR
STARTCHAR 256E
ENCODING 9582
SWIDTH 583 0
DWIDTH 7 0
BBX 4 4 0 1
BITMAP
C0
20
10
10
ENDCHAR
STARTCHAR 256F
ENCODING 9583
SWIDTH 583 0
DWIDTH 7 0
BBX 4 4 0 4
BITMAP
10
10
20
C0
ENDCHAR
STARTCHAR 2570
ENCODING 9584
SWIDTH 583 0
DWIDTH 7 0
BBX 4 4 3 4
BITMAP
80
C0
60
30
ENDCHAR
STARTCHAR 2571
ENCODING 9585
SWIDTH 583 0
DWIDTH 7 0
BBX 7 7 0 1
BITMAP
02
04
08
10
20
40
80
ENDCHAR
STARTCHAR 2572
ENCODING 9586
SWIDTH 583 0
DWIDTH 7 0
BBX 7 7 0 1
BITMAP
80
40
20
10
08
04
02
ENDCHAR
STARTCHAR 2573
ENCODING 9587
SWIDTH 583 0
DWIDTH 7 0
BBX 7 7 0 1
BITMAP
82
44
28
10
28
44
82
ENDCHAR
STARTCHAR 2581
ENCODING 9601
SWIDTH 583 0
DWIDTH 7 0
BBX 7 2 0 -3
BITMAP
FE
FE
ENDCHAR
STARTCHAR 2582
ENCODING 9602
SWIDTH 583 0
DWIDTH 7 0
BBX 7 4 0 -3
BITMAP
FE
FE
FE
FE
ENDCHAR
STARTCHAR 2583
ENCODING 9603
SWIDTH 583 0
DWIDTH 7 0
BBX 7 5 0 -3
BITMAP
FE
FE
FE
FE
FE
ENDCHAR
STARTCHAR 2584
ENCODING 9604
SWIDTH 750 0
DWIDTH 9 0
BBX 9 7 0 -1
BITMAP
FF80
FF80
FF80
FF80
FF80
FF80
FF80
ENDCHAR
STARTCHAR 2585
ENCODING 9605
SWIDTH 583 0
DWIDTH 7 0
BBX 7 9 0 -3
BITMAP
FE
FE
FE
FE
FE
FE
FE
FE
FE
ENDCHAR
STARTCHAR 2586
ENCODING 9606
SWIDTH 583 0
DWIDTH 7 0
BBX 7 11 0 -3
BITMAP
FE
FE
FE
FE
FE
FE
FE
FE
FE
FE
FE
ENDCHAR
STARTCHAR 2587
ENCODING 9607
SWIDTH 583 0
DWIDTH 7 0
BBX 7 13 0 -3
BITMAP
FE
FE
FE
FE
FE
FE
FE
FE
FE
FE
FE
FE
FE
ENDCHAR
STARTCHAR 2588
ENCODING 9608
SWIDTH 750 0
DWIDTH 9 0
BBX 9 11 0 -1
BITMAP
FF80
FF80
FF80
FF80
FF80
FF80
FF80
FF80
FF80
FF80
FF80
ENDCHAR
STARTCHAR 2589
ENCODING 9609
SWIDTH 583 0
DWIDTH 7 0
BBX 6 15 0 -3
BITMAP
FC
FC
FC
FC
FC
FC
FC
FC
FC
FC
FC
FC
FC
FC
FC
ENDCHAR
STARTCHAR 258A
ENCODING 9610
SWIDTH 583 0
DWIDTH 7 0
BBX 5 15 0 -3
BITMAP
F8
F8
F8
F8
F8
F8
F8
F8
F8
F8
F8
F8
F8
F8
F8
ENDCHAR
STARTCHAR 258B
ENCODING 9611
SWIDTH 583 0
DWIDTH 7 0
BBX 5 15 0 -3
BITMAP
F8
F8
F8
F8
F8
F8
F8
F8
F8
F8
F8
F8
F8
F8
F8
ENDCHAR
STARTCHAR 258C
ENCODING 9612
SWIDTH 750 0
DWIDTH 9 0
BBX 4 11 0 -1
BITMAP
F0
F0
F0
F0
F0
F0
F0
F0
F0
F0
F0
ENDCHAR
STARTCHAR 258D
ENCODING 9613
SWIDTH 583 0
DWIDTH 7 0
BBX 3 15 0 -3
BITMAP
E0
E0
E0
E0
E0
E0
E0
E0
E0
E0
E0
E0
E0
E0
E0
ENDCHAR
STARTCHAR 258E
ENCODING 9614
SWIDTH 583 0
DWIDTH 7 0
BBX 2 15 0 -3
BITMAP
C0
C0
C0
C0
C0
C0
C0
C0
C0
C0
C0
C0
C0
C0
C0
ENDCHAR
STARTCHAR 258F
ENCODING 9615
SWIDTH 583 0
DWIDTH 7 0
BBX 1 15 0 -3
BITMAP
80
80
80
80
80
80
80
80
80
80
80
80
80
80
80
ENDCHAR
STARTCHAR 2593
ENCODING 9619
SWIDTH 750 0
DWIDTH 9 0
BBX 8 11 0 -1
BITMAP
FF
FF
B7
DD
FF
FF
DD
7F
FF
DD
FF
ENDCHAR
STARTCHAR 2594
ENCODING 9620
SWIDTH 583 0
DWIDTH 7 0
BBX 7 2 0 10
BITMAP
FE
FE
ENDCHAR
STARTCHAR 2595
ENCODING 9621
SWIDTH 583 0
DWIDTH 7 0
BBX 1 15 6 -3
BITMAP
80
80
80
80
80
80
80
80
80
80
80
80
80
80
80
ENDCHAR
STARTCHAR 25A0
ENCODING 9632
SWIDTH 583 0
DWIDTH 7 0
BBX 5 6 1 0
BITMAP
F8
F8
F8
F8
F8
F8
ENDCHAR
STARTCHAR 25A1
ENCODING 9633
SWIDTH 666 0
DWIDTH 8 0
BBX 6 7 1 0
BITMAP
FC
84
84
84
84
84
FC
ENDCHAR
STARTCHAR 25AA
ENCODING 9642
SWIDTH 416 0
DWIDTH 5 0
BBX 3 3 1 3
BITMAP
E0
E0
E0
ENDCHAR
STARTCHAR 25AB
ENCODING 9643
SWIDTH 416 0
DWIDTH 5 0
BBX 3 3 1 3
BITMAP
E0
A0
E0
ENDCHAR
STARTCHAR 25B2
ENCODING 9650
SWIDTH 1000 0
DWIDTH 12 0
BBX 8 8 2 0
BITMAP
10
18
18
3C
3C
7E
7E
FF
ENDCHAR
STARTCHAR 25B3
ENCODING 9651
SWIDTH 583 0
DWIDTH 7 0
BBX 5 5 1 2
BITMAP
20
60
50
90
F8
ENDCHAR
STARTCHAR 25BC
ENCODING 9660
SWIDTH 1000 0
DWIDTH 12 0
BBX 8 8 2 0
BITMAP
FF
7E
7E
3C
3C
18
18
10
ENDCHAR
STARTCHAR 25BD
ENCODING 9661
SWIDTH 583 0
DWIDTH 7 0
BBX 5 5 1 1
BITMAP
F8
90
50
60
20
ENDCHAR
STARTCHAR 25C6
ENCODING 9670
SWIDTH 583 0
DWIDTH 7 0
BBX 5 6 1 2
BITMAP
20
70
F8
F8
70
20
ENDCHAR
STARTCHAR 25C7
ENCODING 9671
SWIDTH 583 0
DWIDTH 7 0
BBX 5 6 1 1
BITMAP
20
50
88
88
50
20
ENDCHAR
STARTCHAR 25CA
ENCODING 9674
SWIDTH 666 0
DWIDTH 8 0
BBX 6 9 1 0
BITMAP
20
50
48
88
84
88
48
50
20
ENDCHAR
STARTCHAR 25CB
ENCODING 9675
SWIDTH 583 0
DWIDTH 7 0
BBX 5 5 1 1
BITMAP
70
88
88
88
70
ENDCHAR
STARTCHAR 25CC
ENCODING 9676
SWIDTH 500 0
DWIDTH 6 0
BBX 4 7 0 1
BITMAP
70
00
80
00
80
00
70
ENDCHAR
STARTCHAR 25CE
ENCODING 9678
SWIDTH 583 0
DWIDTH 7 0
BBX 5 6 1 1
BITMAP
70
A8
D8
D8
A8
70
ENDCHAR
STARTCHAR 25CF
ENCODING 9679
SWIDTH 666 0
DWIDTH 8 0
BBX 6 6 1 1
BITMAP
70
F8
FC
FC
F8
70
ENDCHAR
STARTCHAR 25E2
ENCODING 9698
SWIDTH 583 0
DWIDTH 7 0
BBX 4 5 2 2
BITMAP
10
10
30
70
F0
ENDCHAR
STARTCHAR 25E3
ENCODING 9699
SWIDTH 583 0
DWIDTH 7 0
BBX 5 5 1 2
BITMAP
80
C0
E0
F0
F8
ENDCHAR
STARTCHAR 25E4
ENCODING 9700
SWIDTH 583 0
DWIDTH 7 0
BBX 5 5 1 2
BITMAP
F8
F0
E0
C0
80
ENDCHAR
STARTCHAR 25E5
ENCODING 9701
SWIDTH 583 0
DWIDTH 7 0
BBX 4 5 2 2
BITMAP
F0
70
30
10
10
ENDCHAR
STARTCHAR 25E6
ENCODING 9702
SWIDTH 416 0
DWIDTH 5 0
BBX 3 4 1 2
BITMAP
C0
A0
A0
C0
ENDCHAR
STARTCHAR 2605
ENCODING 9733
SWIDTH 833 0
DWIDTH 10 0
BBX 8 9 1 0
BITMAP
10
10
18
FF
7E
3C
3C
24
42
ENDCHAR
STARTCHAR 2606
ENCODING 9734
SWIDTH 833 0
DWIDTH 10 0
BBX 9 9 0 0
BITMAP
0800
0C00
0C00
F380
4100
3200
2E00
3300
6100
ENDCHAR
STARTCHAR 2609
ENCODING 9737
SWIDTH 833 0
DWIDTH 10 0
BBX 8 8 1 0
BITMAP
3C
42
82
91
81
82
42
3C
ENDCHAR
STARTCHAR 2640
ENCODING 9792
SWIDTH 750 0
DWIDTH 9 0
BBX 7 11 1 -2
BITMAP
38
44
82
82
44
38
10
10
7C
10
10
ENDCHAR
STARTCHAR 2642
ENCODING 9794
SWIDTH 750 0
DWIDTH 9 0
BBX 7 11 1 -2
BITMAP
0C
16
0A
08
10
78
88
84
84
88
70
ENDCHAR
STARTCHAR 2E81
ENCODING 11905
SWIDTH 1000 0
DWIDTH 12 0
BBX 11 12 0 -2
BITMAP
0060
3F80
4000
4000
4000
4000
4000
4000
4000
4000
4000
8000
ENDCHAR
STARTCHAR 2E84
ENCODING 11908
SWIDTH 1000 0
DWIDTH 12 0
BBX 11 10 1 -1
BITMAP
FF00
0100
0100
0100
0100
0100
0080
00A0
00A0
0040
ENDCHAR
STARTCHAR 2E88
ENCODING 11912
SWIDTH 1000 0
DWIDTH 12 0
BBX 9 5 0 5
BITMAP
0800
1000
3F80
6180
C300
ENDCHAR
STARTCHAR 2E8B
ENCODING 11915
SWIDTH 1000 0
DWIDTH 12 0
BBX 9 7 2 -1
BITMAP
FE00
8200
8200
9C80
8080
8080
FF00
ENDCHAR
STARTCHAR 2E8C
ENCODING 11916
SWIDTH 1000 0
DWIDTH 12 0
BBX 10 4 1 6
BITMAP
0800
8840
4880
2900
ENDCHAR
STARTCHAR 2E97
ENCODING 11927
SWIDTH 1000 0
DWIDTH 12 0
BBX 11 6 1 -1
BITMAP
0800
0880
4A40
CA40
8920
3800
ENDCHAR
STARTCHAR 2EA7
ENCODING 11943
SWIDTH 1000 0
DWIDTH 12 0
BBX 12 6 0 4
BITMAP
1200
2200
3FE0
4200
0200
FFF0
ENDCHAR
STARTCHAR 2EAA
ENCODING 11946
SWIDTH 1000 0
DWIDTH 12 0
BBX 6 10 0 -1
BITMAP
78
08
10
50
58
50
50
50
7C
C0
ENDCHAR
STARTCHAR 2EAE
ENCODING 11950
SWIDTH 1000 0
DWIDTH 12 0
BBX 12 4 0 6
BITMAP
2100
3DF0
5240
8C40
ENDCHAR
STARTCHAR 2EB3
ENCODING 11955
SWIDTH 1000 0
DWIDTH 12 0
BBX 10 5 1 4
BITMAP
FFC0
8040
9240
2200
C3C0
ENDCHAR
STARTCHAR 2EB6
ENCODING 11958
SWIDTH 1000 0
DWIDTH 12 0
BBX 12 9 0 1
BITMAP
1080
7FE0
0400
7FE0
0800
FFF0
1000
2000
C000
ENDCHAR
STARTCHAR 2EB7
ENCODING 11959
SWIDTH 1000 0
DWIDTH 12 0
BBX 12 7 0 3
BITMAP
1080
0900
7FE0
0400
7FE0
0400
FFF0
ENDCHAR
STARTCHAR 2EBB
ENCODING 11963
SWIDTH 1000 0
DWIDTH 12 0
BBX 12 8 0 2
BITMAP
0400
7FC0
0440
FFF0
0440
7FC0
0400
7FE0
ENDCHAR
STARTCHAR 2ECA
ENCODING 11978
SWIDTH 1000 0
DWIDTH 12 0
BBX 6 10 0 -1
BITMAP
78
48
48
78
10
58
50
50
5C
E0
ENDCHAR
STARTCHAR 2FF0
ENCODING 12272
SWIDTH 1000 0
DWIDTH 12 0
BBX 10 10 1 -1
BITMAP
BF40
0000
0000
0000
0000
0000
0000
0000
0000
BF40
ENDCHAR
STARTCHAR 2FF1
ENCODING 12273
SWIDTH 1000 0
DWIDTH 12 0
BBX 10 10 1 -1
BITMAP
BF40
0000
0000
0000
0000
7E80
0000
0000
0000
BF40
ENDCHAR
STARTCHAR 2FF2
ENCODING 12274
SWIDTH 1000 0
DWIDTH 12 0
BBX 10 10 1 -1
BITMAP
BF40
0000
1200
0000
1200
1200
0000
1200
0000
BF40
ENDCHAR
STARTCHAR 2FF3
ENCODING 12275
SWIDTH 1000 0
DWIDTH 12 0
BBX 10 10 1 -1
BITMAP
BF40
0000
0000
7E80
0000
0000
7E80
0000
0000
BF40
ENDCHAR
STARTCHAR 2FF4
ENCODING 12276
SWIDTH 1000 0
DWIDTH 12 0
BBX 10 10 1 -1
BITMAP
BF40
0000
3F00
0000
2100
2100
0000
3F00
0000
BF40
ENDCHAR
STARTCHAR 2FF5
ENCODING 12277
SWIDTH 1000 0
DWIDTH 12 0
BBX 10 10 1 -1
BITMAP
BF40
0000
0000
3F00
0000
2100
0000
2100
0000
BF40
ENDCHAR
STARTCHAR 2FF6
ENCODING 12278
SWIDTH 1000 0
DWIDTH 12 0
BBX 10 10 1 -1
BITMAP
BF40
0000
2100
0000
2100
0000
3F00
0000
0000
BF40
ENDCHAR
STARTCHAR 2FF7
ENCODING 12279
SWIDTH 1000 0
DWIDTH 12 0
BBX 10 10 1 -1
BITMAP
BF40
0000
3A80
0000
2000
0000
3A80
0000
0000
BF40
ENDCHAR
STARTCHAR 2FF8
ENCODING 12280
SWIDTH 1000 0
DWIDTH 12 0
BBX 10 10 1 -1
BITMAP
BF40
0000
0000
0A80
0000
0000
0000
0000
0000
BF40
ENDCHAR
STARTCHAR 2FF9
ENCODING 12281
SWIDTH 1000 0
DWIDTH 12 0
BBX 10 10 1 -1
BITMAP
BF40
0000
0000
5400
0000
0000
0000
0000
0000
BF40
ENDCHAR
STARTCHAR 2FFA
ENCODING 12282
SWIDTH 1000 0
DWIDTH 12 0
BBX 10 10 1 -1
BITMAP
BF40
0000
0000
0000
0000
0000
0A80
0000
0000
BF40
ENDCHAR
STARTCHAR 2FFB
ENCODING 12283
SWIDTH 1000 0
DWIDTH 12 0
BBX 10 10 1 -1
BITMAP
AF00
0000
3D40
2100
0000
2100
0000
AF00
0000
3D40
ENDCHAR
STARTCHAR 3000
ENCODING 12288
SWIDTH 1000 0
DWIDTH 12 0
BBX 0 0 0 0
BITMAP
ENDCHAR
STARTCHAR 3001
ENCODING 12289
SWIDTH 1000 0
DWIDTH 12 0
BBX 2 2 1 -1
BITMAP
80
40
ENDCHAR
STARTCHAR 3002
ENCODING 12290
SWIDTH 1000 0
DWIDTH 12 0
BBX 3 3 1 -1
BITMAP
C0
A0
C0
ENDCHAR
STARTCHAR 3003
ENCODING 12291
SWIDTH 1000 0
DWIDTH 12 0
BBX 4 5 4 2
BITMAP
50
50
60
A0
A0
ENDCHAR
STARTCHAR 3004
ENCODING 12292
SWIDTH 1000 0
DWIDTH 12 0
BBX 10 11 1 -1
BITMAP
1900
6280
4240
8A40
8640
8840
9840
A840
D0C0
6980
3E00
ENDCHAR
STARTCHAR 3005
ENCODING 12293
SWIDTH 1000 0
DWIDTH 12 0
BBX 7 7 2 1
BITMAP
10
30
3E
46
EC
98
04
ENDCHAR
STARTCHAR 3006
ENCODING 12294
SWIDTH 1000 0
DWIDTH 12 0
BBX 8 7 2 1
BITMAP
01
36
5C
58
E4
C0
80
ENDCHAR
STARTCHAR 3007
ENCODING 12295
SWIDTH 1000 0
DWIDTH 12 0
BBX 9 10 2 -1
BITMAP
3E00
6300
8080
8080
8080
8080
8080
C080
6300
3E00
ENDCHAR
STARTCHAR 3008
ENCODING 12296
SWIDTH 1000 0
DWIDTH 12 0
BBX 4 12 7 -2
BITMAP
30
20
20
40
40
80
80
40
40
20
20
30
ENDCHAR
STARTCHAR 3009
ENCODING 12297
SWIDTH 1000 0
DWIDTH 12 0
BBX 3 11 2 -2
BITMAP
80
80
80
40
40
20
40
40
80
80
80
ENDCHAR
STARTCHAR 300A
ENCODING 12298
SWIDTH 1000 0
DWIDTH 12 0
BBX 5 11 6 -2
BITMAP
28
30
50
50
A0
A0
A0
50
50
30
28
ENDCHAR
STARTCHAR 300B
ENCODING 12299
SWIDTH 1000 0
DWIDTH 12 0
BBX 5 11 1 -2
BITMAP
A0
60
50
50
28
28
28
50
50
60
A0
ENDCHAR
STARTCHAR 300C
ENCODING 12300
SWIDTH 1000 0
DWIDTH 12 0
BBX 3 12 8 -2
BITMAP
E0
80
80
80
80
80
80
80
80
80
80
80
ENDCHAR
STARTCHAR 300D
ENCODING 12301
SWIDTH 1000 0
DWIDTH 12 0
BBX 3 12 1 -2
BITMAP
20
20
20
20
20
20
20
20
20
20
20
E0
ENDCHAR
STARTCHAR 300E
ENCODING 12302
SWIDTH 1000 0
DWIDTH 12 0
BBX 4 12 7 -2
BITMAP
F0
B0
C0
C0
C0
C0
C0
C0
C0
C0
C0
C0
ENDCHAR
STARTCHAR 300F
ENCODING 12303
SWIDTH 1000 0
DWIDTH 12 0
BBX 4 12 1 -2
BITMAP
30
50
50
50
50
50
50
50
50
50
D0
F0
ENDCHAR
STARTCHAR 3010
ENCODING 12304
SWIDTH 1000 0
DWIDTH 12 0
BBX 3 11 7 -2
BITMAP
E0
C0
C0
80
80
80
80
80
C0
C0
E0
ENDCHAR
STARTCHAR 3011
ENCODING 12305
SWIDTH 1000 0
DWIDTH 12 0
BBX 3 11 2 -2
BITMAP
E0
60
60
20
20
20
20
20
60
60
E0
ENDCHAR
STARTCHAR 3012
ENCODING 12306
SWIDTH 1000 0
DWIDTH 12 0
BBX 10 10 1 -1
BITMAP
FFC0
0000
0000
FFC0
0800
0800
0800
0800
0800
0800
ENDCHAR
STARTCHAR 3013
ENCODING 12307
SWIDTH 1000 0
DWIDTH 12 0
BBX 10 9 1 0
BITMAP
FFC0
FFC0
FFC0
0000
0000
0000
FFC0
FFC0
FFC0
ENDCHAR
STARTCHAR 3014
ENCODING 12308
SWIDTH 1000 0
DWIDTH 12 0
BBX 3 12 8 -2
BITMAP
60
C0
80
80
80
80
80
80
80
80
80
60
ENDCHAR
STARTCHAR 3015
ENCODING 12309
SWIDTH 1000 0
DWIDTH 12 0
BBX 3 12 1 -2
BITMAP
C0
60
20
20
20
20
20
20
20
20
20
C0
ENDCHAR
STARTCHAR 3016
ENCODING 12310
SWIDTH 1000 0
DWIDTH 12 0
BBX 4 12 7 -2
BITMAP
F0
A0
A0
A0
C0
C0
C0
C0
C0
A0
A0
F0
ENDCHAR
STARTCHAR 3017
ENCODING 12311
SWIDTH 1000 0
DWIDTH 12 0
BBX 4 12 1 -2
BITMAP
F0
50
50
50
30
30
30
30
50
50
50
F0
ENDCHAR
STARTCHAR 3018
ENCODING 12312
SWIDTH 1000 0
DWIDTH 12 0
BBX 3 12 8 -2
BITMAP
20
C0
C0
C0
C0
C0
C0
C0
C0
C0
C0
20
ENDCHAR
STARTCHAR 3019
ENCODING 12313
SWIDTH 1000 0
DWIDTH 12 0
BBX 3 12 1 -2
BITMAP
80
60
60
60
60
60
60
60
60
60
60
80
ENDCHAR
STARTCHAR 301A
ENCODING 12314
SWIDTH 1000 0
DWIDTH 12 0
BBX 3 12 8 -2
BITMAP
E0
C0
C0
C0
C0
C0
C0
C0
C0
C0
C0
E0
ENDCHAR
STARTCHAR 301B
ENCODING 12315
SWIDTH 1000 0
DWIDTH 12 0
BBX 3 12 1 -2
BITMAP
E0
60
60
60
60
60
60
60
60
60
60
E0
ENDCHAR
STARTCHAR 301C
ENCODING 12316
SWIDTH 1000 0
DWIDTH 12 0
BBX 8 3 2 3
BITMAP
87
99
60
ENDCHAR
STARTCHAR 301D
ENCODING 12317
SWIDTH 1000 0
DWIDTH 12 0
BBX 4 3 7 7
BITMAP
A0
60
70
ENDCHAR
STARTCHAR 301E
ENCODING 12318
SWIDTH 1000 0
DWIDTH 12 0
BBX 4 3 1 7
BITMAP
50
60
E0
ENDCHAR
STARTCHAR 301F
ENCODING 12319
SWIDTH 1000 0
DWIDTH 12 0
BBX 4 3 1 -1
BITMAP
50
60
E0
ENDCHAR
STARTCHAR 3020
ENCODING 12320
SWIDTH 1000 0
DWIDTH 12 0
BBX 10 8 1 0
BITMAP
3F00
3F00
8480
B740
B780
6280
7E80
3F00
ENDCHAR
STARTCHAR 3021
ENCODING 12321
SWIDTH 1000 0
DWIDTH 12 0
BBX 1 8 6 0
BITMAP
80
80
80
80
80
80
80
80
ENDCHAR
STARTCHAR 3022
ENCODING 12322
SWIDTH 1000 0
DWIDTH 12 0
BBX 4 8 4 0
BITMAP
10
90
90
90
90
90
90
10
ENDCHAR
STARTCHAR 3023
ENCODING 12323
SWIDTH 1000 0
DWIDTH 12 0
BBX 6 8 3 0
BITMAP
04
94
94
94
94
94
94
04
ENDCHAR
STARTCHAR 3024
ENCODING 12324
SWIDTH 1000 0
DWIDTH 12 0
BBX 7 7 2 1
BITMAP
42
24
1C
08
1C
64
C2
ENDCHAR
STARTCHAR 3025
ENCODING 12325
SWIDTH 1000 0
DWIDTH 12 0
BBX 6 8 3 0
BITMAP
48
50
A0
78
24
48
48
30
ENDCHAR
STARTCHAR 3026
ENCODING 12326
SWIDTH 1000 0
DWIDTH 12 0
BBX 8 5 2 2
BITMAP
08
08
08
08
FF
ENDCHAR
STARTCHAR 3027
ENCODING 12327
SWIDTH 1000 0
DWIDTH 12 0
BBX 8 6 2 2
BITMAP
08
08
08
FF
00
7E
ENDCHAR
STARTCHAR 3028
ENCODING 12328
SWIDTH 1000 0
DWIDTH 12 0
BBX 8 7 2 1
BITMAP
08
08
FF
00
7E
00
7E
ENDCHAR
STARTCHAR 3029
ENCODING 12329
SWIDTH 1000 0
DWIDTH 12 0
BBX 7 7 3 1
BITMAP
40
7E
88
F8
18
68
80
ENDCHAR
STARTCHAR 302A
ENCODING 12330
SWIDTH 1000 0
DWIDTH 12 0
BBX 3 3 2 0
BITMAP
E0
A0
E0
ENDCHAR
STARTCHAR 302B
ENCODING 12331
SWIDTH 1000 0
DWIDTH 12 0
BBX 3 3 2 5
BITMAP
E0
A0
E0
ENDCHAR
STARTCHAR 302C
ENCODING 12332
SWIDTH 1000 0
DWIDTH 12 0
BBX 3 3 7 5
BITMAP
E0
A0
E0
ENDCHAR
STARTCHAR 302D
ENCODING 12333
SWIDTH 1000 0
DWIDTH 12 0
BBX 3 3 7 0
BITMAP
E0
A0
E0
ENDCHAR
STARTCHAR 302E
ENCODING 12334
SWIDTH 1000 0
DWIDTH 12 0
BBX 1 2 2 3
BITMAP
80
80
ENDCHAR
STARTCHAR 302F
ENCODING 12335
SWIDTH 1000 0
DWIDTH 12 0
BBX 1 4 2 2
BITMAP
80
80
80
80
ENDCHAR
STARTCHAR 3030
ENCODING 12336
SWIDTH 1000 0
DWIDTH 12 0
BBX 10 2 1 3
BITMAP
E640
B9C0
ENDCHAR
STARTCHAR 3031
ENCODING 12337
SWIDTH 1000 0
DWIDTH 12 0
BBX 5 10 3 -1
BITMAP
08
10
20
40
80
C0
60
20
10
08
ENDCHAR
STARTCHAR 3032
ENCODING 12338
SWIDTH 1000 0
DWIDTH 12 0
BBX 7 10 3 -1
BITMAP
08
12
2A
44
80
C0
60
20
10
08
ENDCHAR
STARTCHAR 3033
ENCODING 12339
SWIDTH 1000 0
DWIDTH 12 0
BBX 7 9 2 0
BITMAP
02
04
0C
08
10
10
20
40
80
ENDCHAR
STARTCHAR 3034
ENCODING 12340
SWIDTH 1000 0
DWIDTH 12 0
BBX 9 9 2 0
BITMAP
0200
0400
0D00
0A80
1200
1000
2000
4000
8000
ENDCHAR
STARTCHAR 3035
ENCODING 12341
SWIDTH 1000 0
DWIDTH 12 0
BBX 6 10 3 -1
BITMAP
80
40
40
20
20
10
10
08
08
04
ENDCHAR
STARTCHAR 3036
ENCODING 12342
SWIDTH 1000 0
DWIDTH 12 0
BBX 10 11 1 -1
BITMAP
1E00
6180
4080
BF40
BF40
8440
8440
8440
44C0
6180
1E00
ENDCHAR
STARTCHAR 3037
ENCODING 12343
SWIDTH 1000 0
DWIDTH 12 0
BBX 10 10 1 -1
BITMAP
4A40
4A40
3280
3180
3180
3100
3180
5280
4A80
8C40
ENDCHAR
STARTCHAR 3038
ENCODING 12344
SWIDTH 1000 0
DWIDTH 12 0
BBX 10 11 1 -1
BITMAP
0400
0400
0400
0400
FFC0
0400
0400
0400
0400
0400
0400
ENDCHAR
STARTCHAR 3039
ENCODING 12345
SWIDTH 1000 0
DWIDTH 12 0
BBX 10 8 1 0
BITMAP
2100
2100
2100
FFC0
2100
2100
2100
2100
ENDCHAR
STARTCHAR 303A
ENCODING 12346
SWIDTH 1000 0
DWIDTH 12 0
BBX 10 10 1 -1
BITMAP
2500
2500
2500
2500
FFC0
2500
2500
4500
4500
8100
ENDCHAR
STARTCHAR 303B
ENCODING 12347
SWIDTH 1000 0
DWIDTH 12 0
BBX 2 5 5 2
BITMAP
80
40
C0
80
40
ENDCHAR
STARTCHAR 303C
ENCODING 12348
SWIDTH 1000 0
DWIDTH 12 0
BBX 8 8 2 0
BITMAP
FF
83
85
89
91
A1
C1
FF
ENDCHAR
STARTCHAR 303D
ENCODING 12349
SWIDTH 1000 0
DWIDTH 12 0
BBX 7 8 2 0
BITMAP
60
B8
08
04
04
04
02
02
ENDCHAR
STARTCHAR 303E
ENCODING 12350
SWIDTH 1000 0
DWIDTH 12 0
BBX 10 10 1 -1
BITMAP
BF40
0000
1800
2600
1E00
0400
1E00
0800
0000
BF40
ENDCHAR
STARTCHAR 303F
ENCODING 12351
SWIDTH 1000 0
DWIDTH 12 0
BBX 6 11 3 -1
BITMAP
FC
CC
CC
B4
B4
B4
B4
B4
CC
CC
FC
ENDCHAR
STARTCHAR 3041
ENCODING 12353
SWIDTH 1000 0
DWIDTH 12 0
BBX 8 9 2 -1
BITMAP
20
2C
F0
28
3E
6B
79
92
74
ENDCHAR
STARTCHAR 3042
ENCODING 12354
SWIDTH 1000 0
DWIDTH 12 0
BBX 10 11 1 -1
BITMAP
1000
1300
7C00
1200
1F00
7480
5440
8840
9840
7880
0300
ENDCHAR
STARTCHAR 3043
ENCODING 12355
SWIDTH 1000 0
DWIDTH 12 0
BBX 7 7 3 -1
BITMAP
C0
84
84
82
82
A2
60
ENDCHAR
STARTCHAR 3044
ENCODING 12356
SWIDTH 1000 0
DWIDTH 12 0
BBX 9 8 2 0
BITMAP
8000
8200
8100
8100
8100
A080
A080
C000
ENDCHAR
STARTCHAR 3045
ENCODING 12357
SWIDTH 1000 0
DWIDTH 12 0
BBX 5 8 3 -1
BITMAP
60
18
00
78
C8
08
18
20
ENDCHAR
STARTCHAR 3046
ENCODING 12358
SWIDTH 1000 0
DWIDTH 12 0
BBX 6 10 3 -1
BITMAP
60
38
00
7C
84
04
04
04
18
60
ENDCHAR
STARTCHAR 3047
ENCODING 12359
SWIDTH 1000 0
DWIDTH 12 0
BBX 7 6 3 0
BITMAP
70
18
F0
30
50
8E
ENDCHAR
STARTCHAR 3048
ENCODING 12360
SWIDTH 1000 0
DWIDTH 12 0
BBX 9 9 2 0
BITMAP
7C00
0000
0C00
FC00
1800
3C00
6400
C400
8780
ENDCHAR
STARTCHAR 3049
ENCODING 12361
SWIDTH 1000 0
DWIDTH 12 0
BBX 8 8 2 -1
BITMAP
20
3C
E2
21
7C
62
AA
6E
ENDCHAR
STARTCHAR 304A
ENCODING 12362
SWIDTH 1000 0
DWIDTH 12 0
BBX 10 11 1 -1
BITMAP
1000
1000
1D00
7080
1040
1F00
7080
5040
9040
9440
6380
ENDCHAR
STARTCHAR 304B
ENCODING 12363
SWIDTH 1000 0
DWIDTH 12 0
BBX 10 9 1 0
BITMAP
1000
1000
2100
FD00
2480
4480
4440
A400
9800
ENDCHAR
STARTCHAR 304C
ENCODING 12364
SWIDTH 1000 0
DWIDTH 12 0
BBX 10 9 1 0
BITMAP
1080
1140
2180
FD00
2480
4480
4440
A400
9800
ENDCHAR
STARTCHAR 304D
ENCODING 12365
SWIDTH 1000 0
DWIDTH 12 0
BBX 8 10 2 -1
BITMAP
10
16
F8
0F
FC
04
3E
42
40
7E
ENDCHAR
STARTCHAR 304E
ENCODING 12366
SWIDTH 1000 0
DWIDTH 12 0
BBX 9 11 2 -1
BITMAP
1100
1180
1700
F800
0F00
FC00
0400
3E00
4200
4000
7E00
ENDCHAR
STARTCHAR 304F
ENCODING 12367
SWIDTH 1000 0
DWIDTH 12 0
BBX 5 11 3 -1
BITMAP
08
18
30
20
40
80
40
20
10
08
08
ENDCHAR
STARTCHAR 3050
ENCODING 12368
SWIDTH 1000 0
DWIDTH 12 0
BBX 8 10 3 -1
BITMAP
08
12
35
62
C0
80
60
30
18
08
ENDCHAR
STARTCHAR 3051
ENCODING 12369
SWIDTH 1000 0
DWIDTH 12 0
BBX 9 10 2 -1
BITMAP
0400
8400
8380
BE00
8200
8200
8400
8400
8400
0800
ENDCHAR
STARTCHAR 3052
ENCODING 12370
SWIDTH 1000 0
DWIDTH 12 0
BBX 9 11 2 -1
BITMAP
0580
8580
8500
8380
BE00
8200
8200
8400
8400
8400
0800
ENDCHAR
STARTCHAR 3053
ENCODING 12371
SWIDTH 1000 0
DWIDTH 12 0
BBX 8 8 2 0
BITMAP
7E
00
00
00
80
80
80
7F
ENDCHAR
STARTCHAR 3054
ENCODING 12372
SWIDTH 1000 0
DWIDTH 12 0
BBX 10 10 2 0
BITMAP
0080
0140
7E80
0000
0000
0000
8000
8000
8000
7F00
ENDCHAR
STARTCHAR 3055
ENCODING 12373
SWIDTH 1000 0
DWIDTH 12 0
BBX 8 9 2 0
BITMAP
20
11
1E
E8
06
3F
40
40
3E
ENDCHAR
STARTCHAR 3056
ENCODING 12374
SWIDTH 1000 0
DWIDTH 12 0
BBX 9 10 2 0
BITMAP
0100
3280
1300
3C00
CC00
0600
3F00
4000
4000
3E00
ENDCHAR
STARTCHAR 3057
ENCODING 12375
SWIDTH 1000 0
DWIDTH 12 0
BBX 7 9 3 0
BITMAP
80
80
80
80
80
80
82
84
78
ENDCHAR
STARTCHAR 3058
ENCODING 12376
SWIDTH 1000 0
DWIDTH 12 0
BBX 7 9 3 0
BITMAP
88
94
88
80
80
80
82
84
78
ENDCHAR
STARTCHAR 3059
ENCODING 12377
SWIDTH 1000 0
DWIDTH 12 0
BBX 10 11 1 -1
BITMAP
0400
0400
0400
FFC0
0400
1C00
2400
1C00
0400
0800
1000
ENDCHAR
STARTCHAR 305A
ENCODING 12378
SWIDTH 1000 0
DWIDTH 12 0
BBX 10 11 1 -1
BITMAP
0580
04C0
0400
FFC0
0400
1C00
2400
1C00
0400
0800
1000
ENDCHAR
STARTCHAR 305B
ENCODING 12379
SWIDTH 1000 0
DWIDTH 12 0
BBX 10 10 1 -1
BITMAP
0100
2100
2100
FFC0
2100
2100
2E00
2000
2000
1F00
ENDCHAR
STARTCHAR 305C
ENCODING 12380
SWIDTH 1000 0
DWIDTH 12 0
BBX 11 11 1 -1
BITMAP
0140
21A0
2140
2100
FFC0
2100
2100
2E00
2000
2000
1F00
ENDCHAR
STARTCHAR 305D
ENCODING 12381
SWIDTH 1000 0
DWIDTH 12 0
BBX 10 10 1 -1
BITMAP
0600
3E00
0400
1800
31C0
FE00
0800
1000
1800
0600
ENDCHAR
STARTCHAR 305E
ENCODING 12382
SWIDTH 1000 0
DWIDTH 12 0
BBX 10 10 1 -1
BITMAP
07C0
3EC0
0480
1800
31C0
FE00
0800
1000
1800
0600
ENDCHAR
STARTCHAR 305F
ENCODING 12383
SWIDTH 1000 0
DWIDTH 12 0
BBX 10 11 1 -1
BITMAP
1000
1000
1400
F800
2000
2380
2400
2000
4000
4800
87C0
ENDCHAR
STARTCHAR 3060
ENCODING 12384
SWIDTH 1000 0
DWIDTH 12 0
BBX 10 11 1 -1
BITMAP
1080
1140
14C0
F880
2000
2380
2400
2000
4000
4800
87C0
ENDCHAR
STARTCHAR 3061
ENCODING 12385
SWIDTH 1000 0
DWIDTH 12 0
BBX 9 11 1 -1
BITMAP
1000
1000
1000
FF80
2000
2000
3F00
2080
0080
0180
0E00
ENDCHAR
STARTCHAR 3062
ENCODING 12386
SWIDTH 1000 0
DWIDTH 12 0
BBX 10 11 1 -1
BITMAP
1080
1140
10C0
FF80
2000
2000
3F00
2080
0080
0180
0E00
ENDCHAR
STARTCHAR 3063
ENCODING 12387
SWIDTH 1000 0
DWIDTH 12 0
BBX 8 6 2 0
BITMAP
3E
C3
01
01
06
1C
ENDCHAR
STARTCHAR 3064
ENCODING 12388
SWIDTH 1000 0
DWIDTH 12 0
BBX 10 7 1 0
BITMAP
3F00
C080
0040
0040
0080
0180
1E00
ENDCHAR
STARTCHAR 3065
ENCODING 12389
SWIDTH 1000 0
DWIDTH 12 0
BBX 11 10 1 0
BITMAP
0040
00A0
0080
3F00
C080
0040
0040
0080
0180
1E00
ENDCHAR
STARTCHAR 3066
ENCODING 12390
SWIDTH 1000 0
DWIDTH 12 0
BBX 10 8 1 0
BITMAP
FFC0
0400
0800
1000
1000
1000
0C00
0700
ENDCHAR
STARTCHAR 3067
ENCODING 12391
SWIDTH 1000 0
DWIDTH 12 0
BBX 10 8 1 0
BITMAP
FFC0
0480
0940
1080
1000
1000
0C00
0700
ENDCHAR
STARTCHAR 3068
ENCODING 12392
SWIDTH 1000 0
DWIDTH 12 0
BBX 7 10 2 -1
BITMAP
20
20
20
26
38
60
80
80
80
7E
ENDCHAR
STARTCHAR 3069
ENCODING 12393
SWIDTH 1000 0
DWIDTH 12 0
BBX 9 10 2 -1
BITMAP
2100
2280
2100
2600
3800
6000
8000
8000
8000
7E00
ENDCHAR
STARTCHAR 306A
ENCODING 12394
SWIDTH 1000 0
DWIDTH 12 0
BBX 10 12 1 -1
BITMAP
1000
1000
1C00
F100
2080
2240
4200
4200
9E00
1380
1280
1C00
ENDCHAR
STARTCHAR 306B
ENCODING 12395
SWIDTH 1000 0
DWIDTH 12 0
BBX 9 9 2 0
BITMAP
8000
8000
9F00
8000
8000
8000
9000
8F80
8000
ENDCHAR
STARTCHAR 306C
ENCODING 12396
SWIDTH 1000 0
DWIDTH 12 0
BBX 10 11 1 -1
BITMAP
0400
4400
4400
5F00
2480
6840
A840
9840
9340
BCC0
6340
ENDCHAR
STARTCHAR 306D
ENCODING 12397
SWIDTH 1000 0
DWIDTH 12 0
BBX 10 10 1 -1
BITMAP
2000
2000
7700
B880
7080
6080
A780
24C0
2740
2000
ENDCHAR
STARTCHAR 306E
ENCODING 12398
SWIDTH 1000 0
DWIDTH 12 0
BBX 10 9 1 -1
BITMAP
1F00
2880
4840
8840
8840
8840
5080
7180
0200
ENDCHAR
STARTCHAR 306F
ENCODING 12399
SWIDTH 1000 0
DWIDTH 12 0
BBX 10 10 1 -1
BITMAP
4200
4200
9FC0
8200
8200
8200
8F00
9280
9240
4C00
ENDCHAR
STARTCHAR 3070
ENCODING 12400
SWIDTH 1000 0
DWIDTH 12 0
BBX 10 11 1 -1
BITMAP
0040
42C0
42C0
9FC0
8200
8200
8200
8F00
9280
9240
4C00
ENDCHAR
STARTCHAR 3071
ENCODING 12401
SWIDTH 1000 0
DWIDTH 12 0
BBX 10 11 1 -1
BITMAP
00C0
4340
42C0
9FC0
8200
8200
8200
8F00
9280
9240
4C00
ENDCHAR
STARTCHAR 3072
ENCODING 12402
SWIDTH 1000 0
DWIDTH 12 0
BBX 10 10 1 -1
BITMAP
3200
F200
2100
2100
4180
41C0
4140
4200
2200
1C00
ENDCHAR
STARTCHAR 3073
ENCODING 12403
SWIDTH 1000 0
DWIDTH 12 0
BBX 10 11 1 -1
BITMAP
0080
1140
7280
E300
2100
4180
4180
4140
4200
2200
1C00
ENDCHAR
STARTCHAR 3074
ENCODING 12404
SWIDTH 1000 0
DWIDTH 12 0
BBX 10 11 1 -1
BITMAP
00C0
1340
72C0
E100
2100
4180
41C0
4140
4200
2200
1C00
ENDCHAR
STARTCHAR 3075
ENCODING 12405
SWIDTH 1000 0
DWIDTH 12 0
BBX 10 10 1 -1
BITMAP
1000
0C00
0000
1000
1900
2480
4240
C240
A200
1C00
ENDCHAR
STARTCHAR 3076
ENCODING 12406
SWIDTH 1000 0
DWIDTH 12 0
BBX 10 10 1 -1
BITMAP
1180
0CC0
0000
1000
1900
2480
4240
C240
A200
1C00
ENDCHAR
STARTCHAR 3077
ENCODING 12407
SWIDTH 1000 0
DWIDTH 12 0
BBX 10 10 1 -1
BITMAP
1180
0D40
0180
1000
1800
2500
42C0
C240
A200
1C00
ENDCHAR
STARTCHAR 3078
ENCODING 12408
SWIDTH 1000 0
DWIDTH 12 0
BBX 10 5 1 2
BITMAP
1800
2400
4300
8180
0040
ENDCHAR
STARTCHAR 3079
ENCODING 12409
SWIDTH 1000 0
DWIDTH 12 0
BBX 10 7 1 2
BITMAP
0080
0140
1880
2400
4300
8180
0040
ENDCHAR
STARTCHAR 307A
ENCODING 12410
SWIDTH 1000 0
DWIDTH 12 0
BBX 10 7 1 2
BITMAP
0180
0140
1980
2400
4300
8180
0040
ENDCHAR
STARTCHAR 307B
ENCODING 12411
SWIDTH 1000 0
DWIDTH 12 0
BBX 10 10 1 -1
BITMAP
4000
9F80
8200
8200
9FC0
8200
8E00
9380
9240
8C00
ENDCHAR
STARTCHAR 307C
ENCODING 12412
SWIDTH 1000 0
DWIDTH 12 0
BBX 10 11 1 -1
BITMAP
0040
40C0
9F80
8200
8200
BFC0
8200
9E00
9380
9240
9C00
ENDCHAR
STARTCHAR 307D
ENCODING 12413
SWIDTH 1000 0
DWIDTH 12 0
BBX 10 11 1 -1
BITMAP
40C0
5F40
82C0
8200
BFC0
8200
8200
8F00
9380
9240
8C00
ENDCHAR
STARTCHAR 307E
ENCODING 12414
SWIDTH 1000 0
DWIDTH 12 0
BBX 10 10 1 -1
BITMAP
0400
0400
FFC0
0400
7F80
0400
3C00
4700
4C80
3800
ENDCHAR
STARTCHAR 307F
ENCODING 12415
SWIDTH 1000 0
DWIDTH 12 0
BBX 10 10 1 -1
BITMAP
0C00
3400
0880
0880
7D00
9380
A140
E200
0200
0400
ENDCHAR
STARTCHAR 3080
ENCODING 12416
SWIDTH 1000 0
DWIDTH 12 0
BBX 10 10 1 -1
BITMAP
1000
1000
FD00
10C0
7040
9000
A100
E080
2080
1F00
ENDCHAR
STARTCHAR 3081
ENCODING 12417
SWIDTH 1000 0
DWIDTH 12 0
BBX 10 10 1 -1
BITMAP
0400
4400
3F00
2480
6840
5840
9840
9840
6980
0200
ENDCHAR
STARTCHAR 3082
ENCODING 12418
SWIDTH 1000 0
DWIDTH 12 0
BBX 8 10 2 -1
BITMAP
10
20
3C
E0
20
3D
E1
21
31
1E
ENDCHAR
STARTCHAR 3083
ENCODING 12419
SWIDTH 1000 0
DWIDTH 12 0
BBX 8 8 2 -1
BITMAP
48
48
5E
71
A9
26
10
10
ENDCHAR
STARTCHAR 3084
ENCODING 12420
SWIDTH 1000 0
DWIDTH 12 0
BBX 10 10 1 -1
BITMAP
0400
2400
2780
3840
E040
9440
1380
1000
0800
0800
ENDCHAR
STARTCHAR 3085
ENCODING 12421
SWIDTH 1000 0
DWIDTH 12 0
BBX 7 9 3 -2
BITMAP
08
BC
AA
CA
AA
BA
9C
90
30
ENDCHAR
STARTCHAR 3086
ENCODING 12422
SWIDTH 1000 0
DWIDTH 12 0
BBX 9 11 2 -1
BITMAP
0400
8400
9F00
A480
C480
C480
A480
9C80
8F00
0800
1800
ENDCHAR
STARTCHAR 3087
ENCODING 12423
SWIDTH 1000 0
DWIDTH 12 0
BBX 7 8 3 -1
BITMAP
10
10
1C
10
70
9C
92
60
ENDCHAR
STARTCHAR 3088
ENCODING 12424
SWIDTH 1000 0
DWIDTH 12 0
BBX 9 11 2 -1
BITMAP
0800
0800
0800
0F00
0800
0800
0800
7800
8F00
9980
7000
ENDCHAR
STARTCHAR 3089
ENCODING 12425
SWIDTH 1000 0
DWIDTH 12 0
BBX 8 10 2 -1
BITMAP
60
18
00
40
9E
A1
C1
81
02
3C
ENDCHAR
STARTCHAR 308A
ENCODING 12426
SWIDTH 1000 0
DWIDTH 12 0
BBX 6 11 3 -1
BITMAP
44
84
84
84
A4
A4
C4
04
08
18
20
ENDCHAR
STARTCHAR 308B
ENCODING 12427
SWIDTH 1000 0
DWIDTH 12 0
BBX 8 10 2 -1
BITMAP
7C
0C
18
3E
63
81
31
29
27
1C
ENDCHAR
STARTCHAR 308C
ENCODING 12428
SWIDTH 1000 0
DWIDTH 12 0
BBX 11 11 1 -1
BITMAP
1000
2000
2000
7700
A900
3100
6100
E120
A140
2180
2000
ENDCHAR
STARTCHAR 308D
ENCODING 12429
SWIDTH 1000 0
DWIDTH 12 0
BBX 8 10 2 -1
BITMAP
7C
0C
18
30
7E
C3
81
01
02
3C
ENDCHAR
STARTCHAR 308E
ENCODING 12430
SWIDTH 1000 0
DWIDTH 12 0
BBX 8 8 2 -1
BITMAP
20
20
EE
31
61
E1
A2
2C
ENDCHAR
STARTCHAR 308F
ENCODING 12431
SWIDTH 1000 0
DWIDTH 12 0
BBX 10 11 1 -1
BITMAP
1000
1000
1000
F780
1840
3040
7040
5040
9080
1300
1000
ENDCHAR
STARTCHAR 3090
ENCODING 12432
SWIDTH 1000 0
DWIDTH 12 0
BBX 10 9 1 0
BITMAP
3C00
0400
0C00
1F00
28C0
5840
9740
95C0
6780
ENDCHAR
STARTCHAR 3091
ENCODING 12433
SWIDTH 1000 0
DWIDTH 12 0
BBX 10 11 1 -1
BITMAP
0600
3C00
0800
1F00
3180
5C80
1500
1F00
3000
7FC0
8C40
ENDCHAR
STARTCHAR 3092
ENCODING 12434
SWIDTH 1000 0
DWIDTH 12 0
BBX 8 11 2 -1
BITMAP
10
10
FE
20
79
4B
8C
38
48
40
3F
ENDCHAR
STARTCHAR 3093
ENCODING 12435
SWIDTH 1000 0
DWIDTH 12 0
BBX 10 9 1 0
BITMAP
0800
0800
1000
1000
2040
3840
6440
C480
8300
ENDCHAR
STARTCHAR 3094
ENCODING 12436
SWIDTH 1000 0
DWIDTH 12 0
BBX 9 11 2 -1
BITMAP
6100
1D80
0100
3C00
C200
0200
0200
0200
0400
0800
3000
ENDCHAR
STARTCHAR 3095
ENCODING 12437
SWIDTH 1000 0
DWIDTH 12 0
BBX 7 7 3 0
BITMAP
20
64
F4
52
92
D0
B0
ENDCHAR
STARTCHAR 3096
ENCODING 12438
SWIDTH 1000 0
DWIDTH 12 0
BBX 7 8 3 -1
BITMAP
48
88
8E
BC
88
88
48
10
ENDCHAR
STARTCHAR 3099
ENCODING 12441
SWIDTH 0 0
DWIDTH 0 0
BBX 3 3 8 7
BITMAP
40
A0
40
ENDCHAR
STARTCHAR 309A
ENCODING 12442
SWIDTH 0 0
DWIDTH 0 0
BBX 2 3 9 7
BITMAP
C0
C0
C0
ENDCHAR
STARTCHAR 309B
ENCODING 12443
SWIDTH 1000 0
DWIDTH 12 0
BBX 2 3 5 7
BITMAP
40
C0
80
ENDCHAR
STARTCHAR 309C
ENCODING 12444
SWIDTH 1000 0
DWIDTH 12 0
BBX 3 3 8 7
BITMAP
40
A0
40
ENDCHAR
STARTCHAR 309D
ENCODING 12445
SWIDTH 1000 0
DWIDTH 12 0
BBX 6 7 3 1
BITMAP
80
40
20
10
18
0C
30
ENDCHAR
STARTCHAR 309E
ENCODING 12446
SWIDTH 1000 0
DWIDTH 12 0
BBX 7 8 3 1
BITMAP
84
4A
64
20
10
08
1C
20
ENDCHAR
STARTCHAR 309F
ENCODING 12447
SWIDTH 1000 0
DWIDTH 12 0
BBX 7 11 2 -1
BITMAP
10
20
26
38
20
4E
52
62
42
86
98
ENDCHAR
STARTCHAR 30A0
ENCODING 12448
SWIDTH 1000 0
DWIDTH 12 0
BBX 6 3 3 3
BITMAP
FC
00
FC
ENDCHAR
STARTCHAR 30A1
ENCODING 12449
SWIDTH 1000 0
DWIDTH 12 0
BBX 8 8 2 -1
BITMAP
FF
02
16
14
10
10
30
60
ENDCHAR
STARTCHAR 30A2
ENCODING 12450
SWIDTH 1000 0
DWIDTH 12 0
BBX 10 10 1 -1
BITMAP
FFC0
0080
0980
0900
0A00
0800
0800
1000
3000
6000
ENDCHAR
STARTCHAR 30A3
ENCODING 12451
SWIDTH 1000 0
DWIDTH 12 0
BBX 7 8 2 -1
BITMAP
06
0C
18
70
D0
10
10
10
ENDCHAR
STARTCHAR 30A4
ENCODING 12452
SWIDTH 1000 0
DWIDTH 12 0
BBX 8 11 1 -1
BITMAP
01
03
06
0C
1C
64
84
04
04
04
04
ENDCHAR
STARTCHAR 30A5
ENCODING 12453
SWIDTH 1000 0
DWIDTH 12 0
BBX 6 9 3 -1
BITMAP
10
10
FC
84
84
04
08
10
20
ENDCHAR
STARTCHAR 30A6
ENCODING 12454
SWIDTH 1000 0
DWIDTH 12 0
BBX 8 10 2 -1
BITMAP
08
08
FF
81
81
81
02
06
0C
30
ENDCHAR
STARTCHAR 30A7
ENCODING 12455
SWIDTH 1000 0
DWIDTH 12 0
BBX 8 5 2 0
BITMAP
7E
08
08
08
FF
ENDCHAR
STARTCHAR 30A8
ENCODING 12456
SWIDTH 1000 0
DWIDTH 12 0
BBX 10 8 1 0
BITMAP
7F80
0400
0400
0400
0400
0400
0400
FFC0
ENDCHAR
STARTCHAR 30A9
ENCODING 12457
SWIDTH 1000 0
DWIDTH 12 0
BBX 8 8 2 -1
BITMAP
08
08
FF
18
18
68
88
18
ENDCHAR
STARTCHAR 30AA
ENCODING 12458
SWIDTH 1000 0
DWIDTH 12 0
BBX 10 10 1 -1
BITMAP
0400
0400
FFC0
0400
0C00
1400
2400
4400
8400
0C00
ENDCHAR
STARTCHAR 30AB
ENCODING 12459
SWIDTH 1000 0
DWIDTH 12 0
BBX 9 10 1 0
BITMAP
0800
0800
0800
7F80
0880
0880
1080
1080
6080
C700
ENDCHAR
STARTCHAR 30AC
ENCODING 12460
SWIDTH 1000 0
DWIDTH 12 0
BBX 10 10 1 0
BITMAP
0840
0940
0880
7F80
0880
0880
1080
1080
6080
C700
ENDCHAR
STARTCHAR 30AD
ENCODING 12461
SWIDTH 1000 0
DWIDTH 12 0
BBX 10 10 1 0
BITMAP
1000
0800
0F00
7800
0800
0FC0
FC00
0400
0400
0400
ENDCHAR
STARTCHAR 30AE
ENCODING 12462
SWIDTH 1000 0
DWIDTH 12 0
BBX 10 10 1 0
BITMAP
1180
08C0
0F00
7800
0800
0FC0
FC00
0400
0400
0400
ENDCHAR
STARTCHAR 30AF
ENCODING 12463
SWIDTH 1000 0
DWIDTH 12 0
BBX 8 10 1 -1
BITMAP
10
10
3F
21
41
C2
06
0C
18
20
ENDCHAR
STARTCHAR 30B0
ENCODING 12464
SWIDTH 1000 0
DWIDTH 12 0
BBX 10 10 1 -1
BITMAP
1180
10C0
3F80
2100
4100
C200
0600
0C00
1800
2000
ENDCHAR
STARTCHAR 30B1
ENCODING 12465
SWIDTH 1000 0
DWIDTH 12 0
BBX 10 11 1 -1
BITMAP
1000
1000
2000
3FC0
4200
4200
8200
0400
0C00
0800
1000
ENDCHAR
STARTCHAR 30B2
ENCODING 12466
SWIDTH 1000 0
DWIDTH 12 0
BBX 10 11 1 -1
BITMAP
1040
1140
2080
3FC0
4200
4200
8200
0400
0C00
0800
1000
ENDCHAR
STARTCHAR 30B3
ENCODING 12467
SWIDTH 1000 0
DWIDTH 12 0
BBX 7 8 2 -1
BITMAP
FE
02
02
02
02
02
FE
02
ENDCHAR
STARTCHAR 30B4
ENCODING 12468
SWIDTH 1000 0
DWIDTH 12 0
BBX 9 11 2 -1
BITMAP
0100
0280
0100
FE00
0200
0200
0200
0200
0200
FE00
0200
ENDCHAR
STARTCHAR 30B5
ENCODING 12469
SWIDTH 1000 0
DWIDTH 12 0
BBX 10 10 1 -1
BITMAP
2200
2200
2200
FFC0
2200
2200
2200
0600
0C00
1000
ENDCHAR
STARTCHAR 30B6
ENCODING 12470
SWIDTH 1000 0
DWIDTH 12 0
BBX 11 10 1 -1
BITMAP
0240
22A0
2240
FFC0
2200
2200
2200
0600
0C00
1000
ENDCHAR
STARTCHAR 30B7
ENCODING 12471
SWIDTH 1000 0
DWIDTH 12 0
BBX 8 9 2 0
BITMAP
40
20
01
81
42
04
08
30
C0
ENDCHAR
STARTCHAR 30B8
ENCODING 12472
SWIDTH 1000 0
DWIDTH 12 0
BBX 8 10 2 0
BITMAP
02
45
22
01
81
42
04
08
30
C0
ENDCHAR
STARTCHAR 30B9
ENCODING 12473
SWIDTH 1000 0
DWIDTH 12 0
BBX 9 8 1 0
BITMAP
7F00
0200
0200
0400
0C00
1300
6180
C080
ENDCHAR
STARTCHAR 30BA
ENCODING 12474
SWIDTH 1000 0
DWIDTH 12 0
BBX 10 10 1 0
BITMAP
00C0
00C0
7F80
0200
0200
0400
0C00
1300
6180
C080
ENDCHAR
STARTCHAR 30BB
ENCODING 12475
SWIDTH 1000 0
DWIDTH 12 0
BBX 9 9 1 0
BITMAP
1000
1000
1180
3E80
D100
1200
1000
1000
1F80
ENDCHAR
STARTCHAR 30BC
ENCODING 12476
SWIDTH 1000 0
DWIDTH 12 0
BBX 10 10 1 0
BITMAP
0080
1140
1080
1180
3E80
D100
1200
1000
1000
1F80
ENDCHAR
STARTCHAR 30BD
ENCODING 12477
SWIDTH 1000 0
DWIDTH 12 0
BBX 8 9 1 -1
BITMAP
81
41
41
21
02
02
04
18
30
ENDCHAR
STARTCHAR 30BE
ENCODING 12478
SWIDTH 1000 0
DWIDTH 12 0
BBX 10 10 1 -1
BITMAP
0080
0140
C180
4100
2100
0200
0200
0400
0800
3000
ENDCHAR
STARTCHAR 30BF
ENCODING 12479
SWIDTH 1000 0
DWIDTH 12 0
BBX 8 11 1 -1
BITMAP
10
10
1F
21
51
CA
06
06
09
10
20
ENDCHAR
STARTCHAR 30C0
ENCODING 12480
SWIDTH 1000 0
DWIDTH 12 0
BBX 10 11 1 -1
BITMAP
1080
1140
1F80
2100
5100
CA00
0600
0600
0900
1000
2000
ENDCHAR
STARTCHAR 30C1
ENCODING 12481
SWIDTH 1000 0
DWIDTH 12 0
BBX 10 10 1 -1
BITMAP
0380
7C00
0400
0400
FFC0
0400
0400
0800
1800
2000
ENDCHAR
STARTCHAR 30C2
ENCODING 12482
SWIDTH 1000 0
DWIDTH 12 0
BBX 10 11 1 -1
BITMAP
0140
07C0
7C00
0400
0400
FFC0
0400
0400
0800
1800
2000
ENDCHAR
STARTCHAR 30C3
ENCODING 12483
SWIDTH 1000 0
DWIDTH 12 0
BBX 7 7 2 -1
BITMAP
32
D2
52
02
04
08
30
ENDCHAR
STARTCHAR 30C4
ENCODING 12484
SWIDTH 1000 0
DWIDTH 12 0
BBX 9 9 1 -1
BITMAP
1080
8880
4880
4080
0100
0100
0200
0C00
3000
ENDCHAR
STARTCHAR 30C5
ENCODING 12485
SWIDTH 1000 0
DWIDTH 12 0
BBX 10 10 1 -1
BITMAP
0180
10C0
8880
4880
4100
0100
0300
0600
0C00
3000
ENDCHAR
STARTCHAR 30C6
ENCODING 12486
SWIDTH 1000 0
DWIDTH 12 0
BBX 10 10 1 -1
BITMAP
7F00
0000
0000
FFC0
0800
0800
0800
0800
1000
3000
ENDCHAR
STARTCHAR 30C7
ENCODING 12487
SWIDTH 1000 0
DWIDTH 12 0
BBX 10 11 1 -1
BITMAP
0180
7FC0
0080
0000
FFC0
0800
0800
0800
0800
1000
3000
ENDCHAR
STARTCHAR 30C8
ENCODING 12488
SWIDTH 1000 0
DWIDTH 12 0
BBX 6 11 4 -1
BITMAP
80
80
80
80
E0
98
84
80
80
80
80
ENDCHAR
STARTCHAR 30C9
ENCODING 12489
SWIDTH 1000 0
DWIDTH 12 0
BBX 6 11 4 -1
BITMAP
8C
94
88
80
E0
98
84
80
80
80
80
ENDCHAR
STARTCHAR 30CA
ENCODING 12490
SWIDTH 1000 0
DWIDTH 12 0
BBX 10 10 1 -1
BITMAP
0400
0400
0400
FFC0
0400
0400
0800
0800
1800
2000
ENDCHAR
STARTCHAR 30CB
ENCODING 12491
SWIDTH 1000 0
DWIDTH 12 0
BBX 10 6 1 1
BITMAP
7F80
0000
0000
0000
0000
FFC0
ENDCHAR
STARTCHAR 30CC
ENCODING 12492
SWIDTH 1000 0
DWIDTH 12 0
BBX 8 8 2 0
BITMAP
FF
02
22
1C
0C
12
61
80
ENDCHAR
STARTCHAR 30CD
ENCODING 12493
SWIDTH 1000 0
DWIDTH 12 0
BBX 10 10 1 -1
BITMAP
0400
0400
7F00
0200
0400
1F00
3580
C440
0400
0400
ENDCHAR
STARTCHAR 30CE
ENCODING 12494
SWIDTH 1000 0
DWIDTH 12 0
BBX 6 9 3 0
BITMAP
04
04
08
08
18
10
20
40
80
ENDCHAR
STARTCHAR 30CF
ENCODING 12495
SWIDTH 1000 0
DWIDTH 12 0
BBX 10 6 1 2
BITMAP
1200
2100
2100
4080
C080
8040
ENDCHAR
STARTCHAR 30D0
ENCODING 12496
SWIDTH 1000 0
DWIDTH 12 0
BBX 10 8 1 1
BITMAP
0040
0080
1200
2100
2100
4080
C080
8040
ENDCHAR
STARTCHAR 30D1
ENCODING 12497
SWIDTH 1000 0
DWIDTH 12 0
BBX 10 9 1 0
BITMAP
00C0
0140
12C0
2200
2100
2180
4080
C0C0
8040
ENDCHAR
STARTCHAR 30D2
ENCODING 12498
SWIDTH 1000 0
DWIDTH 12 0
BBX 7 9 3 0
BITMAP
80
80
8C
F0
80
80
80
80
FE
ENDCHAR
STARTCHAR 30D3
ENCODING 12499
SWIDTH 1000 0
DWIDTH 12 0
BBX 8 10 3 0
BITMAP
02
85
82
8C
F0
80
80
80
80
FE
ENDCHAR
STARTCHAR 30D4
ENCODING 12500
SWIDTH 1000 0
DWIDTH 12 0
BBX 8 9 3 0
BITMAP
83
85
83
8C
F0
80
80
80
FE
ENDCHAR
STARTCHAR 30D5
ENCODING 12501
SWIDTH 1000 0
DWIDTH 12 0
BBX 9 9 1 -1
BITMAP
FF80
0080
0100
0100
0100
0200
0400
1800
6000
ENDCHAR
STARTCHAR 30D6
ENCODING 12502
SWIDTH 1000 0
DWIDTH 12 0
BBX 10 11 1 -1
BITMAP
0140
00C0
FF80
0100
0200
0200
0200
0400
0400
1800
6000
ENDCHAR
STARTCHAR 30D7
ENCODING 12503
SWIDTH 1000 0
DWIDTH 12 0
BBX 10 11 1 -1
BITMAP
00C0
0140
FFC0
0100
0200
0200
0200
0400
0400
1800
6000
ENDCHAR
STARTCHAR 30D8
ENCODING 12504
SWIDTH 1000 0
DWIDTH 12 0
BBX 10 6 1 1
BITMAP
1800
2400
4200
8100
0080
0040
ENDCHAR
STARTCHAR 30D9
ENCODING 12505
SWIDTH 1000 0
DWIDTH 12 0
BBX 10 8 1 1
BITMAP
0080
0340
1980
2400
4200
8100
0080
0040
ENDCHAR
STARTCHAR 30DA
ENCODING 12506
SWIDTH 1000 0
DWIDTH 12 0
BBX 10 8 1 1
BITMAP
0180
0280
1980
2400
4200
8100
0080
0040
ENDCHAR
STARTCHAR 30DB
ENCODING 12507
SWIDTH 1000 0
DWIDTH 12 0
BBX 10 11 1 -1
BITMAP
0400
0400
0400
FFC0
0400
2500
2500
4480
4440
8440
0400
ENDCHAR
STARTCHAR 30DC
ENCODING 12508
SWIDTH 1000 0
DWIDTH 12 0
BBX 10 11 1 -1
BITMAP
0480
0540
0480
FFC0
0400
2500
2500
4480
4440
8440
0400
ENDCHAR
STARTCHAR 30DD
ENCODING 12509
SWIDTH 1000 0
DWIDTH 12 0
BBX 10 11 1 -1
BITMAP
0480
0540
0480
FFC0
0400
2500
2500
4480
4440
8440
0400
ENDCHAR
STARTCHAR 30DE
ENCODING 12510
SWIDTH 1000 0
DWIDTH 12 0
BBX 10 8 1 0
BITMAP
FFC0
0080
0100
2200
1C00
0C00
0600
0200
ENDCHAR
STARTCHAR 30DF
ENCODING 12511
SWIDTH 1000 0
DWIDTH 12 0
BBX 6 9 3 0
BITMAP
F0
1C
00
F0
1C
00
C0
38
04
ENDCHAR
STARTCHAR 30E0
ENCODING 12512
SWIDTH 1000 0
DWIDTH 12 0
BBX 10 10 1 -1
BITMAP
0800
0800
0800
0800
1000
1200
2100
2080
FF40
0040
ENDCHAR
STARTCHAR 30E1
ENCODING 12513
SWIDTH 1000 0
DWIDTH 12 0
BBX 8 10 2 0
BITMAP
02
02
04
64
1C
0E
11
30
60
80
ENDCHAR
STARTCHAR 30E2
ENCODING 12514
SWIDTH 1000 0
DWIDTH 12 0
BBX 10 9 1 0
BITMAP
7F80
0800
0800
FFC0
0800
0800
0800
0800
0F80
ENDCHAR
STARTCHAR 30E3
ENCODING 12515
SWIDTH 1000 0
DWIDTH 12 0
BBX 8 8 2 -1
BITMAP
20
23
3F
D2
14
10
08
08
ENDCHAR
STARTCHAR 30E4
ENCODING 12516
SWIDTH 1000 0
DWIDTH 12 0
BBX 10 10 1 -1
BITMAP
1000
1000
1FC0
F8C0
0980
0900
0800
0800
0400
0400
ENDCHAR
STARTCHAR 30E5
ENCODING 12517
SWIDTH 1000 0
DWIDTH 12 0
BBX 8 5 2 0
BITMAP
7C
04
04
04
FF
ENDCHAR
STARTCHAR 30E6
ENCODING 12518
SWIDTH 1000 0
DWIDTH 12 0
BBX 10 7 1 1
BITMAP
7F00
0100
0100
0200
0200
0200
FFC0
ENDCHAR
STARTCHAR 30E7
ENCODING 12519
SWIDTH 1000 0
DWIDTH 12 0
BBX 6 7 3 -1
BITMAP
FC
04
FC
04
04
FC
04
ENDCHAR
STARTCHAR 30E8
ENCODING 12520
SWIDTH 1000 0
DWIDTH 12 0
BBX 7 9 2 -1
BITMAP
FE
02
02
7E
02
02
02
FE
02
ENDCHAR
STARTCHAR 30E9
ENCODING 12521
SWIDTH 1000 0
DWIDTH 12 0
BBX 8 10 2 -1
BITMAP
7E
00
00
FF
01
01
02
04
08
30
ENDCHAR
STARTCHAR 30EA
ENCODING 12522
SWIDTH 1000 0
DWIDTH 12 0
BBX 6 10 3 -1
BITMAP
84
84
84
84
84
84
04
08
10
20
ENDCHAR
STARTCHAR 30EB
ENCODING 12523
SWIDTH 1000 0
DWIDTH 12 0
BBX 10 9 1 0
BITMAP
2400
2400
2400
2400
2440
24C0
2580
4700
8400
ENDCHAR
STARTCHAR 30EC
ENCODING 12524
SWIDTH 1000 0
DWIDTH 12 0
BBX 8 9 2 0
BITMAP
80
80
80
81
81
82
84
98
E0
ENDCHAR
STARTCHAR 30ED
ENCODING 12525
SWIDTH 1000 0
DWIDTH 12 0
BBX 8 8 2 0
BITMAP
FF
81
81
81
81
81
FF
81
ENDCHAR
STARTCHAR 30EE
ENCODING 12526
SWIDTH 1000 0
DWIDTH 12 0
BBX 6 7 3 -1
BITMAP
FC
84
84
04
08
18
20
ENDCHAR
STARTCHAR 30EF
ENCODING 12527
SWIDTH 1000 0
DWIDTH 12 0
BBX 8 9 2 -1
BITMAP
FF
81
81
81
82
02
04
08
10
ENDCHAR
STARTCHAR 30F0
ENCODING 12528
SWIDTH 1000 0
DWIDTH 12 0
BBX 10 10 1 -1
BITMAP
0400
0400
7F80
2400
2400
2400
FFC0
0400
0400
0400
ENDCHAR
STARTCHAR 30F1
ENCODING 12529
SWIDTH 1000 0
DWIDTH 12 0
BBX 10 7 1 1
BITMAP
7F80
0180
0B00
0E00
0800
0800
FFC0
ENDCHAR
STARTCHAR 30F2
ENCODING 12530
SWIDTH 1000 0
DWIDTH 12 0
BBX 8 9 2 0
BITMAP
FF
01
01
FF
02
02
04
18
60
ENDCHAR
STARTCHAR 30F3
ENCODING 12531
SWIDTH 1000 0
DWIDTH 12 0
BBX 8 9 2 0
BITMAP
80
40
21
01
02
06
0C
30
C0
ENDCHAR
STARTCHAR 30F4
ENCODING 12532
SWIDTH 1000 0
DWIDTH 12 0
BBX 9 11 2 -1
BITMAP
0300
1180
1000
FF00
8100
8200
8200
0200
0400
1800
2000
ENDCHAR
STARTCHAR 30F5
ENCODING 12533
SWIDTH 1000 0
DWIDTH 12 0
BBX 6 8 3 -1
BITMAP
20
20
FC
24
24
24
44
9C
ENDCHAR
STARTCHAR 30F6
ENCODING 12534
SWIDTH 1000 0
DWIDTH 12 0
BBX 8 8 2 -1
BITMAP
20
20
7F
48
88
08
10
30
ENDCHAR
STARTCHAR 30F7
ENCODING 12535
SWIDTH 1000 0
DWIDTH 12 0
BBX 8 11 3 -1
BITMAP
01
FF
86
88
88
08
08
10
10
20
40
ENDCHAR
STARTCHAR 30F8
ENCODING 12536
SWIDTH 1000 0
DWIDTH 12 0
BBX 10 11 1 -1
BITMAP
0440
04C0
0480
7F00
2400
2400
2400
FF80
0400
0400
0400
ENDCHAR
STARTCHAR 30F9
ENCODING 12537
SWIDTH 1000 0
DWIDTH 12 0
BBX 10 9 1 1
BITMAP
0080
0140
7F80
0600
0C00
0800
0800
0800
FFC0
ENDCHAR
STARTCHAR 30FA
ENCODING 12538
SWIDTH 1000 0
DWIDTH 12 0
BBX 9 11 2 -1
BITMAP
0080
FD80
0500
0400
0400
FC00
0800
0800
1000
2000
4000
ENDCHAR
STARTCHAR 30FB
ENCODING 12539
SWIDTH 1000 0
DWIDTH 12 0
BBX 2 2 5 3
BITMAP
C0
C0
ENDCHAR
STARTCHAR 30FC
ENCODING 12540
SWIDTH 1000 0
DWIDTH 12 0
BBX 10 1 1 4
BITMAP
FFC0
ENDCHAR
STARTCHAR 30FD
ENCODING 12541
SWIDTH 1000 0
DWIDTH 12 0
BBX 4 4 4 2
BITMAP
80
40
20
10
ENDCHAR
STARTCHAR 30FE
ENCODING 12542
SWIDTH 1000 0
DWIDTH 12 0
BBX 6 6 4 2
BITMAP
08
14
88
40
20
10
ENDCHAR
STARTCHAR 30FF
ENCODING 12543
SWIDTH 1000 0
DWIDTH 12 0
BBX 5 8 3 0
BITMAP
F8
08
08
08
08
08
08
08
ENDCHAR
STARTCHAR 3105
ENCODING 12549
SWIDTH 1000 0
DWIDTH 12 0
BBX 8 10 2 -1
BITMAP
60
40
FF
01
01
01
01
01
01
0E
ENDCHAR
STARTCHAR 3106
ENCODING 12550
SWIDTH 1000 0
DWIDTH 12 0
BBX 8 11 2 -1
BITMAP
20
20
40
7F
02
42
34
0C
1C
23
C1
ENDCHAR
STARTCHAR 3107
ENCODING 12551
SWIDTH 1000 0
DWIDTH 12 0
BBX 8 8 2 0
BITMAP
FF
81
81
81
81
81
81
81
ENDCHAR
STARTCHAR 3108
ENCODING 12552
SWIDTH 1000 0
DWIDTH 12 0
BBX 7 8 3 0
BITMAP
FE
80
80
80
80
80
80
FE
ENDCHAR
STARTCHAR 3109
ENCODING 12553
SWIDTH 1000 0
DWIDTH 12 0
BBX 8 10 2 0
BITMAP
20
40
40
FF
11
11
11
21
41
8E
ENDCHAR
STARTCHAR 310A
ENCODING 12554
SWIDTH 1000 0
DWIDTH 12 0
BBX 10 9 1 0
BITMAP
0400
0400
FFC0
0800
0800
1200
2100
7F80
0080
ENDCHAR
STARTCHAR 310B
ENCODING 12555
SWIDTH 1000 0
DWIDTH 12 0
BBX 8 9 2 0
BITMAP
FC
08
08
1F
01
01
01
01
0E
ENDCHAR
STARTCHAR 310C
ENCODING 12556
SWIDTH 1000 0
DWIDTH 12 0
BBX 9 10 1 0
BITMAP
2400
2400
4400
7F80
0880
0880
1880
1100
6100
C700
ENDCHAR
STARTCHAR 310D
ENCODING 12557
SWIDTH 1000 0
DWIDTH 12 0
BBX 8 10 2 -1
BITMAP
11
22
24
44
C8
C8
44
24
22
11
ENDCHAR
STARTCHAR 310E
ENCODING 12558
SWIDTH 1000 0
DWIDTH 12 0
BBX 9 9 2 0
BITMAP
FF80
2000
2000
3E00
0200
0200
0200
0200
1C00
ENDCHAR
STARTCHAR 310F
ENCODING 12559
SWIDTH 1000 0
DWIDTH 12 0
BBX 10 9 1 0
BITMAP
7FC0
2000
2000
2000
2000
2000
4000
4000
8000
ENDCHAR
STARTCHAR 3110
ENCODING 12560
SWIDTH 1000 0
DWIDTH 12 0
BBX 6 10 3 -1
BITMAP
04
44
44
44
44
7C
C4
04
04
04
ENDCHAR
STARTCHAR 3111
ENCODING 12561
SWIDTH 1000 0
DWIDTH 12 0
BBX 4 10 4 -1
BITMAP
10
20
60
40
80
80
40
20
30
10
ENDCHAR
STARTCHAR 3112
ENCODING 12562
SWIDTH 1000 0
DWIDTH 12 0
BBX 9 9 2 -1
BITMAP
FF80
0800
0800
0800
0800
0800
0800
0800
0800
ENDCHAR
STARTCHAR 3113
ENCODING 12563
SWIDTH 1000 0
DWIDTH 12 0
BBX 10 9 1 0
BITMAP
0400
4480
4480
4480
4480
7F80
0400
0400
FFC0
ENDCHAR
STARTCHAR 3114
ENCODING 12564
SWIDTH 1000 0
DWIDTH 12 0
BBX 7 10 2 -1
BITMAP
04
08
12
64
C8
10
70
90
10
10
ENDCHAR
STARTCHAR 3115
ENCODING 12565
SWIDTH 1000 0
DWIDTH 12 0
BBX 8 9 2 -1
BITMAP
7F
01
01
7F
41
40
40
80
80
ENDCHAR
STARTCHAR 3116
ENCODING 12566
SWIDTH 1000 0
DWIDTH 12 0
BBX 6 8 3 0
BITMAP
FC
84
E4
B4
8C
84
FC
84
ENDCHAR
STARTCHAR 3117
ENCODING 12567
SWIDTH 1000 0
DWIDTH 12 0
BBX 8 10 2 -1
BITMAP
FF
21
21
21
21
22
2E
20
20
20
ENDCHAR
STARTCHAR 3118
ENCODING 12568
SWIDTH 1000 0
DWIDTH 12 0
BBX 9 10 2 -1
BITMAP
0800
1000
FF80
2000
2000
3E00
0200
0600
0400
0800
ENDCHAR
STARTCHAR 3119
ENCODING 12569
SWIDTH 1000 0
DWIDTH 12 0
BBX 8 9 2 -1
BITMAP
08
10
10
20
20
44
42
FF
01
ENDCHAR
STARTCHAR 311A
ENCODING 12570
SWIDTH 1000 0
DWIDTH 12 0
BBX 8 10 2 -1
BITMAP
81
42
26
1C
08
08
08
08
08
08
ENDCHAR
STARTCHAR 311B
ENCODING 12571
SWIDTH 1000 0
DWIDTH 12 0
BBX 8 8 2 0
BITMAP
FF
08
38
40
40
40
42
3C
ENDCHAR
STARTCHAR 311C
ENCODING 12572
SWIDTH 1000 0
DWIDTH 12 0
BBX 8 9 2 0
BITMAP
08
08
FF
08
38
40
80
42
3C
ENDCHAR
STARTCHAR 311D
ENCODING 12573
SWIDTH 1000 0
DWIDTH 12 0
BBX 9 9 2 0
BITMAP
2200
2200
2200
FF80
2200
2400
2400
2000
3F00
ENDCHAR
STARTCHAR 311E
ENCODING 12574
SWIDTH 1000 0
DWIDTH 12 0
BBX 10 9 1 0
BITMAP
7FC0
2400
4400
7F80
0880
0880
1100
2100
C200
ENDCHAR
STARTCHAR 311F
ENCODING 12575
SWIDTH 1000 0
DWIDTH 12 0
BBX 10 9 1 0
BITMAP
3000
D000
0800
0800
0400
0400
0200
0180
0040
ENDCHAR
STARTCHAR 3120
ENCODING 12576
SWIDTH 1000 0
DWIDTH 12 0
BBX 8 10 2 -1
BITMAP
10
10
22
44
F8
18
14
22
FF
01
ENDCHAR
STARTCHAR 3121
ENCODING 12577
SWIDTH 1000 0
DWIDTH 12 0
BBX 8 8 2 0
BITMAP
FE
02
44
3C
0C
32
61
80
ENDCHAR
STARTCHAR 3122
ENCODING 12578
SWIDTH 1000 0
DWIDTH 12 0
BBX 8 10 2 -1
BITMAP
FE
02
22
42
40
7F
01
01
02
02
ENDCHAR
STARTCHAR 3123
ENCODING 12579
SWIDTH 1000 0
DWIDTH 12 0
BBX 8 9 2 -1
BITMAP
40
40
80
FF
01
01
01
02
02
ENDCHAR
STARTCHAR 3124
ENCODING 12580
SWIDTH 1000 0
DWIDTH 12 0
BBX 9 9 2 0
BITMAP
1000
1000
FF00
1800
1800
2800
6800
C800
8780
ENDCHAR
STARTCHAR 3125
ENCODING 12581
SWIDTH 1000 0
DWIDTH 12 0
BBX 8 8 2 0
BITMAP
10
10
10
20
20
40
C0
FF
ENDCHAR
STARTCHAR 3126
ENCODING 12582
SWIDTH 1000 0
DWIDTH 12 0
BBX 9 9 2 0
BITMAP
2400
2400
2400
2400
2400
2400
4400
C400
8780
ENDCHAR
STARTCHAR 3127
ENCODING 12583
SWIDTH 1000 0
DWIDTH 12 0
BBX 9 1 2 4
BITMAP
FF80
ENDCHAR
STARTCHAR 3128
ENCODING 12584
SWIDTH 1000 0
DWIDTH 12 0
BBX 8 9 2 0
BITMAP
02
82
64
34
08
14
22
43
81
ENDCHAR
STARTCHAR 3129
ENCODING 12585
SWIDTH 1000 0
DWIDTH 12 0
BBX 8 8 2 0
BITMAP
81
81
81
81
81
81
FF
01
ENDCHAR
STARTCHAR 312A
ENCODING 12586
SWIDTH 1000 0
DWIDTH 12 0
BBX 8 8 2 0
BITMAP
FF
10
10
1E
32
22
42
8E
ENDCHAR
STARTCHAR 312B
ENCODING 12587
SWIDTH 1000 0
DWIDTH 12 0
BBX 10 10 1 -1
BITMAP
7FC0
1200
1200
1200
1200
1200
1200
2200
63C0
C000
ENDCHAR
STARTCHAR 3190
ENCODING 12688
SWIDTH 1000 0
DWIDTH 12 0
BBX 1 6 6 4
BITMAP
80
80
80
80
80
80
ENDCHAR
STARTCHAR 3191
ENCODING 12689
SWIDTH 1000 0
DWIDTH 12 0
BBX 5 6 4 5
BITMAP
80
80
88
98
E0
80
ENDCHAR
STARTCHAR 3192
ENCODING 12690
SWIDTH 1000 0
DWIDTH 12 0
BBX 4 1 1 7
BITMAP
F0
ENDCHAR
STARTCHAR 3193
ENCODING 12691
SWIDTH 1000 0
DWIDTH 12 0
BBX 5 4 1 5
BITMAP
F0
00
00
F8
ENDCHAR
STARTCHAR 3194
ENCODING 12692
SWIDTH 1000 0
DWIDTH 12 0
BBX 5 5 1 5
BITMAP
F0
00
F0
00
F8
ENDCHAR
STARTCHAR 3195
ENCODING 12693
SWIDTH 1000 0
DWIDTH 12 0
BBX 4 5 1 5
BITMAP
F0
F0
D0
90
F0
ENDCHAR
STARTCHAR 3196
ENCODING 12694
SWIDTH 1000 0
DWIDTH 12 0
BBX 5 5 1 5
BITMAP
40
40
30
40
F8
ENDCHAR
STARTCHAR 3197
ENCODING 12695
SWIDTH 1000 0
DWIDTH 12 0
BBX 4 6 1 4
BITMAP
40
F0
D0
F0
40
40
ENDCHAR
STARTCHAR 3198
ENCODING 12696
SWIDTH 1000 0
DWIDTH 12 0
BBX 5 5 1 5
BITMAP
F8
40
30
40
40
ENDCHAR
STARTCHAR 3199
ENCODING 12697
SWIDTH 1000 0
DWIDTH 12 0
BBX 4 6 1 4
BITMAP
F0
F0
D0
F0
40
40
ENDCHAR
STARTCHAR 319A
ENCODING 12698
SWIDTH 1000 0
DWIDTH 12 0
BBX 4 5 1 5
BITMAP
F0
20
40
90
F0
ENDCHAR
STARTCHAR 319B
ENCODING 12699
SWIDTH 1000 0
DWIDTH 12 0
BBX 5 6 1 4
BITMAP
F8
40
F0
D0
F0
90
ENDCHAR
STARTCHAR 319C
ENCODING 12700
SWIDTH 1000 0
DWIDTH 12 0
BBX 4 6 1 4
BITMAP
F0
40
40
40
40
40
ENDCHAR
STARTCHAR 319D
ENCODING 12701
SWIDTH 1000 0
DWIDTH 12 0
BBX 4 5 1 5
BITMAP
F0
40
F0
60
90
ENDCHAR
STARTCHAR 319E
ENCODING 12702
SWIDTH 1000 0
DWIDTH 12 0
BBX 5 6 1 4
BITMAP
A0
D0
F0
E0
C8
38
ENDCHAR
STARTCHAR 319F
ENCODING 12703
SWIDTH 1000 0
DWIDTH 12 0
BBX 5 5 1 5
BITMAP
20
20
20
50
88
ENDCHAR
STARTCHAR 31A0
ENCODING 12704
SWIDTH 1000 0
DWIDTH 12 0
BBX 8 11 2 -1
BITMAP
40
40
40
FF
01
01
01
01
0F
0A
0E
ENDCHAR
STARTCHAR 31A1
ENCODING 12705
SWIDTH 1000 0
DWIDTH 12 0
BBX 8 10 2 -1
BITMAP
FF
11
11
11
11
16
70
90
70
10
ENDCHAR
STARTCHAR 31A2
ENCODING 12706
SWIDTH 1000 0
DWIDTH 12 0
BBX 5 10 3 0
BITMAP
08
48
48
48
48
78
C8
18
18
18
ENDCHAR
STARTCHAR 31A3
ENCODING 12707
SWIDTH 1000 0
DWIDTH 12 0
BBX 9 9 1 0
BITMAP
0900
1100
2200
6600
CC00
6400
2400
1380
1980
ENDCHAR
STARTCHAR 31A4
ENCODING 12708
SWIDTH 1000 0
DWIDTH 12 0
BBX 10 9 1 0
BITMAP
1000
1000
FF80
1080
1100
1200
1000
1000
1FC0
ENDCHAR
STARTCHAR 31A5
ENCODING 12709
SWIDTH 1000 0
DWIDTH 12 0
BBX 10 10 1 -1
BITMAP
1000
1000
FF80
1080
1100
1100
1180
1140
1F80
00C0
ENDCHAR
STARTCHAR 31A6
ENCODING 12710
SWIDTH 1000 0
DWIDTH 12 0
BBX 8 9 2 0
BITMAP
FF
08
08
38
40
40
43
26
18
ENDCHAR
STARTCHAR 31A7
ENCODING 12711
SWIDTH 1000 0
DWIDTH 12 0
BBX 8 9 2 0
BITMAP
FF
08
08
38
40
46
45
46
3F
ENDCHAR
STARTCHAR 31A8
ENCODING 12712
SWIDTH 1000 0
DWIDTH 12 0
BBX 10 9 1 0
BITMAP
2100
2100
2200
1200
1E00
0F80
0C00
3300
C0C0
ENDCHAR
STARTCHAR 31A9
ENCODING 12713
SWIDTH 1000 0
DWIDTH 12 0
BBX 8 9 2 0
BITMAP
81
42
26
1C
08
08
38
58
38
ENDCHAR
STARTCHAR 31AA
ENCODING 12714
SWIDTH 1000 0
DWIDTH 12 0
BBX 10 4 1 3
BITMAP
0180
0140
FF80
0080
ENDCHAR
STARTCHAR 31AB
ENCODING 12715
SWIDTH 1000 0
DWIDTH 12 0
BBX 10 10 1 -1
BITMAP
2100
2100
2300
1200
1C00
0CC0
1D40
3340
C1C0
0080
ENDCHAR
STARTCHAR 31AC
ENCODING 12716
SWIDTH 1000 0
DWIDTH 12 0
BBX 9 8 1 0
BITMAP
FF80
2480
2480
2480
2480
2480
2480
2780
ENDCHAR
STARTCHAR 31AD
ENCODING 12717
SWIDTH 1000 0
DWIDTH 12 0
BBX 10 9 1 -1
BITMAP
FFC0
2900
2900
2900
2900
2900
2900
49C0
8000
ENDCHAR
STARTCHAR 31AE
ENCODING 12718
SWIDTH 1000 0
DWIDTH 12 0
BBX 9 10 2 -1
BITMAP
FF80
4800
4800
7F00
0900
1100
D100
A100
E200
2200
ENDCHAR
STARTCHAR 31AF
ENCODING 12719
SWIDTH 1000 0
DWIDTH 12 0
BBX 8 10 2 -1
BITMAP
10
30
22
44
F8
08
17
25
FF
02
ENDCHAR
STARTCHAR 31B0
ENCODING 12720
SWIDTH 1000 0
DWIDTH 12 0
BBX 8 10 2 -1
BITMAP
42
26
3C
FF
89
89
89
89
89
8F
ENDCHAR
STARTCHAR 31B1
ENCODING 12721
SWIDTH 1000 0
DWIDTH 12 0
BBX 10 9 1 0
BITMAP
FFC0
0400
7F80
4480
5C80
5180
5280
5C80
4180
ENDCHAR
STARTCHAR 31B2
ENCODING 12722
SWIDTH 1000 0
DWIDTH 12 0
BBX 10 8 1 0
BITMAP
FFC0
0400
0400
0400
0400
0400
0400
7FC0
ENDCHAR
STARTCHAR 31B3
ENCODING 12723
SWIDTH 1000 0
DWIDTH 12 0
BBX 3 9 4 0
BITMAP
20
20
20
20
20
20
E0
A0
E0
ENDCHAR
STARTCHAR 31B4
ENCODING 12724
SWIDTH 1000 0
DWIDTH 12 0
BBX 3 4 2 0
BITMAP
80
E0
20
60
ENDCHAR
STARTCHAR 31B5
ENCODING 12725
SWIDTH 1000 0
DWIDTH 12 0
BBX 4 5 1 -1
BITMAP
40
70
30
50
B0
ENDCHAR
STARTCHAR 31B6
ENCODING 12726
SWIDTH 1000 0
DWIDTH 12 0
BBX 4 5 1 -1
BITMAP
F0
40
70
10
70
ENDCHAR
STARTCHAR 31B7
ENCODING 12727
SWIDTH 1000 0
DWIDTH 12 0
BBX 5 5 1 -1
BITMAP
F8
80
80
80
80
ENDCHAR
STARTCHAR 31F0
ENCODING 12784
SWIDTH 1000 0
DWIDTH 12 0
BBX 6 9 2 -1
BITMAP
20
20
3C
44
84
04
08
10
20
ENDCHAR
STARTCHAR 31F1
ENCODING 12785
SWIDTH 1000 0
DWIDTH 12 0
BBX 8 7 2 0
BITMAP
60
10
81
42
04
18
60
ENDCHAR
STARTCHAR 31F2
ENCODING 12786
SWIDTH 1000 0
DWIDTH 12 0
BBX 7 6 2 0
BITMAP
7C
04
08
18
66
C2
ENDCHAR
STARTCHAR 31F3
ENCODING 12787
SWIDTH 1000 0
DWIDTH 12 0
BBX 4 9 5 -1
BITMAP
80
80
80
C0
A0
90
80
80
80
ENDCHAR
STARTCHAR 31F4
ENCODING 12788
SWIDTH 1000 0
DWIDTH 12 0
BBX 6 7 3 0
BITMAP
FC
04
48
28
18
6C
84
ENDCHAR
STARTCHAR 31F5
ENCODING 12789
SWIDTH 1000 0
DWIDTH 12 0
BBX 8 5 2 1
BITMAP
24
66
42
81
81
ENDCHAR
STARTCHAR 31F6
ENCODING 12790
SWIDTH 1000 0
DWIDTH 12 0
BBX 6 7 3 0
BITMAP
80
80
8C
F0
80
80
7C
ENDCHAR
STARTCHAR 31F7
ENCODING 12791
SWIDTH 1000 0
DWIDTH 12 0
BBX 7 7 2 -1
BITMAP
FE
04
04
04
08
10
60
ENDCHAR
STARTCHAR 31F8
ENCODING 12792
SWIDTH 1000 0
DWIDTH 12 0
BBX 8 5 2 1
BITMAP
30
68
44
82
01
ENDCHAR
STARTCHAR 31F9
ENCODING 12793
SWIDTH 1000 0
DWIDTH 12 0
BBX 8 8 2 -1
BITMAP
08
08
FF
08
4A
4B
89
08
ENDCHAR
STARTCHAR 31FA
ENCODING 12794
SWIDTH 1000 0
DWIDTH 12 0
BBX 8 8 2 -1
BITMAP
10
10
20
24
24
62
FE
01
ENDCHAR
STARTCHAR 31FB
ENCODING 12795
SWIDTH 1000 0
DWIDTH 12 0
BBX 6 8 3 -1
BITMAP
FC
00
FC
04
04
08
10
60
ENDCHAR
STARTCHAR 31FC
ENCODING 12796
SWIDTH 1000 0
DWIDTH 12 0
BBX 6 8 3 -1
BITMAP
84
84
84
84
84
08
18
30
ENDCHAR
STARTCHAR 31FD
ENCODING 12797
SWIDTH 1000 0
DWIDTH 12 0
BBX 9 7 2 0
BITMAP
2800
2800
2800
2880
4900
4E00
8C00
ENDCHAR
STARTCHAR 31FE
ENCODING 12798
SWIDTH 1000 0
DWIDTH 12 0
BBX 6 7 3 0
BITMAP
80
80
84
84
88
90
E0
ENDCHAR
STARTCHAR 31FF
ENCODING 12799
SWIDTH 1000 0
DWIDTH 12 0
BBX 6 6 3 0
BITMAP
FC
84
84
84
FC
84
ENDCHAR
STARTCHAR 3220
ENCODING 12832
SWIDTH 1000 0
DWIDTH 12 0
BBX 12 11 0 -1
BITMAP
2040
4020
4020
4020
8020
BFD0
8020
4020
4020
4020
2040
ENDCHAR
STARTCHAR 3221
ENCODING 12833
SWIDTH 1000 0
DWIDTH 12 0
BBX 12 11 0 -1
BITMAP
2040
4020
4020
5FA0
8020
8010
8020
4020
7FE0
4020
2040
ENDCHAR
STARTCHAR 3222
ENCODING 12834
SWIDTH 1000 0
DWIDTH 12 0
BBX 12 11 0 -1
BITMAP
2040
4020
5FA0
4020
8020
9F90
8020
4020
7FE0
4020
2040
ENDCHAR
STARTCHAR 3223
ENCODING 12835
SWIDTH 1000 0
DWIDTH 12 0
BBX 12 11 0 -1
BITMAP
2040
4020
5FA0
56A0
96A0
9A90
99A0
50A0
5FA0
50A0
2040
ENDCHAR
STARTCHAR 3224
ENCODING 12836
SWIDTH 1000 0
DWIDTH 12 0
BBX 12 11 0 -1
BITMAP
2040
4020
5FA0
4420
8420
9F90
88A0
48A0
48A0
7FE0
2040
ENDCHAR
STARTCHAR 3225
ENCODING 12837
SWIDTH 1000 0
DWIDTH 12 0
BBX 12 11 0 -1
BITMAP
2040
4020
4420
4220
BFE0
8010
8920
59A0
50A0
4020
2040
ENDCHAR
STARTCHAR 3226
ENCODING 12838
SWIDTH 1000 0
DWIDTH 12 0
BBX 12 11 0 -1
BITMAP
2040
4020
4420
4420
87A0
BC10
84A0
44A0
47A0
4020
2040
ENDCHAR
STARTCHAR 3227
ENCODING 12839
SWIDTH 1000 0
DWIDTH 12 0
BBX 12 11 0 -1
BITMAP
2040
4020
4A20
4A20
8920
8910
8920
5120
50A0
60A0
2040
ENDCHAR
STARTCHAR 3228
ENCODING 12840
SWIDTH 1000 0
DWIDTH 12 0
BBX 12 11 0 -1
BITMAP
2040
4420
4420
5F20
8920
8910
8920
4960
5160
61A0
2040
ENDCHAR
STARTCHAR 3229
ENCODING 12841
SWIDTH 1000 0
DWIDTH 12 0
BBX 12 11 0 -1
BITMAP
2040
4020
4220
4220
8220
BFD0
8220
4220
4220
4220
2040
ENDCHAR
STARTCHAR 3231
ENCODING 12849
SWIDTH 1000 0
DWIDTH 12 0
BBX 12 11 0 -1
BITMAP
2040
5120
5520
7BE0
9520
9910
B7E0
73A0
5560
5120
2040
ENDCHAR
STARTCHAR 32A3
ENCODING 12963
SWIDTH 1000 0
DWIDTH 12 0
BBX 12 12 0 -2
BITMAP
0F00
30C0
5FA0
4220
9210
9390
9210
9210
7FE0
4020
30C0
0F00
ENDCHAR
STARTCHAR 338E
ENCODING 13198
SWIDTH 1000 0
DWIDTH 12 0
BBX 10 9 1 -3
BITMAP
F9C0
AA40
AA40
AA40
AA40
A9C0
0040
0240
0380
ENDCHAR
STARTCHAR 338F
ENCODING 13199
SWIDTH 1000 0
DWIDTH 12 0
BBX 10 13 1 -3
BITMAP
8000
8000
8000
8000
9B40
94C0
A440
E440
94C0
9B40
0080
0480
0780
ENDCHAR
STARTCHAR 339C
ENCODING 13212
SWIDTH 1000 0
DWIDTH 12 0
BBX 10 6 1 0
BITMAP
D7C0
AD40
AD40
AD40
AD40
AD40
ENDCHAR
STARTCHAR 339D
ENCODING 13213
SWIDTH 1000 0
DWIDTH 12 0
BBX 10 6 1 0
BITMAP
7A80
8D40
8940
8940
9940
7940
ENDCHAR
STARTCHAR 339E
ENCODING 13214
SWIDTH 1000 0
DWIDTH 12 0
BBX 10 10 1 0
BITMAP
8000
8000
8000
8000
9AC0
A540
C940
E940
A940
9940
ENDCHAR
STARTCHAR 33A1
ENCODING 13217
SWIDTH 1000 0
DWIDTH 12 0
BBX 10 9 1 0
BITMAP
00C0
0040
0080
B7C0
D900
8900
8900
8900
8900
ENDCHAR
STARTCHAR 33C4
ENCODING 13252
SWIDTH 1000 0
DWIDTH 12 0
BBX 8 6 2 0
BITMAP
67
94
88
88
94
67
ENDCHAR
STARTCHAR 33CE
ENCODING 13262
SWIDTH 1000 0
DWIDTH 12 0
BBX 10 9 1 0
BITMAP
9440
96C0
A6C0
A740
C540
A440
A440
9440
9C40
ENDCHAR
STARTCHAR 33D1
ENCODING 13265
SWIDTH 1000 0
DWIDTH 12 0
BBX 8 9 2 0
BITMAP
80
80
80
9E
91
91
91
91
91
ENDCHAR
STARTCHAR 33D2
ENCODING 13266
SWIDTH 1000 0
DWIDTH 12 0
BBX 10 12 1 -3
BITMAP
8000
8000
8000
B9C0
AA40
CA40
CA40
AA40
B9C0
0040
0040
0380
ENDCHAR
STARTCHAR 33D5
ENCODING 13269
SWIDTH 1000 0
DWIDTH 12 0
BBX 10 10 1 0
BITMAP
0040
0140
0040
0040
F940
A540
A540
A540
A540
A540
ENDCHAR
STARTCHAR 3400
ENCODING 13312
SWIDTH 1000 0
DWIDTH 12 0
BBX 12 11 0 -1
BITMAP
0900
0900
0900
0900
79E0
0900
0900
0900
0900
0900
FFF0
ENDCHAR
STARTCHAR 3401
ENCODING 13313
SWIDTH 1000 0
DWIDTH 12 0
BBX 12 11 0 -2
BITMAP
FFF0
0200
0200
7FE0
4420
4620
4920
70A0
4020
7FE0
4020
ENDCHAR
STARTCHAR 3402
ENCODING 13314
SWIDTH 1000 0
DWIDTH 12 0
BBX 12 13 0 -2
BITMAP
0400
0400
07E0
7C20
0440
07C0
2080
2080
FCF0
2380
2090
2C90
30E0
ENDCHAR
STARTCHAR 3403
ENCODING 13315
SWIDTH 1000 0
DWIDTH 12 0
BBX 12 11 0 -1
BITMAP
0600
0900
1080
2040
4020
FFF0
0400
0400
0400
0400
0400
ENDCHAR
STARTCHAR 3404
ENCODING 13316
SWIDTH 1000 0
DWIDTH 12 0
BBX 11 12 1 -2
BITMAP
0400
0400
FFC0
0400
4400
8400
8400
FFE0
0400
0400
0400
0400
ENDCHAR
STARTCHAR 3405
ENCODING 13317
SWIDTH 1000 0
DWIDTH 12 0
BBX 9 10 1 0
BITMAP
0080
4100
2100
1200
0A00
0400
0A00
3300
6180
8080
ENDCHAR
STARTCHAR 3406
ENCODING 13318
SWIDTH 1000 0
DWIDTH 12 0
BBX 9 11 1 -1
BITMAP
0380
7E00
4000
7F80
7F80
4080
7F80
4000
7F80
C080
8780
ENDCHAR
STARTCHAR 3407
ENCODING 13319
SWIDTH 1000 0
DWIDTH 12 0
BBX 12 11 0 -1
BITMAP
0800
0800
7F80
0890
1090
E0E0
7F80
0300
1C20
6020
7FE0
ENDCHAR
STARTCHAR 3408
ENCODING 13320
SWIDTH 1000 0
DWIDTH 12 0
BBX 12 10 0 -1
BITMAP
0C00
0700
18C0
E030
7F80
0300
0C00
3020
4020
7FE0
ENDCHAR
STARTCHAR 3409
ENCODING 13321
SWIDTH 1000 0
DWIDTH 12 0
BBX 12 10 0 -1
BITMAP
FFF0
0200
0200
1E00
7F80
0300
0C00
3020
4020
7FE0
ENDCHAR
STARTCHAR 340A
ENCODING 13322
SWIDTH 1000 0
DWIDTH 12 0
BBX 12 11 0 -1
BITMAP
0400
FFF0
0400
7FE0
0000
7F80
0300
0C00
3020
4020
7FE0
ENDCHAR
STARTCHAR 340B
ENCODING 13323
SWIDTH 1000 0
DWIDTH 12 0
BBX 12 11 0 -1
BITMAP
0200
7FE0
0200
FFF0
0000
7FC0
0300
0C00
3020
4020
7FE0
ENDCHAR
STARTCHAR 340C
ENCODING 13324
SWIDTH 1000 0
DWIDTH 12 0
BBX 12 12 0 -1
BITMAP
1000
3000
3FF0
6200
E3E0
3E20
E220
2260
23C0
2210
2010
1FE0
ENDCHAR
STARTCHAR 340D
ENCODING 13325
SWIDTH 1000 0
DWIDTH 12 0
BBX 10 10 1 -1
BITMAP
FFC0
8840
4480
4100
FF80
0600
1840
6040
8040
FFC0
ENDCHAR
STARTCHAR 340E
ENCODING 13326
SWIDTH 1000 0
DWIDTH 12 0
BBX 12 11 0 -1
BITMAP
0600
FFF0
1080
0F00
0F00
F0F0
3F80
0300
1C20
6020
7FE0
ENDCHAR
STARTCHAR 340F
ENCODING 13327
SWIDTH 1000 0
DWIDTH 12 0
BBX 12 11 0 -1
BITMAP
7FE0
0800
7FC0
1040
FFF0
0000
7F80
0300
1C20
6020
7FE0
ENDCHAR
STARTCHAR 3410
ENCODING 13328
SWIDTH 1000 0
DWIDTH 12 0
BBX 12 11 0 -1
BITMAP
2000
7FE0
4920
3940
3DC0
C330
7FC0
0300
1C20
6020
7FE0
ENDCHAR
STARTCHAR 3411
ENCODING 13329
SWIDTH 1000 0
DWIDTH 12 0
BBX 12 12 0 -2
BITMAP
0800
3FE0
4980
1F80
FC70
0380
3FC0
7FC0
0300
1C20
6020
7FE0
ENDCHAR
STARTCHAR 3412
ENCODING 13330
SWIDTH 1000 0
DWIDTH 12 0
BBX 11 12 0 -2
BITMAP
7FE0
0840
F3C0
3FC0
2040
3FC0
2040
7F80
0700
3820
4020
7FE0
ENDCHAR
STARTCHAR 3413
ENCODING 13331
SWIDTH 1000 0
DWIDTH 12 0
BBX 12 11 0 -1
BITMAP
FFF0
0040
3E40
4240
3E40
01C0
7F80
0300
3C20
4020
7FE0
ENDCHAR
STARTCHAR 3414
ENCODING 13332
SWIDTH 1000 0
DWIDTH 12 0
BBX 12 11 0 -1
BITMAP
0400
FFF0
0000
3FC0
2040
3FC0
7FC0
0300
1C20
6020
7FE0
ENDCHAR
STARTCHAR 3415
ENCODING 13333
SWIDTH 1000 0
DWIDTH 12 0
BBX 10 11 1 -1
BITMAP
0800
FFC0
8840
FFC0
8840
FFC0
FF00
0600
3840
C040
FFC0
ENDCHAR
STARTCHAR 3416
ENCODING 13334
SWIDTH 1000 0
DWIDTH 12 0
BBX 12 11 0 -1
BITMAP
1100
1100
FF00
1100
FF00
0100
0100
7D10
4510
7D10
44E0
ENDCHAR
STARTCHAR 3417
ENCODING 13335
SWIDTH 1000 0
DWIDTH 12 0
BBX 12 12 0 -2
BITMAP
0820
7F40
0880
FFF0
0CC0
3F20
DFE0
7F80
0300
1C20
6020
7FE0
ENDCHAR
STARTCHAR 3418
ENCODING 13336
SWIDTH 1000 0
DWIDTH 12 0
BBX 12 11 0 -1
BITMAP
2440
1480
FFF0
0D00
34C0
C430
3F80
0300
1C20
6020
7FE0
ENDCHAR
STARTCHAR 3419
ENCODING 13337
SWIDTH 1000 0
DWIDTH 12 0
BBX 12 12 0 -2
BITMAP
7FE0
0000
3FC0
3FC0
1080
FFF0
0000
7F80
0300
1C20
6020
7FE0
ENDCHAR
STARTCHAR 341A
ENCODING 13338
SWIDTH 1000 0
DWIDTH 12 0
BBX 12 12 0 -2
BITMAP
7FE0
0800
7FC0
FFF0
0000
3FC0
3FC0
0000
7F80
0620
7820
7FE0
ENDCHAR
STARTCHAR 341B
ENCODING 13339
SWIDTH 1000 0
DWIDTH 12 0
BBX 12 12 0 -2
BITMAP
2100
2FF0
6400
AFE0
3420
27E0
0000
7F80
0300
1C20
6020
7FE0
ENDCHAR
STARTCHAR 341C
ENCODING 13340
SWIDTH 1000 0
DWIDTH 12 0
BBX 12 12 0 -2
BITMAP
1900
1500
FD00
13C0
5540
5940
1140
3940
5D50
9650
1650
6430
ENDCHAR
STARTCHAR 341D
ENCODING 13341
SWIDTH 1000 0
DWIDTH 12 0
BBX 11 11 0 -1
BITMAP
2200
F7E0
2820
3FA0
E7A0
2420
E1E0
7F80
0720
3820
7FE0
ENDCHAR
STARTCHAR 341E
ENCODING 13342
SWIDTH 1000 0
DWIDTH 12 0
BBX 12 12 0 -2
BITMAP
2080
7FE0
2080
1F80
1F80
2080
FFF0
1080
7FC0
C430
3820
3FC0
ENDCHAR
STARTCHAR 341F
ENCODING 13343
SWIDTH 1000 0
DWIDTH 12 0
BBX 12 11 0 -1
BITMAP
0900
79E0
0900
79E0
0900
F9F0
7F80
0300
1C20
6020
7FE0
ENDCHAR
STARTCHAR 3420
ENCODING 13344
SWIDTH 1000 0
DWIDTH 12 0
BBX 12 10 0 -1
BITMAP
FE80
4A80
7E80
0C90
FE90
30E0
7F80
0720
3820
7FE0
ENDCHAR
STARTCHAR 3421
ENCODING 13345
SWIDTH 1000 0
DWIDTH 12 0
BBX 12 11 0 -1
BITMAP
47E0
4100
F7E0
55A0
55A0
5160
57F0
5100
51D0
5630
8FE0
ENDCHAR
STARTCHAR 3422
ENCODING 13346
SWIDTH 1000 0
DWIDTH 12 0
BBX 12 11 0 -1
BITMAP
2000
1FE0
CFE0
50C0
2FF0
4080
4700
7F80
0720
3820
7FE0
ENDCHAR
STARTCHAR 3423
ENCODING 13347
SWIDTH 1000 0
DWIDTH 12 0
BBX 12 12 0 -2
BITMAP
0200
7FF0
5FE0
5FE0
5220
5FE0
5FE0
7FF0
5FC0
4310
5C10
9FE0
ENDCHAR
STARTCHAR 3424
ENCODING 13348
SWIDTH 1000 0
DWIDTH 12 0
BBX 12 11 0 -1
BITMAP
4100
47E0
F7E0
5420
57E0
57E0
57E0
57F0
5250
5430
8FE0
ENDCHAR
STARTCHAR 3425
ENCODING 13349
SWIDTH 1000 0
DWIDTH 12 0
BBX 11 12 0 -2
BITMAP
2780
59E0
F7A0
F9A0
37A0
79A0
FF60
0000
7F80
0720
3820
7FE0
ENDCHAR
STARTCHAR 3426
ENCODING 13350
SWIDTH 1000 0
DWIDTH 12 0
BBX 12 12 0 -2
BITMAP
77E0
78E0
77E0
FFF0
3080
DFF0
7FE0
0C00
7F80
0620
7820
7FE0
ENDCHAR
STARTCHAR 3427
ENCODING 13351
SWIDTH 1000 0
DWIDTH 12 0
BBX 11 11 0 -1
BITMAP
0100
2100
1100
0900
FFE0
0520
0920
1140
2100
4100
0E00
ENDCHAR
STARTCHAR 3428
ENCODING 13352
SWIDTH 1000 0
DWIDTH 12 0
BBX 12 11 0 -2
BITMAP
7BE0
0860
71C0
3080
FBF0
2890
28A0
2080
2080
2080
6380
ENDCHAR
STARTCHAR 3429
ENCODING 13353
SWIDTH 1000 0
DWIDTH 12 0
BBX 12 12 0 -2
BITMAP
4940
4940
4940
FFF0
4940
4940
FFF0
4940
4940
4940
4A40
8C40
ENDCHAR
STARTCHAR 342A
ENCODING 13354
SWIDTH 1000 0
DWIDTH 12 0
BBX 12 12 0 -2
BITMAP
0400
0200
FFF0
0400
4420
4420
4420
7FE0
0620
0900
3080
C070
ENDCHAR
STARTCHAR 342B
ENCODING 13355
SWIDTH 1000 0
DWIDTH 12 0
BBX 12 12 0 -2
BITMAP
0400
0200
FFF0
1080
4920
4620
4620
4920
50A0
4020
7FE0
0020
ENDCHAR
STARTCHAR 342C
ENCODING 13356
SWIDTH 1000 0
DWIDTH 12 0
BBX 12 12 0 -2
BITMAP
0400
0200
FFF0
0880
1040
7FC0
24A0
2480
2480
2490
4490
84E0
ENDCHAR
STARTCHAR 342D
ENCODING 13357
SWIDTH 1000 0
DWIDTH 12 0
BBX 12 12 0 -2
BITMAP
0400
0200
FFF0
0000
7FE0
4020
4F20
5120
4F20
4020
7FE0
4020
ENDCHAR
STARTCHAR 342E
ENCODING 13358
SWIDTH 1000 0
DWIDTH 12 0
BBX 12 12 0 -2
BITMAP
0400
FFF0
1980
7160
7FE0
1100
7FE0
FFF0
0A20
31C0
D280
1C70
ENDCHAR
STARTCHAR 342F
ENCODING 13359
SWIDTH 1000 0
DWIDTH 12 0
BBX 12 12 0 -2
BITMAP
0400
FFF0
3FC0
3FC0
7FE0
7FE0
3FC0
FFF0
1480
FFF0
3FC0
3FC0
ENDCHAR
STARTCHAR 3430
ENCODING 13360
SWIDTH 1000 0
DWIDTH 12 0
BBX 11 12 0 -2
BITMAP
2000
2FE0
2820
4820
4820
C820
C820
4820
4820
4820
4FE0
4820
ENDCHAR
STARTCHAR 3431
ENCODING 13361
SWIDTH 1000 0
DWIDTH 12 0
BBX 12 12 0 -2
BITMAP
0600
0D00
1880
2240
C430
1880
2300
0C20
30C0
0380
0E00
7000
ENDCHAR
STARTCHAR 3432
ENCODING 13362
SWIDTH 1000 0
DWIDTH 12 0
BBX 12 12 0 -2
BITMAP
1100
2100
2100
2FF0
6100
6100
A280
2280
2280
2440
2C20
2830
ENDCHAR
STARTCHAR 3433
ENCODING 13363
SWIDTH 1000 0
DWIDTH 12 0
BBX 12 11 0 -1
BITMAP
1000
2FF0
2480
2480
6480
6480
A480
2480
2490
2890
28E0
ENDCHAR
STARTCHAR 3434
ENCODING 13364
SWIDTH 1000 0
DWIDTH 12 0
BBX 11 12 0 -2
BITMAP
1200
2200
27E0
2420
6820
F220
A340
2080
2180
2300
2600
2800
ENDCHAR
STARTCHAR 3435
ENCODING 13365
SWIDTH 1000 0
DWIDTH 12 0
BBX 12 11 0 -1
BITMAP
1000
2FE0
2080
2080
6080
EFF0
A080
2080
2080
2080
2700
ENDCHAR
STARTCHAR 3436
ENCODING 13366
SWIDTH 1000 0
DWIDTH 12 0
BBX 12 11 0 -1
BITMAP
1000
27E0
2420
2420
6420
67E0
A400
2400
2410
2410
27E0
ENDCHAR
STARTCHAR 3437
ENCODING 13367
SWIDTH 1000 0
DWIDTH 12 0
BBX 11 12 0 -2
BITMAP
1000
2FC0
2040
2440
6440
6440
A7E0
2020
2FE0
2020
2020
21E0
ENDCHAR
STARTCHAR 3438
ENCODING 13368
SWIDTH 1000 0
DWIDTH 12 0
BBX 12 11 0 -1
BITMAP
1200
2400
27E0
2C20
6920
E140
A100
2280
26C0
2C60
3830
ENDCHAR
STARTCHAR 3439
ENCODING 13369
SWIDTH 1000 0
DWIDTH 12 0
BBX 12 13 0 -2
BITMAP
0400
1400
2FE0
2800
37E0
6000
6FC0
A040
2040
2040
2050
2050
2020
ENDCHAR
STARTCHAR 343A
ENCODING 13370
SWIDTH 1000 0
DWIDTH 12 0
BBX 12 11 0 -1
BITMAP
2480
2480
2480
4880
4880
D8C0
D8C0
4940
4960
4A20
4A10
ENDCHAR
STARTCHAR 343B
ENCODING 13371
SWIDTH 1000 0
DWIDTH 12 0
BBX 11 11 0 -1
BITMAP
2100
2100
2FE0
6920
6920
A9A0
AAA0
2C60
2820
2820
28E0
ENDCHAR
STARTCHAR 343C
ENCODING 13372
SWIDTH 1000 0
DWIDTH 12 0
BBX 12 12 0 -2
BITMAP
1000
2340
2C40
2440
6440
FFF0
A440
2440
2440
2440
2840
2840
ENDCHAR
STARTCHAR 343D
ENCODING 13373
SWIDTH 1000 0
DWIDTH 12 0
BBX 12 11 0 -1
BITMAP
2FC0
2840
4CC0
4AC0
CB40
C940
4B40
4B40
54D0
54B0
5020
ENDCHAR
STARTCHAR 343E
ENCODING 13374
SWIDTH 1000 0
DWIDTH 12 0
BBX 12 11 0 -1
BITMAP
1000
27E0
2000
6000
7FF0
A280
A280
2280
2490
2C90
30E0
ENDCHAR
STARTCHAR 343F
ENCODING 13375
SWIDTH 1000 0
DWIDTH 12 0
BBX 12 12 0 -2
BITMAP
1000
2FF0
2080
2080
6FE0
E080
A080
2FF0
2080
2080
2080
2700
ENDCHAR
STARTCHAR 3440
ENCODING 13376
SWIDTH 1000 0
DWIDTH 12 0
BBX 12 11 0 -1
BITMAP
1100
2100
2100
2FF0
6100
E100
A280
2280
2640
2920
3010
ENDCHAR
STARTCHAR 3441
ENCODING 13377
SWIDTH 1000 0
DWIDTH 12 0
BBX 11 12 0 -2
BITMAP
1100
2920
2920
2920
6FE0
E120
A920
2920
2920
2920
2FE0
2020
ENDCHAR
STARTCHAR 3442
ENCODING 13378
SWIDTH 1000 0
DWIDTH 12 0
BBX 12 11 0 -1
BITMAP
1000
2FF0
2100
6FE0
6920
A920
ABA0
2AE0
2C60
2820
28E0
ENDCHAR
STARTCHAR 3443
ENCODING 13379
SWIDTH 1000 0
DWIDTH 12 0
BBX 11 12 0 -1
BITMAP
2480
2480
2880
2BE0
72A0
7CA0
A4A0
AAA0
2AA0
3F20
2320
22E0
ENDCHAR
STARTCHAR 3444
ENCODING 13380
SWIDTH 1000 0
DWIDTH 12 0
BBX 12 12 0 -2
BITMAP
2000
2FE0
2A20
6920
6920
BFF0
AA20
2920
2920
2FF0
2020
21C0
ENDCHAR
STARTCHAR 3445
ENCODING 13381
SWIDTH 1000 0
DWIDTH 12 0
BBX 12 12 0 -2
BITMAP
1200
2400
27F0
2900
6900
F100
A1E0
2100
2100
2100
3FF0
2000
ENDCHAR
STARTCHAR 3446
ENCODING 13382
SWIDTH 1000 0
DWIDTH 12 0
BBX 12 12 0 -2
BITMAP
1000
2FE0
2820
6820
6820
AFE0
AAA0
2280
2280
2490
2C90
30E0
ENDCHAR
STARTCHAR 3447
ENCODING 13383
SWIDTH 1000 0
DWIDTH 12 0
BBX 11 12 0 -2
BITMAP
1200
27C0
2440
2880
6FE0
E020
A020
2FE0
2020
2020
2FE0
2020
ENDCHAR
STARTCHAR 3448
ENCODING 13384
SWIDTH 1000 0
DWIDTH 12 0
BBX 12 12 0 -2
BITMAP
1200
2200
3FF0
6400
6500
A900
AFF0
2100
2540
2920
2910
3700
ENDCHAR
STARTCHAR 3449
ENCODING 13385
SWIDTH 1000 0
DWIDTH 12 0
BBX 12 11 0 -1
BITMAP
2FC0
2840
4FC0
4A40
CBC0
CCC0
4F40
5540
5150
5230
6420
ENDCHAR
STARTCHAR 344A
ENCODING 13386
SWIDTH 1000 0
DWIDTH 12 0
BBX 12 12 0 -2
BITMAP
1100
2100
2FF0
6280
6280
AAA0
AAA0
2AA0
3290
2480
2480
2B80
ENDCHAR
STARTCHAR 344B
ENCODING 13387
SWIDTH 1000 0
DWIDTH 12 0
BBX 11 12 0 -2
BITMAP
2280
2280
2FE0
6AA0
6AA0
AAA0
AFE0
2AA0
2AA0
2AA0
2FE0
2820
ENDCHAR
STARTCHAR 344C
ENCODING 13388
SWIDTH 1000 0
DWIDTH 12 0
BBX 12 11 0 -1
BITMAP
2000
2FF0
2800
6BE0
6880
ABE0
A880
2880
2FF0
2800
2FF0
ENDCHAR
STARTCHAR 344D
ENCODING 13389
SWIDTH 1000 0
DWIDTH 12 0
BBX 12 12 0 -2
BITMAP
2100
2100
3FE0
6100
6FE0
A100
BFF0
2380
2580
2960
3130
2100
ENDCHAR
STARTCHAR 344E
ENCODING 13390
SWIDTH 1000 0
DWIDTH 12 0
BBX 12 12 0 -2
BITMAP
24A0
2920
2A40
6940
6CA0
A410
A100
2920
2920
2920
2FE0
2020
ENDCHAR
STARTCHAR 344F
ENCODING 13391
SWIDTH 1000 0
DWIDTH 12 0
BBX 12 12 0 -1
BITMAP
0100
2100
2FF0
2810
6040
FFF0
A040
2440
2640
2240
2040
2380
ENDCHAR
STARTCHAR 3450
ENCODING 13392
SWIDTH 1000 0
DWIDTH 12 0
BBX 12 12 0 -2
BITMAP
1100
1100
21E0
2100
6100
7FF0
A100
2540
2920
3910
2100
2700
ENDCHAR
STARTCHAR 3451
ENCODING 13393
SWIDTH 1000 0
DWIDTH 12 0
BBX 11 12 0 -2
BITMAP
1100
2100
2FE0
2820
6820
EFE0
A820
2FE0
2820
2820
2FE0
2820
ENDCHAR
STARTCHAR 3452
ENCODING 13394
SWIDTH 1000 0
DWIDTH 12 0
BBX 12 12 0 -2
BITMAP
0600
0900
10C0
3FB0
C400
3FC0
4440
4440
3FC0
0600
1900
60F0
ENDCHAR
STARTCHAR 3453
ENCODING 13395
SWIDTH 1000 0
DWIDTH 12 0
BBX 12 11 0 -1
BITMAP
1200
2640
2C40
2FE0
6420
BFF0
A7E0
2C40
2B80
3380
2C70
ENDCHAR
STARTCHAR 3454
ENCODING 13396
SWIDTH 1000 0
DWIDTH 12 0
BBX 12 12 0 -2
BITMAP
1000
2FF0
2100
2FE0
6820
E920
A920
2920
2920
2380
2660
2820
ENDCHAR
STARTCHAR 3455
ENCODING 13397
SWIDTH 1000 0
DWIDTH 12 0
BBX 11 12 0 -2
BITMAP
1100
2920
2920
27E0
6200
E3E0
A420
2A40
2940
2180
2300
2C00
ENDCHAR
STARTCHAR 3456
ENCODING 13398
SWIDTH 1000 0
DWIDTH 12 0
BBX 12 12 0 -2
BITMAP
2880
2880
4880
4BF0
5A90
DA90
CA90
4BF0
4A90
4880
4880
4880
ENDCHAR
STARTCHAR 3457
ENCODING 13399
SWIDTH 1000 0
DWIDTH 12 0
BBX 12 12 0 -2
BITMAP
1100
27E0
2420
27E0
6420
E7E0
A430
2FE0
20E0
2120
2620
39C0
ENDCHAR
STARTCHAR 3458
ENCODING 13400
SWIDTH 1000 0
DWIDTH 12 0
BBX 12 11 0 -1
BITMAP
20C0
20A0
2FF0
6080
6AA0
AAA0
BFA0
2A40
2A50
2AD0
3320
ENDCHAR
STARTCHAR 3459
ENCODING 13401
SWIDTH 1000 0
DWIDTH 12 0
BBX 12 11 0 -1
BITMAP
2000
3FE0
2A00
6E80
6A80
AA80
AE80
2A80
2F90
3A90
2260
ENDCHAR
STARTCHAR 345A
ENCODING 13402
SWIDTH 1000 0
DWIDTH 12 0
BBX 12 11 0 -1
BITMAP
2000
3EF0
4AA0
4AA0
5EA0
CAA0
DEA0
4A90
4A90
52F0
5E80
ENDCHAR
STARTCHAR 345B
ENCODING 13403
SWIDTH 1000 0
DWIDTH 12 0
BBX 12 12 0 -2
BITMAP
1100
2100
2FF0
2100
6FE0
A920
AFE0
2380
2580
2D60
3110
2100
ENDCHAR
STARTCHAR 345C
ENCODING 13404
SWIDTH 1000 0
DWIDTH 12 0
BBX 12 10 0 -1
BITMAP
25F0
3F00
2500
65F0
A720
BD20
2520
2520
2520
3A20
ENDCHAR
STARTCHAR 345D
ENCODING 13405
SWIDTH 1000 0
DWIDTH 12 0
BBX 12 12 0 -2
BITMAP
1000
2FF0
2100
2FE0
6100
6FF0
A440
2440
3FF0
2440
2440
2840
ENDCHAR
STARTCHAR 345E
ENCODING 13406
SWIDTH 1000 0
DWIDTH 12 0
BBX 12 12 0 -2
BITMAP
2100
2920
2540
6380
6640
A830
A440
3FF0
2440
2440
2840
3840
ENDCHAR
STARTCHAR 345F
ENCODING 13407
SWIDTH 1000 0
DWIDTH 12 0
BBX 12 12 0 -2
BITMAP
2000
27E0
2400
6400
67E0
A480
A480
2480
3FF0
24C0
2C60
2820
ENDCHAR
STARTCHAR 3460
ENCODING 13408
SWIDTH 1000 0
DWIDTH 12 0
BBX 12 12 0 -2
BITMAP
2400
2DE0
2D20
6D20
6CC0
ACC0
A530
2FE0
2100
2100
3FF0
2000
ENDCHAR
STARTCHAR 3461
ENCODING 13409
SWIDTH 1000 0
DWIDTH 12 0
BBX 11 12 0 -2
BITMAP
2000
2EE0
2AA0
4EA0
4AA0
CAA0
CEA0
4AA0
4AA0
4AE0
4D80
4080
ENDCHAR
STARTCHAR 3462
ENCODING 13410
SWIDTH 1000 0
DWIDTH 12 0
BBX 11 12 0 -2
BITMAP
2400
24E0
5EA0
44A0
44A0
DFA0
C4A0
4AA0
4AA0
5FE0
4180
4080
ENDCHAR
STARTCHAR 3463
ENCODING 13411
SWIDTH 1000 0
DWIDTH 12 0
BBX 12 12 0 -2
BITMAP
2480
2480
4480
5FE0
44C0
CFC0
D7A0
55A0
6690
4480
4480
4480
ENDCHAR
STARTCHAR 3464
ENCODING 13412
SWIDTH 1000 0
DWIDTH 12 0
BBX 12 13 0 -2
BITMAP
2440
2440
2FF0
2440
6000
6FE0
A920
A920
2FE0
2920
2920
2FE0
2820
ENDCHAR
STARTCHAR 3465
ENCODING 13413
SWIDTH 1000 0
DWIDTH 12 0
BBX 11 11 0 -1
BITMAP
1000
2FE0
2820
2FE0
6FE0
6400
AFE0
32A0
24A0
3B20
24E0
ENDCHAR
STARTCHAR 3466
ENCODING 13414
SWIDTH 1000 0
DWIDTH 12 0
BBX 12 12 0 -2
BITMAP
2100
2FE0
2820
6820
6FE0
A940
A920
2FF0
2980
3180
3240
3C30
ENDCHAR
STARTCHAR 3467
ENCODING 13415
SWIDTH 1000 0
DWIDTH 12 0
BBX 12 12 0 -2
BITMAP
1000
2FE0
2100
3FF0
6380
A540
BFF0
20C0
2180
3FF0
2100
2700
ENDCHAR
STARTCHAR 3468
ENCODING 13416
SWIDTH 1000 0
DWIDTH 12 0
BBX 12 12 0 -2
BITMAP
1000
2FE0
2820
2820
6FE0
E800
AFE0
3900
3FF0
2300
26C0
3830
ENDCHAR
STARTCHAR 3469
ENCODING 13417
SWIDTH 1000 0
DWIDTH 12 0
BBX 11 12 0 -2
BITMAP
1000
2FE0
2AA0
6AA0
6FE0
A200
A7E0
2820
3240
2180
2300
2C00
ENDCHAR
STARTCHAR 346A
ENCODING 13418
SWIDTH 1000 0
DWIDTH 12 0
BBX 12 12 0 -2
BITMAP
2100
2FF0
2440
6280
6380
BC70
A840
2FC0
2840
2FC0
2840
3040
ENDCHAR
STARTCHAR 346B
ENCODING 13419
SWIDTH 1000 0
DWIDTH 12 0
BBX 12 11 0 -1
BITMAP
2100
2280
2D40
7930
67C0
A040
2580
2CA0
3450
3440
23C0
ENDCHAR
STARTCHAR 346C
ENCODING 13420
SWIDTH 1000 0
DWIDTH 12 0
BBX 12 12 0 -2
BITMAP
2840
2840
5FF0
4A40
4A40
D240
D3E0
5D20
4D20
4F20
5BE0
5120
ENDCHAR
STARTCHAR 346D
ENCODING 13421
SWIDTH 1000 0
DWIDTH 12 0
BBX 12 12 0 -2
BITMAP
2000
2FE0
2920
2FE0
6920
AFE0
A000
3FF0
2440
2440
2440
2840
ENDCHAR
STARTCHAR 346E
ENCODING 13422
SWIDTH 1000 0
DWIDTH 12 0
BBX 12 12 0 -2
BITMAP
2000
2FE0
2920
6FE0
6FE0
A920
AFE0
2FE0
2100
3FF0
2100
2100
ENDCHAR
STARTCHAR 346F
ENCODING 13423
SWIDTH 1000 0
DWIDTH 12 0
BBX 12 12 0 -2
BITMAP
1000
2FF0
2100
2FE0
6820
EFE0
A820
2FE0
2820
2FE0
22C0
2C30
ENDCHAR
STARTCHAR 3470
ENCODING 13424
SWIDTH 1000 0
DWIDTH 12 0
BBX 12 12 0 -2
BITMAP
2400
27C0
2440
4FC0
5FF0
C620
D940
47C0
5AC0
44A0
5890
4300
ENDCHAR
STARTCHAR 3471
ENCODING 13425
SWIDTH 1000 0
DWIDTH 12 0
BBX 12 12 0 -2
BITMAP
1000
2FE0
2440
2280
7FE0
E6A0
BB80
3FF0
2580
2940
3130
2100
ENDCHAR
STARTCHAR 3472
ENCODING 13426
SWIDTH 1000 0
DWIDTH 12 0
BBX 12 12 0 -2
BITMAP
1100
3FF0
2100
2FE0
6A60
AAA0
AFE0
2920
2FE0
2920
2920
29E0
ENDCHAR
STARTCHAR 3473
ENCODING 13427
SWIDTH 1000 0
DWIDTH 12 0
BBX 11 12 0 -2
BITMAP
1400
27E0
2A20
3AA0
67A0
BEE0
A7E0
2A20
3AA0
27A0
2220
3CE0
ENDCHAR
STARTCHAR 3474
ENCODING 13428
SWIDTH 1000 0
DWIDTH 12 0
BBX 12 12 0 -2
BITMAP
2000
2FE0
2FE0
4FE0
4000
DFF0
CFF0
4960
5FE0
4440
4380
5C70
ENDCHAR
STARTCHAR 3475
ENCODING 13429
SWIDTH 1000 0
DWIDTH 12 0
BBX 12 12 0 -2
BITMAP
1080
27F0
2400
7500
75E0
A680
AC80
3BF0
2880
2940
2920
3210
ENDCHAR
STARTCHAR 3476
ENCODING 13430
SWIDTH 1000 0
DWIDTH 12 0
BBX 12 12 0 -2
BITMAP
2400
2FF0
2800
57E0
5FC0
C040
CAC0
4B40
5FC0
4750
5AD0
4230
ENDCHAR
STARTCHAR 3477
ENCODING 13431
SWIDTH 1000 0
DWIDTH 12 0
BBX 12 12 0 -2
BITMAP
2480
2AB0
32C0
5F90
4190
CEF0
D280
4EB0
52C0
4E90
5290
56F0
ENDCHAR
STARTCHAR 3478
ENCODING 13432
SWIDTH 1000 0
DWIDTH 12 0
BBX 12 12 0 -2
BITMAP
1100
2FF0
2100
2FE0
6FE0
A000
BFF0
2020
2F20
2920
2F20
21C0
ENDCHAR
STARTCHAR 3479
ENCODING 13433
SWIDTH 1000 0
DWIDTH 12 0
BBX 12 13 0 -3
BITMAP
0600
1900
FFC0
7FF0
4420
7FE0
7FE0
0000
3FC0
3FC0
2040
3FC0
2040
ENDCHAR
STARTCHAR 347A
ENCODING 13434
SWIDTH 1000 0
DWIDTH 12 0
BBX 12 12 0 -2
BITMAP
1580
2FF0
2880
3FE0
6FE0
A880
AFF0
2FC0
2440
2470
2C20
38E0
ENDCHAR
STARTCHAR 347B
ENCODING 13435
SWIDTH 1000 0
DWIDTH 12 0
BBX 12 11 0 -1
BITMAP
1100
2FF0
2940
6BC0
6BA0
B210
3640
2BC0
2920
2920
2FE0
ENDCHAR
STARTCHAR 347C
ENCODING 13436
SWIDTH 1000 0
DWIDTH 12 0
BBX 12 12 0 -2
BITMAP
2080
3EE0
3B20
5BA0
5AC0
DEC0
DB30
5BE0
5B20
5F20
51E0
4000
ENDCHAR
STARTCHAR 347D
ENCODING 13437
SWIDTH 1000 0
DWIDTH 12 0
BBX 12 12 0 -2
BITMAP
2920
2540
2FF0
7010
77D0
A440
A7C0
2100
2FE0
2100
3FF0
2000
ENDCHAR
STARTCHAR 347E
ENCODING 13438
SWIDTH 1000 0
DWIDTH 12 0
BBX 12 11 0 -1
BITMAP
1200
2FE0
3D60
2380
6C80
7FF0
AFE0
2FE0
2FE0
2820
2FE0
ENDCHAR
STARTCHAR 347F
ENCODING 13439
SWIDTH 1000 0
DWIDTH 12 0
BBX 12 11 0 -1
BITMAP
2520
2A40
25A0
4FE0
4920
CFE0
CFE0
4100
5FF0
4580
5970
ENDCHAR
STARTCHAR 3480
ENCODING 13440
SWIDTH 1000 0
DWIDTH 12 0
BBX 12 12 0 -2
BITMAP
2100
2FF0
2440
4280
4FE0
CFE0
C920
4BE0
4A60
4BE0
4820
4860
ENDCHAR
STARTCHAR 3481
ENCODING 13441
SWIDTH 1000 0
DWIDTH 12 0
BBX 11 12 0 -2
BITMAP
2000
2FE0
2920
4FE0
4FE0
CAA0
CFE0
4920
4FE0
4920
4FE0
4820
ENDCHAR
STARTCHAR 3482
ENCODING 13442
SWIDTH 1000 0
DWIDTH 12 0
BBX 12 12 0 -2
BITMAP
1440
2FF0
2510
2FA0
6140
BFF0
A3E0
2420
3FE0
2420
27E0
2420
ENDCHAR
STARTCHAR 3483
ENCODING 13443
SWIDTH 1000 0
DWIDTH 12 0
BBX 12 12 0 -2
BITMAP
20A0
20A0
3FF0
4F80
4F80
CF80
D140
4F40
4F40
4F50
4950
50B0
ENDCHAR
STARTCHAR 3484
ENCODING 13444
SWIDTH 1000 0
DWIDTH 12 0
BBX 12 12 0 -2
BITMAP
2480
28A0
2EA0
4A80
57F0
DAC0
C4C0
4920
5210
4AA0
4AA0
1290
ENDCHAR
STARTCHAR 3485
ENCODING 13445
SWIDTH 1000 0
DWIDTH 12 0
BBX 12 11 0 -1
BITMAP
2100
3FF0
27E0
5C60
5F80
C7E0
DAC0
5F20
44C0
4C40
57B0
ENDCHAR
STARTCHAR 3486
ENCODING 13446
SWIDTH 1000 0
DWIDTH 12 0
BBX 12 12 0 -2
BITMAP
1100
2280
2FC0
77F0
6840
A7C0
BEE0
2AA0
2660
2660
3AA0
2EE0
ENDCHAR
STARTCHAR 3487
ENCODING 13447
SWIDTH 1000 0
DWIDTH 12 0
BBX 12 11 0 -1
BITMAP
2400
2800
2FF0
5AA0
5FF0
CAA0
CAA0
5FF0
4AA0
52A0
5290
ENDCHAR
STARTCHAR 3488
ENCODING 13448
SWIDTH 1000 0
DWIDTH 12 0
BBX 12 11 0 -1
BITMAP
2040
2E80
2280
5FF0
52A0
CEA0
D2A0
4E60
5740
5AE0
4290
ENDCHAR
STARTCHAR 3489
ENCODING 13449
SWIDTH 1000 0
DWIDTH 12 0
BBX 12 11 0 -1
BITMAP
2520
2540
2FF0
2810
6FD0
A7C0
A100
3FF0
2380
2540
3930
ENDCHAR
STARTCHAR 348A
ENCODING 13450
SWIDTH 1000 0
DWIDTH 12 0
BBX 12 11 0 -1
BITMAP
2000
3EF0
3A60
5BA0
4AA0
D760
C440
56B0
54C0
56C0
5DF0
ENDCHAR
STARTCHAR 348B
ENCODING 13451
SWIDTH 1000 0
DWIDTH 12 0
BBX 12 12 0 -1
BITMAP
3200
3230
5EC0
5280
5E80
D2F0
DEA0
52A0
5EA0
4D20
5320
5120
ENDCHAR
STARTCHAR 348C
ENCODING 13452
SWIDTH 1000 0
DWIDTH 12 0
BBX 12 11 0 -1
BITMAP
2440
26E0
2E60
4AA0
C8A0
DFF0
5010
4780
4480
4C90
5870
ENDCHAR
STARTCHAR 348D
ENCODING 13453
SWIDTH 1000 0
DWIDTH 12 0
BBX 12 13 0 -2
BITMAP
0200
1680
2440
2FE0
6AA0
7FF0
A240
AF80
2640
2FE0
2540
2920
3710
ENDCHAR
STARTCHAR 348E
ENCODING 13454
SWIDTH 1000 0
DWIDTH 12 0
BBX 12 12 0 -2
BITMAP
2000
2FE0
2200
4FF0
4440
DAB0
CEE0
4280
4EE0
4280
5EF0
4280
ENDCHAR
STARTCHAR 348F
ENCODING 13455
SWIDTH 1000 0
DWIDTH 12 0
BBX 12 12 0 -2
BITMAP
2100
3FE0
34A0
4FE0
4480
CFE0
DFF0
4440
4B20
5090
4700
41C0
ENDCHAR
STARTCHAR 3490
ENCODING 13456
SWIDTH 1000 0
DWIDTH 12 0
BBX 12 12 0 -2
BITMAP
2440
2FF0
2CC0
7720
67E0
A820
AFA0
38A0
2FA0
2FA0
2820
21E0
ENDCHAR
STARTCHAR 3491
ENCODING 13457
SWIDTH 1000 0
DWIDTH 12 0
BBX 12 11 0 -1
BITMAP
2000
2FF0
2CC0
4BF0
4D40
CBE0
CB40
4DE0
4DF0
4D00
4FF0
ENDCHAR
STARTCHAR 3492
ENCODING 13458
SWIDTH 1000 0
DWIDTH 12 0
BBX 12 11 0 -1
BITMAP
2280
2AA0
26C0
7FF0
6440
AFE0
AFE0
2100
3FF0
2780
3970
ENDCHAR
STARTCHAR 3493
ENCODING 13459
SWIDTH 1000 0
DWIDTH 12 0
BBX 12 11 0 -1
BITMAP
3080
2BE0
4880
47F0
D920
CBE0
4BE0
4880
4FF0
5C80
57F0
ENDCHAR
STARTCHAR 3494
ENCODING 13460
SWIDTH 1000 0
DWIDTH 12 0
BBX 11 12 0 -2
BITMAP
2FE0
2AA0
2FE0
4400
4FE0
DA20
DFE0
4A60
4FE0
42A0
4FE0
40E0
ENDCHAR
STARTCHAR 3495
ENCODING 13461
SWIDTH 1000 0
DWIDTH 12 0
BBX 12 12 0 -2
BITMAP
2100
3FF0
2940
4940
55F0
DF40
CBF0
5540
5DF0
4540
49F0
5100
ENDCHAR
STARTCHAR 3496
ENCODING 13462
SWIDTH 1000 0
DWIDTH 12 0
BBX 12 12 0 -2
BITMAP
2480
3FF0
2000
4FE0
4FE0
C920
CFE0
5FE0
5120
5160
57E0
5060
ENDCHAR
STARTCHAR 3497
ENCODING 13463
SWIDTH 1000 0
DWIDTH 12 0
BBX 12 12 0 -2
BITMAP
2440
2FF0
27C0
6440
67C0
BFF0
B7D0
26C0
2FE0
2100
2FE0
3FF0
ENDCHAR
STARTCHAR 3498
ENCODING 13464
SWIDTH 1000 0
DWIDTH 12 0
BBX 12 11 0 -1
BITMAP
2000
2FE0
34A0
6FA0
6F60
B460
AF90
2FF0
2440
2240
3FF0
ENDCHAR
STARTCHAR 3499
ENCODING 13465
SWIDTH 1000 0
DWIDTH 12 0
BBX 12 11 0 -1
BITMAP
2880
29E0
5520
5DE0
C9E0
D480
5DF0
4290
5E90
58A0
6080
ENDCHAR
STARTCHAR 349A
ENCODING 13466
SWIDTH 1000 0
DWIDTH 12 0
BBX 12 11 0 -2
BITMAP
3FE0
2940
4FE0
5FF0
CFE0
C020
4FE0
4FE0
5520
5450
57C0
ENDCHAR
STARTCHAR 349B
ENCODING 13467
SWIDTH 1000 0
DWIDTH 12 0
BBX 12 12 0 -2
BITMAP
2000
2EE0
2AA0
4E60
44A0
CFF0
C880
5FE0
4FE0
4880
4FF0
4800
ENDCHAR
STARTCHAR 349C
ENCODING 13468
SWIDTH 1000 0
DWIDTH 12 0
BBX 12 11 0 -2
BITMAP
2660
29A0
4A20
4DE0
C8A0
CEE0
4AA0
5FF0
4640
4C60
5010
ENDCHAR
STARTCHAR 349D
ENCODING 13469
SWIDTH 1000 0
DWIDTH 12 0
BBX 12 11 0 -1
BITMAP
2480
3FF0
4000
4FE0
CAA0
CFE0
4FF0
4920
4ED0
5190
5660
ENDCHAR
STARTCHAR 349E
ENCODING 13470
SWIDTH 1000 0
DWIDTH 12 0
BBX 11 12 0 -2
BITMAP
2920
2FE0
2900
4FE0
5FE0
CFE0
C900
4FE0
4EE0
4AA0
4BA0
4860
ENDCHAR
STARTCHAR 349F
ENCODING 13471
SWIDTH 1000 0
DWIDTH 12 0
BBX 12 12 0 -2
BITMAP
2100
3FF0
4FE0
4FE0
4900
CFE0
CFF0
5550
5560
4720
5DC0
4630
ENDCHAR
STARTCHAR 34A0
ENCODING 13472
SWIDTH 1000 0
DWIDTH 12 0
BBX 12 11 0 -1
BITMAP
2700
2CE0
5FA0
5A40
C5B0
DE80
42F0
4EE0
4280
5EF0
5FF0
ENDCHAR
STARTCHAR 34A1
ENCODING 13473
SWIDTH 1000 0
DWIDTH 12 0
BBX 12 12 0 -2
BITMAP
2000
3EF0
5240
56A0
50E0
DE40
D8A0
5EE0
4AD0
5B60
5F50
40C0
ENDCHAR
STARTCHAR 34A2
ENCODING 13474
SWIDTH 1000 0
DWIDTH 12 0
BBX 12 11 0 -1
BITMAP
2100
2680
2BC0
5FF0
56E0
CFE0
CFE0
52A0
4FE0
52A0
52E0
ENDCHAR
STARTCHAR 34A3
ENCODING 13475
SWIDTH 1000 0
DWIDTH 12 0
BBX 12 12 0 -2
BITMAP
2100
3FF0
5540
57F0
57E0
DE40
D5E0
55F0
5100
5AC0
5A50
6BC0
ENDCHAR
STARTCHAR 34A4
ENCODING 13476
SWIDTH 1000 0
DWIDTH 12 0
BBX 12 12 0 -2
BITMAP
2000
3FE0
4FC0
4FC0
4840
DFF0
DFF0
5EE0
5F20
52E0
5FF0
4220
ENDCHAR
STARTCHAR 34A5
ENCODING 13477
SWIDTH 1000 0
DWIDTH 12 0
BBX 12 11 0 -1
BITMAP
2540
3FE0
5FE0
5FE0
5FE0
C000
DFF0
4FE0
4FE0
4440
5FF0
ENDCHAR
STARTCHAR 34A6
ENCODING 13478
SWIDTH 1000 0
DWIDTH 12 0
BBX 12 12 0 -2
BITMAP
2000
2FE0
4FE0
4FE0
4000
DEF0
DEF0
5EF0
5FE0
4100
5FF0
4000
ENDCHAR
STARTCHAR 34A7
ENCODING 13479
SWIDTH 1000 0
DWIDTH 12 0
BBX 12 12 0 -2
BITMAP
2480
3EA0
5EF0
56A0
5DA0
DEF0
C4A0
5EA0
5EF0
5EA0
52A0
52F0
ENDCHAR
STARTCHAR 34A8
ENCODING 13480
SWIDTH 1000 0
DWIDTH 12 0
BBX 12 12 0 -2
BITMAP
2560
2BA0
2FE0
53A0
4EE0
D3A0
DFF0
4C40
5FF0
4FD0
4820
47E0
ENDCHAR
STARTCHAR 34A9
ENCODING 13481
SWIDTH 1000 0
DWIDTH 12 0
BBX 12 12 0 -2
BITMAP
2400
27C0
2FC0
4FF0
4F20
CCC0
C3A0
5F10
5EF0
5EF0
4660
5EF0
ENDCHAR
STARTCHAR 34AA
ENCODING 13482
SWIDTH 1000 0
DWIDTH 12 0
BBX 12 12 0 -2
BITMAP
0F00
F0F0
7FE0
7BE0
4A20
7BE0
7FE0
17F0
5FA0
51E0
5350
7FC0
ENDCHAR
STARTCHAR 34AB
ENCODING 13483
SWIDTH 1000 0
DWIDTH 12 0
BBX 12 10 0 -1
BITMAP
3FE0
2000
2000
3FC0
2000
7FE0
0900
0910
3110
C1E0
ENDCHAR
STARTCHAR 34AC
ENCODING 13484
SWIDTH 1000 0
DWIDTH 12 0
BBX 12 10 0 -1
BITMAP
7BE0
0080
0080
FFE0
5080
5080
53F0
5010
5010
8FE0
ENDCHAR
STARTCHAR 34AD
ENCODING 13485
SWIDTH 1000 0
DWIDTH 12 0
BBX 12 10 0 -1
BITMAP
7BE0
4A20
4A20
4A20
7BE0
7B60
3140
5550
5B50
9470
ENDCHAR
STARTCHAR 34AE
ENCODING 13486
SWIDTH 1000 0
DWIDTH 12 0
BBX 12 10 0 -1
BITMAP
7BF0
0100
0320
FDC0
5340
54E0
5350
5450
5190
9FE0
ENDCHAR
STARTCHAR 34AF
ENCODING 13487
SWIDTH 1000 0
DWIDTH 12 0
BBX 12 12 0 -2
BITMAP
2240
A7F0
B240
77F0
22A0
FFF0
52A0
57F0
5080
57F0
9080
8080
ENDCHAR
STARTCHAR 34B0
ENCODING 13488
SWIDTH 1000 0
DWIDTH 12 0
BBX 12 11 0 -1
BITMAP
0400
0600
0980
3040
C030
7FE0
0400
0400
0400
0400
FFF0
ENDCHAR
STARTCHAR 34B1
ENCODING 13489
SWIDTH 1000 0
DWIDTH 12 0
BBX 12 12 0 -2
BITMAP
0400
0600
0980
3040
C830
1FC0
3040
7880
4D00
0200
1C00
E000
ENDCHAR
STARTCHAR 34B2
ENCODING 13490
SWIDTH 1000 0
DWIDTH 12 0
BBX 12 11 0 -2
BITMAP
0400
0700
18C0
E030
3FC0
2040
3FC0
2040
2040
3FC0
2040
ENDCHAR
STARTCHAR 34B3
ENCODING 13491
SWIDTH 1000 0
DWIDTH 12 0
BBX 10 10 1 -1
BITMAP
FFC0
8840
A940
A940
A940
BAC0
DAC0
DC40
8840
89C0
ENDCHAR
STARTCHAR 34B4
ENCODING 13492
SWIDTH 1000 0
DWIDTH 12 0
BBX 12 11 0 -1
BITMAP
0C00
0700
38C0
C430
4420
4420
7FE0
0400
4420
4420
7FE0
ENDCHAR
STARTCHAR 34B5
ENCODING 13493
SWIDTH 1000 0
DWIDTH 12 0
BBX 11 11 0 -1
BITMAP
0400
7FE0
4020
4020
7FE0
4020
4020
7FE0
1980
30C0
C020
ENDCHAR
STARTCHAR 34B6
ENCODING 13494
SWIDTH 1000 0
DWIDTH 12 0
BBX 12 12 0 -2
BITMAP
0900
1080
30C0
6460
FFF0
2040
2040
3FC0
2040
2040
3FC0
2040
ENDCHAR
STARTCHAR 34B7
ENCODING 13495
SWIDTH 1000 0
DWIDTH 12 0
BBX 12 11 0 -2
BITMAP
3FC0
4240
4240
4640
4540
48C0
5040
FFF0
1180
30C0
C020
ENDCHAR
STARTCHAR 34B8
ENCODING 13496
SWIDTH 1000 0
DWIDTH 12 0
BBX 12 11 0 -1
BITMAP
1080
0900
7FE0
0820
14C0
6700
0A80
36C0
4A60
3230
CE00
ENDCHAR
STARTCHAR 34B9
ENCODING 13497
SWIDTH 1000 0
DWIDTH 12 0
BBX 12 12 0 -2
BITMAP
2080
FFF0
2080
79E0
79E0
4A20
79E0
79E0
4A20
FFF0
6920
8A10
ENDCHAR
STARTCHAR 34BA
ENCODING 13498
SWIDTH 1000 0
DWIDTH 12 0
BBX 10 10 1 -1
BITMAP
FFC0
A140
9240
FFC0
8440
A640
A940
BF40
8040
81C0
ENDCHAR
STARTCHAR 34BB
ENCODING 13499
SWIDTH 1000 0
DWIDTH 12 0
BBX 11 11 1 -2
BITMAP
FFC0
FFC0
8040
FFC0
7F80
7F80
4080
7F80
7F80
3220
C3E0
ENDCHAR
STARTCHAR 34BC
ENCODING 13500
SWIDTH 1000 0
DWIDTH 12 0
BBX 12 12 0 -2
BITMAP
1080
FFF0
1080
1F80
0400
7FE0
5520
54A0
5DA0
6E60
4420
45E0
ENDCHAR
STARTCHAR 34BD
ENCODING 13501
SWIDTH 1000 0
DWIDTH 12 0
BBX 12 11 0 -1
BITMAP
7FE0
5FA0
4020
7FA0
34C0
7FE0
FFF0
30C0
DFB0
13A0
1FC0
ENDCHAR
STARTCHAR 34BE
ENCODING 13502
SWIDTH 1000 0
DWIDTH 12 0
BBX 12 12 0 -2
BITMAP
7FE0
5FA0
4020
5FA0
2200
FBE0
4480
7BE0
4EA0
4AB0
4AF0
B3E0
ENDCHAR
STARTCHAR 34BF
ENCODING 13503
SWIDTH 1000 0
DWIDTH 12 0
BBX 12 12 0 -2
BITMAP
7FE0
5FA0
5FA0
2140
FDF0
3F40
AFF0
7D40
7DF0
AD40
BDF0
8D00
ENDCHAR
STARTCHAR 34C0
ENCODING 13504
SWIDTH 1000 0
DWIDTH 12 0
BBX 10 11 1 -2
BITMAP
FFC0
8040
8840
0800
0C00
0B00
0980
0840
0800
0800
0800
ENDCHAR
STARTCHAR 34C1
ENCODING 13505
SWIDTH 1000 0
DWIDTH 12 0
BBX 12 5 0 4
BITMAP
7FE0
4020
4920
30C0
C030
ENDCHAR
STARTCHAR 34C2
ENCODING 13506
SWIDTH 1000 0
DWIDTH 12 0
BBX 12 10 0 -1
BITMAP
7FE0
8080
7D00
03E0
7D40
2B40
2890
2B50
4810
8FE0
ENDCHAR
STARTCHAR 34C3
ENCODING 13507
SWIDTH 1000 0
DWIDTH 12 0
BBX 12 10 0 -1
BITMAP
7FE0
4060
23C0
F900
7900
07F0
7900
7910
4910
78E0
ENDCHAR
STARTCHAR 34C4
ENCODING 13508
SWIDTH 1000 0
DWIDTH 12 0
BBX 12 12 0 -2
BITMAP
1080
2880
7DE0
6EA0
FEA0
02C0
38C0
D540
6940
7550
1A50
6260
ENDCHAR
STARTCHAR 34C5
ENCODING 13509
SWIDTH 1000 0
DWIDTH 12 0
BBX 12 10 0 -1
BITMAP
4FF0
6080
2080
0080
2080
2080
4080
4080
4080
8780
ENDCHAR
STARTCHAR 34C6
ENCODING 13510
SWIDTH 1000 0
DWIDTH 12 0
BBX 12 11 0 -1
BITMAP
0100
C280
24C0
0C60
1410
0440
2580
4720
4420
4420
C7E0
ENDCHAR
STARTCHAR 34C7
ENCODING 13511
SWIDTH 1000 0
DWIDTH 12 0
BBX 12 10 0 0
BITMAP
CFE0
2100
0100
0FF0
2100
2300
4280
4440
8860
1030
ENDCHAR
STARTCHAR 34C8
ENCODING 13512
SWIDTH 1000 0
DWIDTH 12 0
BBX 12 11 0 -2
BITMAP
CFF0
4200
2200
0400
07E0
2C20
2C20
5420
4420
47E0
8420
ENDCHAR
STARTCHAR 34C9
ENCODING 13513
SWIDTH 1000 0
DWIDTH 12 0
BBX 12 11 0 -2
BITMAP
CFE0
4100
2100
1FF0
0100
2100
2FE0
4820
4820
8FE0
0820
ENDCHAR
STARTCHAR 34CA
ENCODING 13514
SWIDTH 1000 0
DWIDTH 12 0
BBX 11 10 0 -1
BITMAP
CFE0
5020
37E0
1020
17A0
34A0
54A0
57A0
5020
90E0
ENDCHAR
STARTCHAR 34CB
ENCODING 13515
SWIDTH 1000 0
DWIDTH 12 0
BBX 12 12 0 -2
BITMAP
0440
C440
4FE0
2440
0440
0440
2440
5FF0
4000
44C0
4C60
9020
ENDCHAR
STARTCHAR 34CC
ENCODING 13516
SWIDTH 1000 0
DWIDTH 12 0
BBX 12 11 0 -1
BITMAP
0100
C280
24C0
0860
1030
0FC0
2100
4FE0
4100
4100
DFF0
ENDCHAR
STARTCHAR 34CD
ENCODING 13517
SWIDTH 1000 0
DWIDTH 12 0
BBX 12 11 0 -1
BITMAP
0100
C100
5FF0
2200
0440
2FE0
22A0
4480
4490
8C90
10E0
ENDCHAR
STARTCHAR 34CE
ENCODING 13518
SWIDTH 1000 0
DWIDTH 12 0
BBX 12 11 0 -2
BITMAP
CFE0
4020
2FE0
0FE0
0000
1FF0
2FC0
4440
4280
4380
9C60
ENDCHAR
STARTCHAR 34CF
ENCODING 13519
SWIDTH 1000 0
DWIDTH 12 0
BBX 11 10 0 -1
BITMAP
DFE0
50A0
3260
1460
13A0
34A0
54A0
53A0
5020
90E0
ENDCHAR
STARTCHAR 34D0
ENCODING 13520
SWIDTH 1000 0
DWIDTH 12 0
BBX 12 11 0 -1
BITMAP
C100
4FE0
2100
1FF0
0480
0C60
3110
4FE0
4100
4100
9FF0
ENDCHAR
STARTCHAR 34D1
ENCODING 13521
SWIDTH 1000 0
DWIDTH 12 0
BBX 12 11 0 -1
BITMAP
C100
4FE0
2100
1FF0
0440
0480
2FE0
4100
5FF0
4100
8100
ENDCHAR
STARTCHAR 34D2
ENCODING 13522
SWIDTH 1000 0
DWIDTH 12 0
BBX 12 12 0 -2
BITMAP
4200
22F0
0F20
1220
61E0
8000
0F00
34C0
D530
2540
2520
3C00
ENDCHAR
STARTCHAR 34D3
ENCODING 13523
SWIDTH 1000 0
DWIDTH 12 0
BBX 12 12 0 -2
BITMAP
C100
5FF0
2100
0FE0
1460
12A0
37E0
5120
57E0
5120
5120
91E0
ENDCHAR
STARTCHAR 34D4
ENCODING 13524
SWIDTH 1000 0
DWIDTH 12 0
BBX 12 12 0 -2
BITMAP
8420
5E20
5220
3EF0
1220
1EA0
32A0
5EA0
4620
4620
5A20
96C0
ENDCHAR
STARTCHAR 34D5
ENCODING 13525
SWIDTH 1000 0
DWIDTH 12 0
BBX 12 12 0 -2
BITMAP
00C0
C0A0
5FF0
3080
17A0
12A0
3BA0
5440
56D0
59D0
A120
2000
ENDCHAR
STARTCHAR 34D6
ENCODING 13526
SWIDTH 1000 0
DWIDTH 12 0
BBX 12 11 0 -2
BITMAP
CFE0
4FE0
3120
0FE0
0940
1FF0
7FE0
4100
5FF0
4100
8100
ENDCHAR
STARTCHAR 34D7
ENCODING 13527
SWIDTH 1000 0
DWIDTH 12 0
BBX 12 12 0 -2
BITMAP
0400
DEE0
44A0
3EA0
1EA0
0260
2440
4F80
4460
5FC0
5920
9710
ENDCHAR
STARTCHAR 34D8
ENCODING 13528
SWIDTH 1000 0
DWIDTH 12 0
BBX 12 10 0 -1
BITMAP
7FC0
5FC0
4840
5F40
4640
7FC0
4440
5FD0
4550
BFA0
ENDCHAR
STARTCHAR 34D9
ENCODING 13529
SWIDTH 1000 0
DWIDTH 12 0
BBX 10 12 1 -2
BITMAP
0800
8440
BF40
A240
9240
8C40
8C40
8A40
B240
A140
FFC0
0040
ENDCHAR
STARTCHAR 34DA
ENCODING 13530
SWIDTH 1000 0
DWIDTH 12 0
BBX 11 11 0 -1
BITMAP
0020
FD20
1120
1120
1120
1120
1120
1120
1D20
E020
00E0
ENDCHAR
STARTCHAR 34DB
ENCODING 13531
SWIDTH 1000 0
DWIDTH 12 0
BBX 11 10 0 -1
BITMAP
FFE0
2120
2120
2120
2220
2220
3A20
E620
0420
09C0
ENDCHAR
STARTCHAR 34DC
ENCODING 13532
SWIDTH 1000 0
DWIDTH 12 0
BBX 11 11 0 -1
BITMAP
1000
27E0
2120
4920
F120
1220
3220
4A20
7A20
0420
09C0
ENDCHAR
STARTCHAR 34DD
ENCODING 13533
SWIDTH 1000 0
DWIDTH 12 0
BBX 11 10 0 -1
BITMAP
2420
24A0
7EA0
24A0
24A0
FEA0
24A0
2420
4420
44E0
ENDCHAR
STARTCHAR 34DE
ENCODING 13534
SWIDTH 1000 0
DWIDTH 12 0
BBX 11 11 0 -1
BITMAP
2000
23E0
FD20
2120
7920
2120
2120
FE20
2220
2420
29C0
ENDCHAR
STARTCHAR 34DF
ENCODING 13535
SWIDTH 1000 0
DWIDTH 12 0
BBX 11 11 0 -1
BITMAP
0820
08A0
7EA0
4AA0
48A0
7EA0
44A0
74A0
4C20
5E20
A0E0
ENDCHAR
STARTCHAR 34E0
ENCODING 13536
SWIDTH 1000 0
DWIDTH 12 0
BBX 10 11 1 -1
BITMAP
2040
2140
3D40
2140
2140
2140
F940
8940
8940
F840
89C0
ENDCHAR
STARTCHAR 34E1
ENCODING 13537
SWIDTH 1000 0
DWIDTH 12 0
BBX 11 11 0 -1
BITMAP
2020
4020
7CA0
90A0
10A0
FEA0
10A0
52A0
52A0
5220
7EE0
ENDCHAR
STARTCHAR 34E2
ENCODING 13538
SWIDTH 1000 0
DWIDTH 12 0
BBX 11 11 0 -1
BITMAP
2020
3CA0
44A0
A8A0
18A0
E6A0
7CA0
44A0
4420
4420
7CE0
ENDCHAR
STARTCHAR 34E3
ENCODING 13539
SWIDTH 1000 0
DWIDTH 12 0
BBX 11 11 0 -1
BITMAP
1820
28A0
24A0
42A0
FCA0
00A0
7CA0
44A0
4420
7C20
44E0
ENDCHAR
STARTCHAR 34E4
ENCODING 13540
SWIDTH 1000 0
DWIDTH 12 0
BBX 11 11 0 -1
BITMAP
1020
10A0
FEA0
10A0
7CA0
00A0
7CA0
44A0
4420
7C20
44E0
ENDCHAR
STARTCHAR 34E5
ENCODING 13541
SWIDTH 1000 0
DWIDTH 12 0
BBX 11 11 0 -1
BITMAP
1020
9220
54A0
10A0
7CA0
04A0
04A0
7CA0
0420
0420
FCE0
ENDCHAR
STARTCHAR 34E6
ENCODING 13542
SWIDTH 1000 0
DWIDTH 12 0
BBX 11 11 0 -1
BITMAP
0020
FEA0
10A0
7CA0
44A0
44A0
7CA0
44A0
4420
7C20
44E0
ENDCHAR
STARTCHAR 34E7
ENCODING 13543
SWIDTH 1000 0
DWIDTH 12 0
BBX 11 11 0 -1
BITMAP
1820
24A0
52A0
88A0
7CA0
04A0
08A0
7CA0
44A0
4420
7CE0
ENDCHAR
STARTCHAR 34E8
ENCODING 13544
SWIDTH 1000 0
DWIDTH 12 0
BBX 11 11 0 -1
BITMAP
1020
1020
FEA0
10A0
54A0
7CA0
92A0
18A0
2CA0
6420
82E0
ENDCHAR
STARTCHAR 34E9
ENCODING 13545
SWIDTH 1000 0
DWIDTH 12 0
BBX 11 12 0 -2
BITMAP
2020
3CA0
48A0
FEA0
52A0
7EA0
52A0
52A0
7EA0
5220
5220
8CE0
ENDCHAR
STARTCHAR 34EA
ENCODING 13546
SWIDTH 1000 0
DWIDTH 12 0
BBX 10 11 1 -1
BITMAP
4000
27C0
FA40
8A40
FA40
8A40
FA40
8A40
B440
BC40
CBC0
ENDCHAR
STARTCHAR 34EB
ENCODING 13547
SWIDTH 1000 0
DWIDTH 12 0
BBX 11 12 0 -2
BITMAP
0820
7EA0
18A0
26A0
C3A0
7EA0
24A0
FFA0
24A0
2420
4420
84E0
ENDCHAR
STARTCHAR 34EC
ENCODING 13548
SWIDTH 1000 0
DWIDTH 12 0
BBX 11 12 0 -2
BITMAP
5220
34A0
7EA0
10A0
FEA0
2CA0
26A0
7DA0
A4A0
2420
6420
5CE0
ENDCHAR
STARTCHAR 34ED
ENCODING 13549
SWIDTH 1000 0
DWIDTH 12 0
BBX 11 11 0 -2
BITMAP
7E20
42A0
7EA0
7EA0
20A0
7EA0
D2A0
5AA0
6620
7A20
0EE0
ENDCHAR
STARTCHAR 34EE
ENCODING 13550
SWIDTH 1000 0
DWIDTH 12 0
BBX 11 11 0 -2
BITMAP
7E20
4AA0
7EA0
4AA0
7EA0
42A0
5EA0
66A0
5E20
8220
86E0
ENDCHAR
STARTCHAR 34EF
ENCODING 13551
SWIDTH 1000 0
DWIDTH 12 0
BBX 10 12 1 -2
BITMAP
5440
A940
A940
5540
0140
FD40
A540
A540
FD40
A440
A440
FDC0
ENDCHAR
STARTCHAR 34F0
ENCODING 13552
SWIDTH 1000 0
DWIDTH 12 0
BBX 11 11 0 -1
BITMAP
0020
FF20
10A0
BEA0
B6A0
BEA0
B6A0
BEA0
A6A0
8220
7E60
ENDCHAR
STARTCHAR 34F1
ENCODING 13553
SWIDTH 1000 0
DWIDTH 12 0
BBX 11 11 0 -2
BITMAP
1820
26A0
FDA0
00A0
72A0
56A0
76A0
56A0
7620
5220
76E0
ENDCHAR
STARTCHAR 34F2
ENCODING 13554
SWIDTH 1000 0
DWIDTH 12 0
BBX 11 11 0 -1
BITMAP
1020
7EA0
42A0
7EA0
40A0
7EA0
76A0
7EA0
7620
B620
B6E0
ENDCHAR
STARTCHAR 34F3
ENCODING 13555
SWIDTH 1000 0
DWIDTH 12 0
BBX 12 10 0 -1
BITMAP
7CA0
44A0
7CA0
7CA0
00A0
FEA0
5020
5EE0
7000
9FF0
ENDCHAR
STARTCHAR 34F4
ENCODING 13556
SWIDTH 1000 0
DWIDTH 12 0
BBX 11 12 0 -2
BITMAP
0020
7E20
10A0
7EA0
6AA0
6AA0
6EA0
10A0
7EA0
1820
2420
C2E0
ENDCHAR
STARTCHAR 34F5
ENCODING 13557
SWIDTH 1000 0
DWIDTH 12 0
BBX 11 11 0 -2
BITMAP
6E20
AAA0
6EA0
00A0
7EA0
00A0
FFA0
7EA0
0420
0420
1CE0
ENDCHAR
STARTCHAR 34F6
ENCODING 13558
SWIDTH 1000 0
DWIDTH 12 0
BBX 11 12 0 -2
BITMAP
4020
FEA0
4AA0
7AA0
4AA0
FAA0
56A0
10A0
FEA0
1820
2420
C2E0
ENDCHAR
STARTCHAR 34F7
ENCODING 13559
SWIDTH 1000 0
DWIDTH 12 0
BBX 11 12 0 -2
BITMAP
1020
7EA0
42A0
7EA0
7EA0
42A0
7EA0
10A0
7EA0
1C20
7620
D0E0
ENDCHAR
STARTCHAR 34F8
ENCODING 13560
SWIDTH 1000 0
DWIDTH 12 0
BBX 11 10 0 -1
BITMAP
6E20
6AA0
6EA0
28A0
6EA0
42A0
6EA0
2820
FE20
00E0
ENDCHAR
STARTCHAR 34F9
ENCODING 13561
SWIDTH 1000 0
DWIDTH 12 0
BBX 11 12 0 -2
BITMAP
0020
7F20
48A0
69A0
5AA0
56A0
62A0
6AA0
5AA0
4820
9420
A2E0
ENDCHAR
STARTCHAR 34FA
ENCODING 13562
SWIDTH 1000 0
DWIDTH 12 0
BBX 11 12 0 -2
BITMAP
1020
0EA0
10A0
7EA0
7EA0
52A0
4EA0
48A0
7EA0
5420
8C20
B2E0
ENDCHAR
STARTCHAR 34FB
ENCODING 13563
SWIDTH 1000 0
DWIDTH 12 0
BBX 11 10 0 -1
BITMAP
7E20
AAA0
7EA0
00A0
FEA0
10A0
4EA0
5020
5E20
E0E0
ENDCHAR
STARTCHAR 34FC
ENCODING 13564
SWIDTH 1000 0
DWIDTH 12 0
BBX 11 12 0 -2
BITMAP
1020
7EA0
1CA0
36A0
D9A0
24A0
D3A0
52A0
34A0
3420
5220
30E0
ENDCHAR
STARTCHAR 34FD
ENCODING 13565
SWIDTH 1000 0
DWIDTH 12 0
BBX 11 12 0 -2
BITMAP
1020
52A0
7EA0
10A0
7EA0
82A0
BEA0
00A0
7EA0
3020
5720
B0E0
ENDCHAR
STARTCHAR 34FE
ENCODING 13566
SWIDTH 1000 0
DWIDTH 12 0
BBX 11 11 0 -2
BITMAP
7E20
42A0
7EA0
7AA0
5EA0
6BA0
68A0
7EA0
A8A0
BF20
88E0
ENDCHAR
STARTCHAR 34FF
ENCODING 13567
SWIDTH 1000 0
DWIDTH 12 0
BBX 11 11 0 -2
BITMAP
7E20
08A0
7FA0
3CA0
5AA0
3EA0
4AA0
ACA0
3C20
4A20
30E0
ENDCHAR
STARTCHAR 3500
ENCODING 13568
SWIDTH 1000 0
DWIDTH 12 0
BBX 11 11 0 -2
BITMAP
7E20
7EA0
42A0
7EA0
FFA0
00A0
7EA0
7EA0
3420
5220
B0E0
ENDCHAR
STARTCHAR 3501
ENCODING 13569
SWIDTH 1000 0
DWIDTH 12 0
BBX 11 11 0 -2
BITMAP
7A20
65A0
66A0
7EA0
81A0
7EA0
42A0
7EA0
24A0
2820
FEE0
ENDCHAR
STARTCHAR 3502
ENCODING 13570
SWIDTH 1000 0
DWIDTH 12 0
BBX 11 11 0 -2
BITMAP
4A20
2CA0
FEA0
2CA0
4AA0
C4A0
7EA0
DCA0
2F20
6420
C4E0
ENDCHAR
STARTCHAR 3503
ENCODING 13571
SWIDTH 1000 0
DWIDTH 12 0
BBX 12 11 0 -1
BITMAP
2200
57C0
E7E0
54A0
7FE0
B410
AFF0
A000
7FE0
0820
73C0
ENDCHAR
STARTCHAR 3504
ENCODING 13572
SWIDTH 1000 0
DWIDTH 12 0
BBX 11 11 0 -2
BITMAP
FF20
14A0
7FA0
55A0
7FA0
4AA0
2CA0
FFA0
2C20
CB20
08E0
ENDCHAR
STARTCHAR 3505
ENCODING 13573
SWIDTH 1000 0
DWIDTH 12 0
BBX 11 12 0 -2
BITMAP
1020
7EA0
12A0
FFA0
7EA0
76A0
52A0
52A0
7EA0
7620
B620
B6E0
ENDCHAR
STARTCHAR 3506
ENCODING 13574
SWIDTH 1000 0
DWIDTH 12 0
BBX 11 11 0 -1
BITMAP
0020
7F20
ACA0
FFA0
76A0
ABA0
08A0
7EA0
7E20
4220
7E60
ENDCHAR
STARTCHAR 3507
ENCODING 13575
SWIDTH 1000 0
DWIDTH 12 0
BBX 11 12 0 -2
BITMAP
0A20
75A0
53A0
22A0
EFA0
2AA0
6BA0
4EA0
6AA0
2420
2E20
7160
ENDCHAR
STARTCHAR 3508
ENCODING 13576
SWIDTH 1000 0
DWIDTH 12 0
BBX 11 12 0 -2
BITMAP
2420
FEA0
24A0
28A0
EEA0
28A0
28A0
6EA0
28A0
EE20
2820
28E0
ENDCHAR
STARTCHAR 3509
ENCODING 13577
SWIDTH 1000 0
DWIDTH 12 0
BBX 11 11 0 -2
BITMAP
7F20
7F60
4060
7F60
7E60
6A60
7E60
BF60
AD20
BF20
A360
ENDCHAR
STARTCHAR 350A
ENCODING 13578
SWIDTH 1000 0
DWIDTH 12 0
BBX 11 12 0 -2
BITMAP
1020
FEA0
7EA0
7AA0
6AA0
7AA0
7EA0
7EA0
7EA0
42A0
7E20
FEE0
ENDCHAR
STARTCHAR 350B
ENCODING 13579
SWIDTH 1000 0
DWIDTH 12 0
BBX 11 11 0 -1
BITMAP
7A20
53A0
7CA0
4CA0
7EA0
79A0
00A0
7EA0
56A0
5620
FF60
ENDCHAR
STARTCHAR 350C
ENCODING 13580
SWIDTH 1000 0
DWIDTH 12 0
BBX 11 11 0 -2
BITMAP
F020
7FA0
56A0
72A0
FDA0
18A0
7CA0
2BA0
54A0
3220
D2E0
ENDCHAR
STARTCHAR 350D
ENCODING 13581
SWIDTH 1000 0
DWIDTH 12 0
BBX 11 12 0 -2
BITMAP
4420
77A0
AAA0
7EA0
7EA0
42A0
7EA0
7EA0
24A0
FF20
2420
C460
ENDCHAR
STARTCHAR 350E
ENCODING 13582
SWIDTH 1000 0
DWIDTH 12 0
BBX 12 11 0 -1
BITMAP
5480
7FE0
3120
FFF0
7C80
7FE0
7C80
4080
7FE0
0820
73C0
ENDCHAR
STARTCHAR 350F
ENCODING 13583
SWIDTH 1000 0
DWIDTH 12 0
BBX 11 11 0 -1
BITMAP
0020
FF20
3EA0
E2A0
3EA0
00A0
FFA0
44A0
77A0
DD20
7760
ENDCHAR
STARTCHAR 3510
ENCODING 13584
SWIDTH 1000 0
DWIDTH 12 0
BBX 11 11 0 -1
BITMAP
4420
77A0
AAA0
FFA0
24A0
66A0
24A0
66A0
66A0
2420
FF60
ENDCHAR
STARTCHAR 3511
ENCODING 13585
SWIDTH 1000 0
DWIDTH 12 0
BBX 12 12 0 -2
BITMAP
0900
FFF0
2880
7BE0
7920
47F0
7BE0
7880
7FE0
0820
1020
63C0
ENDCHAR
STARTCHAR 3512
ENCODING 13586
SWIDTH 1000 0
DWIDTH 12 0
BBX 11 12 0 -2
BITMAP
4920
7FA0
3FA0
48A0
FEA0
7EA0
7FA0
7FA0
55A0
7F20
5D20
4760
ENDCHAR
STARTCHAR 3513
ENCODING 13587
SWIDTH 1000 0
DWIDTH 12 0
BBX 11 11 0 -1
BITMAP
0100
7D00
13E0
1120
1120
FD20
1120
1120
1220
1220
14E0
ENDCHAR
STARTCHAR 3514
ENCODING 13588
SWIDTH 1000 0
DWIDTH 12 0
BBX 11 11 0 -1
BITMAP
2000
7DE0
2520
2520
45E0
9820
1F80
6060
4020
6060
1F80
ENDCHAR
STARTCHAR 3515
ENCODING 13589
SWIDTH 1000 0
DWIDTH 12 0
BBX 11 11 0 -1
BITMAP
2080
3E80
41E0
BCA0
80A0
F8A0
08A0
08A0
0B20
0D20
06E0
ENDCHAR
STARTCHAR 3516
ENCODING 13590
SWIDTH 1000 0
DWIDTH 12 0
BBX 11 12 0 -2
BITMAP
2000
7DE0
2520
2520
25E0
5920
8000
7FC0
0040
0040
0040
0040
ENDCHAR
STARTCHAR 3517
ENCODING 13591
SWIDTH 1000 0
DWIDTH 12 0
BBX 11 11 0 -2
BITMAP
2880
7C80
2DE0
7CA0
A8A0
A8A0
FCA0
2D20
4D20
4B20
8AE0
ENDCHAR
STARTCHAR 3518
ENCODING 13592
SWIDTH 1000 0
DWIDTH 12 0
BBX 10 10 1 -1
BITMAP
2100
A900
AFC0
A940
F940
2A40
AA40
AA40
BA40
FDC0
ENDCHAR
STARTCHAR 3519
ENCODING 13593
SWIDTH 1000 0
DWIDTH 12 0
BBX 11 12 0 -2
BITMAP
4C80
2880
FFE0
48A0
48A0
48A0
FCA0
4920
4920
4920
4A20
8AE0
ENDCHAR
STARTCHAR 351A
ENCODING 13594
SWIDTH 1000 0
DWIDTH 12 0
BBX 11 11 0 -1
BITMAP
0080
FC80
1100
FFE0
1120
1120
7D20
4520
4520
7E20
44E0
ENDCHAR
STARTCHAR 351B
ENCODING 13595
SWIDTH 1000 0
DWIDTH 12 0
BBX 11 12 0 -2
BITMAP
0400
7FE0
0400
7FE0
3FC0
2040
3FC0
0800
7FE0
0820
1020
E3C0
ENDCHAR
STARTCHAR 351C
ENCODING 13596
SWIDTH 1000 0
DWIDTH 12 0
BBX 11 11 0 -1
BITMAP
0080
FE80
5480
57E0
7CA0
0CA0
1920
1F20
F120
1220
74E0
ENDCHAR
STARTCHAR 351D
ENCODING 13597
SWIDTH 1000 0
DWIDTH 12 0
BBX 11 11 0 -1
BITMAP
0080
FE80
1080
7FE0
9AA0
BAA0
B6A0
DEA0
96A0
9320
96E0
ENDCHAR
STARTCHAR 351E
ENCODING 13598
SWIDTH 1000 0
DWIDTH 12 0
BBX 12 11 0 -1
BITMAP
0080
7C80
1080
FFF0
58A0
D6A0
58A0
DAA0
5D20
1120
12E0
ENDCHAR
STARTCHAR 351F
ENCODING 13599
SWIDTH 1000 0
DWIDTH 12 0
BBX 12 12 0 -2
BITMAP
5100
7BC0
9140
7B50
13D0
1A50
6420
7FC0
0840
0840
3040
C3C0
ENDCHAR
STARTCHAR 3520
ENCODING 13600
SWIDTH 1000 0
DWIDTH 12 0
BBX 12 11 0 -1
BITMAP
7C80
4480
7DF0
7CA0
40A0
7EA0
D2A0
54A0
6D20
7D20
1EE0
ENDCHAR
STARTCHAR 3521
ENCODING 13601
SWIDTH 1000 0
DWIDTH 12 0
BBX 11 11 1 -1
BITMAP
2100
F900
DBE0
A940
D940
F940
9140
DD40
9240
DA40
95C0
ENDCHAR
STARTCHAR 3522
ENCODING 13602
SWIDTH 1000 0
DWIDTH 12 0
BBX 12 11 0 -1
BITMAP
2000
4BC0
77E0
2AA0
7BE0
6A10
8BE0
0400
7FC0
0840
F3C0
ENDCHAR
STARTCHAR 3523
ENCODING 13603
SWIDTH 1000 0
DWIDTH 12 0
BBX 10 10 1 -1
BITMAP
FD00
A500
FFC0
FD40
0140
FD40
BD40
FD40
FE40
05C0
ENDCHAR
STARTCHAR 3524
ENCODING 13604
SWIDTH 1000 0
DWIDTH 12 0
BBX 11 12 0 -2
BITMAP
1080
7E80
8280
BFE0
54A0
7EA0
FEA0
7CA0
54A0
7D20
5520
7EE0
ENDCHAR
STARTCHAR 3525
ENCODING 13605
SWIDTH 1000 0
DWIDTH 12 0
BBX 11 11 0 -2
BITMAP
7E80
AA80
7FE0
4AA0
FCA0
0AA0
7EA0
7AA0
9CA0
7B20
3F60
ENDCHAR
STARTCHAR 3526
ENCODING 13606
SWIDTH 1000 0
DWIDTH 12 0
BBX 11 12 0 -2
BITMAP
2480
FE80
7FE0
20A0
FEA0
74A0
FEA0
7CA0
7EA0
5520
4D20
6360
ENDCHAR
STARTCHAR 3527
ENCODING 13607
SWIDTH 1000 0
DWIDTH 12 0
BBX 11 11 0 -1
BITMAP
1080
1E80
7E80
5FE0
7EA0
7EA0
7EA0
BEA0
80A0
BF20
FF60
ENDCHAR
STARTCHAR 3528
ENCODING 13608
SWIDTH 1000 0
DWIDTH 12 0
BBX 11 11 0 -1
BITMAP
1000
3FE0
54A0
7320
F4A0
13A0
3FA0
3FA0
3FA0
20A0
23E0
ENDCHAR
STARTCHAR 3529
ENCODING 13609
SWIDTH 1000 0
DWIDTH 12 0
BBX 11 11 0 -1
BITMAP
1000
3FE0
4420
7FA0
FFA0
1220
3FA0
3FA0
2AA0
7FE0
00E0
ENDCHAR
STARTCHAR 352A
ENCODING 13610
SWIDTH 1000 0
DWIDTH 12 0
BBX 11 12 0 -2
BITMAP
1000
3FE0
2820
4FA0
FFA0
5EA0
4AA0
55A0
4AA0
55A0
7FA0
40E0
ENDCHAR
STARTCHAR 352B
ENCODING 13611
SWIDTH 1000 0
DWIDTH 12 0
BBX 12 12 0 -2
BITMAP
0800
0800
FFF0
0A00
0A20
0A40
1280
1300
1210
2220
4220
C3E0
ENDCHAR
STARTCHAR 352C
ENCODING 13612
SWIDTH 1000 0
DWIDTH 12 0
BBX 12 12 0 -2
BITMAP
20C0
3F20
2020
3FE0
3FC0
2040
3FC0
3FC0
0400
FFF0
0400
0400
ENDCHAR
STARTCHAR 352D
ENCODING 13613
SWIDTH 1000 0
DWIDTH 12 0
BBX 11 11 1 -1
BITMAP
8FC0
9040
8FC0
F040
8FC0
8000
9FE0
8A00
ABC0
DA00
A7E0
ENDCHAR
STARTCHAR 352E
ENCODING 13614
SWIDTH 1000 0
DWIDTH 12 0
BBX 12 11 0 -1
BITMAP
5200
FA90
5570
7790
7F60
AD80
7790
7D60
FF90
2590
DF60
ENDCHAR
STARTCHAR 352F
ENCODING 13615
SWIDTH 1000 0
DWIDTH 12 0
BBX 11 10 1 -1
BITMAP
FFE0
8000
9F00
9100
90C0
BF80
9080
9F80
8000
FFE0
ENDCHAR
STARTCHAR 3530
ENCODING 13616
SWIDTH 1000 0
DWIDTH 12 0
BBX 11 10 1 -1
BITMAP
FFE0
9100
9D00
A500
B580
C940
8900
9100
A100
FFE0
ENDCHAR
STARTCHAR 3531
ENCODING 13617
SWIDTH 1000 0
DWIDTH 12 0
BBX 11 10 1 -1
BITMAP
FFC0
8000
BD80
A480
BD80
BF80
8400
8B00
B0C0
FFE0
ENDCHAR
STARTCHAR 3532
ENCODING 13618
SWIDTH 1000 0
DWIDTH 12 0
BBX 11 10 1 -1
BITMAP
FFE0
9200
AA00
BF80
EA80
BA80
BAA0
AAA0
B4C0
FFE0
ENDCHAR
STARTCHAR 3533
ENCODING 13619
SWIDTH 1000 0
DWIDTH 12 0
BBX 11 10 1 -1
BITMAP
FFE0
9380
BE80
FA80
AA80
BA80
BAA0
ACA0
B4C0
FFE0
ENDCHAR
STARTCHAR 3534
ENCODING 13620
SWIDTH 1000 0
DWIDTH 12 0
BBX 11 10 1 -1
BITMAP
FFE0
BF80
A480
BF80
BF80
BFC0
FFC0
8980
B0C0
FFE0
ENDCHAR
STARTCHAR 3535
ENCODING 13621
SWIDTH 1000 0
DWIDTH 12 0
BBX 11 10 1 -1
BITMAP
FFE0
BBC0
AA40
BFC0
BFC0
BFC0
8900
FFC0
A0C0
FFE0
ENDCHAR
STARTCHAR 3536
ENCODING 13622
SWIDTH 1000 0
DWIDTH 12 0
BBX 11 11 1 -1
BITMAP
FFE0
A3C0
FF80
FA40
FFC0
CFC0
FBC0
FBC0
FBC0
96C0
FFE0
ENDCHAR
STARTCHAR 3537
ENCODING 13623
SWIDTH 1000 0
DWIDTH 12 0
BBX 11 10 1 -1
BITMAP
FFE0
8000
BFC0
BFC0
A440
AE40
B940
A040
8380
FFE0
ENDCHAR
STARTCHAR 3538
ENCODING 13624
SWIDTH 1000 0
DWIDTH 12 0
BBX 11 10 1 -1
BITMAP
FFE0
BFC0
A3C0
AFC0
AA40
AF00
B780
D4C0
D4C0
FFE0
ENDCHAR
STARTCHAR 3539
ENCODING 13625
SWIDTH 1000 0
DWIDTH 12 0
BBX 11 10 0 -1
BITMAP
2100
2100
FFE0
2120
2120
2220
2220
2220
2420
29E0
ENDCHAR
STARTCHAR 353A
ENCODING 13626
SWIDTH 1000 0
DWIDTH 12 0
BBX 12 11 0 -1
BITMAP
0400
0400
7FE0
0400
2440
2040
FFF0
2050
2010
2020
1FE0
ENDCHAR
STARTCHAR 353B
ENCODING 13627
SWIDTH 1000 0
DWIDTH 12 0
BBX 12 11 0 -2
BITMAP
7FE0
0400
0D00
34C0
C430
0000
0400
FFF0
0400
0400
0400
ENDCHAR
STARTCHAR 353C
ENCODING 13628
SWIDTH 1000 0
DWIDTH 12 0
BBX 12 11 0 -1
BITMAP
0200
2480
FFE0
2FE0
FC80
27E0
67F0
0400
FFF0
0400
0400
ENDCHAR
STARTCHAR 353D
ENCODING 13629
SWIDTH 1000 0
DWIDTH 12 0
BBX 10 12 1 -2
BITMAP
0800
0FC0
0800
FFC0
8040
9E40
9240
9240
9E40
8040
FFC0
8040
ENDCHAR
STARTCHAR 353E
ENCODING 13630
SWIDTH 1000 0
DWIDTH 12 0
BBX 9 10 2 -1
BITMAP
FF00
8100
8100
8100
8100
8E00
8080
8080
8080
FF80
ENDCHAR
STARTCHAR 353F
ENCODING 13631
SWIDTH 1000 0
DWIDTH 12 0
BBX 12 11 0 -2
BITMAP
FFF0
2040
2040
2040
2040
2040
23C0
3C40
2040
0040
0040
ENDCHAR
STARTCHAR 3540
ENCODING 13632
SWIDTH 1000 0
DWIDTH 12 0
BBX 11 11 1 -1
BITMAP
0800
FFC0
8840
FFC0
FFC0
0000
7F80
4080
47A0
4040
7FC0
ENDCHAR
STARTCHAR 3541
ENCODING 13633
SWIDTH 1000 0
DWIDTH 12 0
BBX 11 12 0 -2
BITMAP
45E0
3920
3D20
5720
1120
FF20
2920
5120
9560
2500
7F00
0300
ENDCHAR
STARTCHAR 3542
ENCODING 13634
SWIDTH 1000 0
DWIDTH 12 0
BBX 12 11 0 -2
BITMAP
7FF0
4100
4300
4480
4A40
5130
4FC0
4040
4080
4100
8100
ENDCHAR
STARTCHAR 3543
ENCODING 13635
SWIDTH 1000 0
DWIDTH 12 0
BBX 12 11 0 -2
BITMAP
7FF0
4000
5FE0
4440
4440
4440
5FF0
4440
4440
4840
9040
ENDCHAR
STARTCHAR 3544
ENCODING 13636
SWIDTH 1000 0
DWIDTH 12 0
BBX 12 11 0 -2
BITMAP
7FF0
4000
5FE0
4200
4440
4880
5F00
4240
4240
4C20
9FE0
ENDCHAR
STARTCHAR 3545
ENCODING 13637
SWIDTH 1000 0
DWIDTH 12 0
BBX 12 11 0 -2
BITMAP
7FF0
4000
5FE0
5120
5120
5FE0
5120
5FE0
4100
4100
8100
ENDCHAR
STARTCHAR 3546
ENCODING 13638
SWIDTH 1000 0
DWIDTH 12 0
BBX 12 11 0 -2
BITMAP
7FF0
4100
4100
5FF0
4100
4100
5FE0
5020
5020
DFE0
9020
ENDCHAR
STARTCHAR 3547
ENCODING 13639
SWIDTH 1000 0
DWIDTH 12 0
BBX 12 11 0 -2
BITMAP
7FF0
4200
4100
5FE0
4000
4840
4840
4480
4480
C480
9FF0
ENDCHAR
STARTCHAR 3548
ENCODING 13640
SWIDTH 1000 0
DWIDTH 12 0
BBX 12 10 0 -1
BITMAP
7FF0
4200
4100
5FF0
4320
4560
5C80
6480
4760
8430
ENDCHAR
STARTCHAR 3549
ENCODING 13641
SWIDTH 1000 0
DWIDTH 12 0
BBX 12 10 0 -1
BITMAP
7FF0
4300
4780
4840
57F0
4000
4FC0
4840
4FC0
8840
ENDCHAR
STARTCHAR 354A
ENCODING 13642
SWIDTH 1000 0
DWIDTH 12 0
BBX 12 10 0 -1
BITMAP
7FF0
4240
5FF0
4200
5FE0
5FE0
5220
5FE0
5220
90E0
ENDCHAR
STARTCHAR 354B
ENCODING 13643
SWIDTH 1000 0
DWIDTH 12 0
BBX 12 11 0 -2
BITMAP
7FF0
4300
4680
4840
5FF0
4200
5FE0
5220
4A40
4A80
9FF0
ENDCHAR
STARTCHAR 354C
ENCODING 13644
SWIDTH 1000 0
DWIDTH 12 0
BBX 12 11 0 -2
BITMAP
7FF0
4000
4FE0
4FE0
4820
4FE0
5FE0
4040
5FF0
4440
8380
ENDCHAR
STARTCHAR 354D
ENCODING 13645
SWIDTH 1000 0
DWIDTH 12 0
BBX 12 11 0 -2
BITMAP
7FF0
4500
4900
4FE0
5900
6FE0
4900
4FE0
4900
4FF0
8800
ENDCHAR
STARTCHAR 354E
ENCODING 13646
SWIDTH 1000 0
DWIDTH 12 0
BBX 12 11 0 -2
BITMAP
7FF0
4200
5FE0
4200
5FF0
4CC0
5FE0
5FE0
54A0
54A0
BFF0
ENDCHAR
STARTCHAR 354F
ENCODING 13647
SWIDTH 1000 0
DWIDTH 12 0
BBX 12 11 0 -2
BITMAP
7FF0
4020
7EA0
40A0
5F20
52A0
5E20
53F0
5420
8620
B820
ENDCHAR
STARTCHAR 3550
ENCODING 13648
SWIDTH 1000 0
DWIDTH 12 0
BBX 12 11 0 -2
BITMAP
7FF0
4000
5FE0
5EE0
5020
5FE0
4800
5FE0
52A0
5560
80E0
ENDCHAR
STARTCHAR 3551
ENCODING 13649
SWIDTH 1000 0
DWIDTH 12 0
BBX 12 11 0 -2
BITMAP
7FF0
4820
7E20
48F0
5E20
5EA0
52A0
5EA0
5220
4720
B8C0
ENDCHAR
STARTCHAR 3552
ENCODING 13650
SWIDTH 1000 0
DWIDTH 12 0
BBX 12 11 0 -2
BITMAP
7FF0
4480
5FE0
5FE0
4200
5FE0
5F20
7FF0
4AA0
BCE0
9B60
ENDCHAR
STARTCHAR 3553
ENCODING 13651
SWIDTH 1000 0
DWIDTH 12 0
BBX 12 11 0 -2
BITMAP
7FF0
5FE0
56A0
5FE0
4200
5FE0
5FE0
54A0
5FE0
8200
BFF0
ENDCHAR
STARTCHAR 3554
ENCODING 13652
SWIDTH 1000 0
DWIDTH 12 0
BBX 12 11 0 -2
BITMAP
7FF0
4080
7FF0
5DE0
5EE0
55E0
7E00
7FF0
7F60
9730
BCC0
ENDCHAR
STARTCHAR 3555
ENCODING 13653
SWIDTH 1000 0
DWIDTH 12 0
BBX 10 12 1 -2
BITMAP
0C00
1800
3300
6080
FFC0
0840
1000
3200
2100
4080
FFC0
0040
ENDCHAR
STARTCHAR 3556
ENCODING 13654
SWIDTH 1000 0
DWIDTH 12 0
BBX 12 11 0 -1
BITMAP
0400
1980
3FE0
3080
6940
7FF0
0400
FFF0
0D00
3480
C470
ENDCHAR
STARTCHAR 3557
ENCODING 13655
SWIDTH 1000 0
DWIDTH 12 0
BBX 12 13 0 -2
BITMAP
4400
2440
7E80
1080
7E80
10C0
FF20
2120
3D20
4BD0
8810
3600
C1F0
ENDCHAR
STARTCHAR 3558
ENCODING 13656
SWIDTH 1000 0
DWIDTH 12 0
BBX 12 12 0 -2
BITMAP
0500
1880
3FC0
2940
7FE0
0600
1980
E470
1480
2440
4420
0C00
ENDCHAR
STARTCHAR 3559
ENCODING 13657
SWIDTH 1000 0
DWIDTH 12 0
BBX 12 12 0 -2
BITMAP
2100
33C0
4E40
FBE0
5CA0
A4A0
7BE0
4D00
B180
11B0
2A90
C460
ENDCHAR
STARTCHAR 355A
ENCODING 13658
SWIDTH 1000 0
DWIDTH 12 0
BBX 11 10 1 -1
BITMAP
FFC0
4080
2880
2480
9100
9300
4A00
0E00
3180
C060
ENDCHAR
STARTCHAR 355B
ENCODING 13659
SWIDTH 1000 0
DWIDTH 12 0
BBX 11 11 0 -2
BITMAP
7FC0
30C0
0F00
1D80
6060
3FC0
1080
0980
0600
1F80
E060
ENDCHAR
STARTCHAR 355C
ENCODING 13660
SWIDTH 1000 0
DWIDTH 12 0
BBX 11 12 0 -2
BITMAP
0400
7FE0
4420
4420
7FE0
0400
3FC0
10C0
0980
0600
1F80
E060
ENDCHAR
STARTCHAR 355D
ENCODING 13661
SWIDTH 1000 0
DWIDTH 12 0
BBX 12 12 0 -2
BITMAP
0400
FFF0
0400
3FC0
2040
3FC0
0000
7FC0
10C0
0900
0F00
F0F0
ENDCHAR
STARTCHAR 355E
ENCODING 13662
SWIDTH 1000 0
DWIDTH 12 0
BBX 12 10 0 -1
BITMAP
7DF0
4520
7D20
4920
7F20
6AC0
6AC0
6AC0
AD20
8A10
ENDCHAR
STARTCHAR 355F
ENCODING 13663
SWIDTH 1000 0
DWIDTH 12 0
BBX 11 12 1 -2
BITMAP
2000
3BE0
2240
2240
FA40
DA40
D940
F980
D880
D980
DA40
9C20
ENDCHAR
STARTCHAR 3560
ENCODING 13664
SWIDTH 1000 0
DWIDTH 12 0
BBX 12 12 0 -2
BITMAP
4500
4FE0
2900
1FE0
1FE0
2900
4FE0
8800
7FC0
1080
0F00
79F0
ENDCHAR
STARTCHAR 3561
ENCODING 13665
SWIDTH 1000 0
DWIDTH 12 0
BBX 12 12 0 -2
BITMAP
1000
1FE0
7F20
8320
BEA0
54A0
6AA0
64C0
BE40
44C0
45A0
3D10
ENDCHAR
STARTCHAR 3562
ENCODING 13666
SWIDTH 1000 0
DWIDTH 12 0
BBX 12 12 0 -2
BITMAP
1000
1FE0
7F20
8320
BEA0
7CA0
44A0
7C40
7C40
7CC0
29A0
4510
ENDCHAR
STARTCHAR 3563
ENCODING 13667
SWIDTH 1000 0
DWIDTH 12 0
BBX 12 12 0 -2
BITMAP
0100
0900
1080
30C0
6060
8030
3FC0
2040
2040
2040
3FC0
2040
ENDCHAR
STARTCHAR 3564
ENCODING 13668
SWIDTH 1000 0
DWIDTH 12 0
BBX 11 11 1 -1
BITMAP
0400
E400
AF80
A480
A480
A480
A480
A8A0
E8A0
90A0
10C0
ENDCHAR
STARTCHAR 3565
ENCODING 13669
SWIDTH 1000 0
DWIDTH 12 0
BBX 11 11 1 -1
BITMAP
0200
E200
A200
A200
A200
A600
A500
A500
E880
10C0
2060
ENDCHAR
STARTCHAR 3566
ENCODING 13670
SWIDTH 1000 0
DWIDTH 12 0
BBX 12 10 0 -1
BITMAP
3FC0
2040
2040
3FC0
0400
7FE0
0600
0900
1080
E070
ENDCHAR
STARTCHAR 3567
ENCODING 13671
SWIDTH 1000 0
DWIDTH 12 0
BBX 10 11 1 -2
BITMAP
EFC0
A840
A840
A840
AFC0
A840
A800
E800
9000
1000
2000
ENDCHAR
STARTCHAR 3568
ENCODING 13672
SWIDTH 1000 0
DWIDTH 12 0
BBX 11 10 1 -1
BITMAP
EF80
A880
A880
AC80
AA80
A980
E880
98A0
10A0
20C0
ENDCHAR
STARTCHAR 3569
ENCODING 13673
SWIDTH 1000 0
DWIDTH 12 0
BBX 11 12 1 -2
BITMAP
0100
E100
AFC0
A100
A100
AFC0
A100
A100
EFE0
A100
0100
0100
ENDCHAR
STARTCHAR 356A
ENCODING 13674
SWIDTH 1000 0
DWIDTH 12 0
BBX 11 12 1 -2
BITMAP
0200
E200
AFC0
B240
B240
A200
A300
A500
E500
8920
1920
21C0
ENDCHAR
STARTCHAR 356B
ENCODING 13675
SWIDTH 1000 0
DWIDTH 12 0
BBX 11 11 1 -1
BITMAP
0200
E100
BFE0
A400
A7C0
A440
A440
A440
E840
9840
3380
ENDCHAR
STARTCHAR 356C
ENCODING 13676
SWIDTH 1000 0
DWIDTH 12 0
BBX 11 12 1 -2
BITMAP
0500
E480
A480
A8C0
A840
B220
A200
A480
E480
A8C0
0FC0
1840
ENDCHAR
ENDFONT
